NotoSansKhmer-Bold.ufo
<glyph name="braceleft" format="1">
  <advance width="745"/>
  <unicode hex="007B"/>
  <outline>
    <contour>
      <point x="156" y="449"/>
      <point x="31" y="449" type="qcurve"/>
      <point x="31" y="688" type="line"/>
      <point x="93" y="688"/>
      <point x="190" y="707"/>
      <point x="256" y="750"/>
      <point x="289" y="818"/>
      <point x="287" y="866" type="qcurve" smooth="yes"/>
      <point x="287" y="1184" type="line" smooth="yes"/>
      <point x="287" y="1258"/>
      <point x="325" y="1363"/>
      <point x="424" y="1430"/>
      <point x="594" y="1462"/>
      <point x="725" y="1462" type="qcurve"/>
      <point x="725" y="1237" type="line"/>
      <point x="685" y="1236"/>
      <point x="620" y="1224"/>
      <point x="575" y="1193"/>
      <point x="551" y="1139"/>
      <point x="551" y="1096" type="qcurve" smooth="yes"/>
      <point x="551" y="797" type="line"/>
      <point x="545" y="610"/>
      <point x="317" y="575" type="qcurve"/>
      <point x="317" y="563" type="line"/>
      <point x="432" y="546"/>
      <point x="554" y="436"/>
      <point x="551" y="342" type="qcurve" smooth="yes"/>
      <point x="551" y="43" type="line" smooth="yes"/>
      <point x="551" y="0"/>
      <point x="575" y="-54"/>
      <point x="620" y="-85"/>
      <point x="685" y="-97"/>
      <point x="725" y="-98" type="qcurve"/>
      <point x="725" y="-324" type="line"/>
      <point x="594" y="-324"/>
      <point x="424" y="-292"/>
      <point x="325" y="-225"/>
      <point x="287" y="-119"/>
      <point x="287" y="-45" type="qcurve" smooth="yes"/>
      <point x="287" y="270" type="line" smooth="yes"/>
      <point x="287" y="367"/>
    </contour>
  </outline>
</glyph>
<glyph name="bar" format="1">
  <advance width="1128"/>
  <unicode hex="007C"/>
  <outline>
    <contour>
      <point x="455" y="1550" type="line"/>
      <point x="674" y="1550" type="line"/>
      <point x="674" y="-465" type="line"/>
      <point x="455" y="-465" type="line"/>
    </contour>
  </outline>
</glyph>
<glyph name="braceright" format="1">
  <advance width="745"/>
  <unicode hex="007D"/>
  <outline>
    <contour>
      <point x="469" y="-45" type="line" smooth="yes"/>
      <point x="469" y="-119"/>
      <point x="431" y="-225"/>
      <point x="332" y="-292"/>
      <point x="162" y="-324"/>
      <point x="31" y="-324" type="qcurve"/>
      <point x="31" y="-98" type="line"/>
      <point x="71" y="-97"/>
      <point x="135" y="-85"/>
      <point x="180" y="-54"/>
      <point x="205" y="0"/>
      <point x="205" y="43" type="qcurve" smooth="yes"/>
      <point x="205" y="342" type="line" smooth="yes"/>
      <point x="202" y="436"/>
      <point x="324" y="546"/>
      <point x="438" y="563" type="qcurve"/>
      <point x="438" y="575" type="line"/>
      <point x="211" y="610"/>
      <point x="205" y="797" type="qcurve"/>
      <point x="205" y="1096" type="line" smooth="yes"/>
      <point x="205" y="1139"/>
      <point x="180" y="1193"/>
      <point x="135" y="1224"/>
      <point x="71" y="1236"/>
      <point x="31" y="1237" type="qcurve"/>
      <point x="31" y="1462" type="line"/>
      <point x="162" y="1462"/>
      <point x="332" y="1430"/>
      <point x="431" y="1363"/>
      <point x="469" y="1258"/>
      <point x="469" y="1184" type="qcurve" smooth="yes"/>
      <point x="469" y="866" type="line" smooth="yes"/>
      <point x="468" y="818"/>
      <point x="500" y="750"/>
      <point x="566" y="707"/>
      <point x="663" y="688"/>
      <point x="725" y="688" type="qcurve"/>
      <point x="725" y="449" type="line"/>
      <point x="600" y="449"/>
      <point x="469" y="367"/>
      <point x="469" y="270" type="qcurve" smooth="yes"/>
    </contour>
  </outline>
</glyph>
<glyph name="asciitilde" format="1">
  <advance width="1128"/>
  <unicode hex="007E"/>
  <outline>
    <contour>
      <point x="528" y="616" type="qcurve" smooth="yes"/>
      <point x="491" y="632"/>
      <point x="434" y="654"/>
      <point x="387" y="667"/>
      <point x="345" y="672"/>
      <point x="322" y="672" type="qcurve" smooth="yes"/>
      <point x="293" y="672"/>
      <point x="231" y="653"/>
      <point x="171" y="620"/>
      <point x="114" y="576"/>
      <point x="88" y="551" type="qcurve"/>
      <point x="88" y="782" type="line"/>
      <point x="139" y="836"/>
      <point x="266" y="891"/>
      <point x="344" y="891" type="qcurve" smooth="yes"/>
      <point x="374" y="891"/>
      <point x="425" y="886"/>
      <point x="482" y="872"/>
      <point x="552" y="847"/>
      <point x="600" y="827" type="qcurve" smooth="yes"/>
      <point x="638" y="811"/>
      <point x="695" y="790"/>
      <point x="743" y="777"/>
      <point x="785" y="772"/>
      <point x="807" y="772" type="qcurve" smooth="yes"/>
      <point x="836" y="772"/>
      <point x="898" y="791"/>
      <point x="958" y="823"/>
      <point x="1015" y="868"/>
      <point x="1040" y="893" type="qcurve"/>
      <point x="1040" y="662" type="line"/>
      <point x="939" y="553"/>
      <point x="784" y="553" type="qcurve" smooth="yes"/>
      <point x="754" y="553"/>
      <point x="703" y="558"/>
      <point x="646" y="571"/>
      <point x="576" y="596"/>
    </contour>
  </outline>
</glyph>
<glyph name="guillemotleft" format="1">
  <advance width="1198"/>
  <unicode hex="00AB"/>
  <outline>
    <contour>
      <point x="82" y="573" type="line"/>
      <point x="391" y="1028" type="line"/>
      <point x="610" y="909" type="line"/>
      <point x="393" y="561" type="line"/>
      <point x="610" y="213" type="line"/>
      <point x="391" y="94" type="line"/>
      <point x="82" y="547" type="line"/>
    </contour>
    <contour>
      <point x="588" y="573" type="line"/>
      <point x="897" y="1028" type="line"/>
      <point x="1116" y="909" type="line"/>
      <point x="899" y="561" type="line"/>
      <point x="1116" y="213" type="line"/>
      <point x="897" y="94" type="line"/>
      <point x="588" y="547" type="line"/>
    </contour>
  </outline>
</glyph>
<glyph name="guillemotright" format="1">
  <advance width="1198"/>
  <unicode hex="00BB"/>
  <outline>
    <contour>
      <point x="1118" y="547" type="line"/>
      <point x="809" y="94" type="line"/>
      <point x="590" y="213" type="line"/>
      <point x="807" y="561" type="line"/>
      <point x="590" y="909" type="line"/>
      <point x="809" y="1028" type="line"/>
      <point x="1118" y="573" type="line"/>
    </contour>
    <contour>
      <point x="612" y="547" type="line"/>
      <point x="303" y="94" type="line"/>
      <point x="84" y="213" type="line"/>
      <point x="301" y="561" type="line"/>
      <point x="84" y="909" type="line"/>
      <point x="303" y="1028" type="line"/>
      <point x="612" y="573" type="line"/>
    </contour>
  </outline>
</glyph>
<glyph name="uni1780" format="1">
  <advance width="1300"/>
  <unicode hex="1780"/>
  <outline>
    <contour>
      <point x="1150" y="1200" type="line"/>
      <point x="1150" y="1012" type="line"/>
      <point x="150" y="1012" type="line"/>
      <point x="150" y="1200" type="line"/>
    </contour>
    <contour>
      <point x="438" y="570" type="qcurve" smooth="yes"/>
      <point x="438" y="0" type="line"/>
      <point x="150" y="0" type="line"/>
      <point x="150" y="570" type="line" smooth="yes"/>
      <point x="150" y="893"/>
      <point x="650" y="893" type="qcurve" smooth="yes"/>
      <point x="1150" y="893"/>
      <point x="1150" y="570" type="qcurve" smooth="yes"/>
      <point x="1150" y="0" type="line"/>
      <point x="862" y="0" type="line"/>
      <point x="862" y="570" type="line" smooth="yes"/>
      <point x="862" y="705"/>
      <point x="650" y="705" type="qcurve" smooth="yes"/>
      <point x="438" y="705"/>
    </contour>
  </outline>
</glyph>
<glyph name="uni1781" format="1">
  <advance width="1300"/>
  <unicode hex="1781"/>
  <outline>
    <contour>
      <point x="438" y="453" type="line"/>
      <point x="438" y="323" type="line" smooth="yes"/>
      <point x="438" y="188"/>
      <point x="650" y="188" type="qcurve" smooth="yes"/>
      <point x="862" y="188"/>
      <point x="862" y="323" type="qcurve" smooth="yes"/>
      <point x="862" y="480" type="line"/>
      <point x="1150" y="480" type="line"/>
      <point x="1150" y="323" type="line" smooth="yes"/>
      <point x="1150" y="0"/>
      <point x="650" y="0" type="qcurve" smooth="yes"/>
      <point x="150" y="0"/>
      <point x="150" y="323" type="qcurve" smooth="yes"/>
      <point x="150" y="586" type="line"/>
      <point x="556" y="656" type="line"/>
      <point x="862" y="717"/>
      <point x="862" y="877" type="qcurve" smooth="yes"/>
      <point x="862" y="1012"/>
      <point x="650" y="1012" type="qcurve" smooth="yes"/>
      <point x="438" y="1012"/>
      <point x="438" y="897" type="qcurve" smooth="yes"/>
      <point x="438" y="863"/>
      <point x="538" y="863" type="qcurve"/>
      <point x="538" y="719" type="line"/>
      <point x="338" y="719" type="line" smooth="yes"/>
      <point x="150" y="719"/>
      <point x="150" y="863" type="qcurve" smooth="yes"/>
      <point x="150" y="897" type="line" smooth="yes"/>
      <point x="150" y="1200"/>
      <point x="650" y="1200" type="qcurve" smooth="yes"/>
      <point x="1150" y="1200"/>
      <point x="1150" y="877" type="qcurve" smooth="yes"/>
      <point x="1150" y="575"/>
      <point x="566" y="479" type="qcurve"/>
    </contour>
  </outline>
</glyph>
<glyph name="uni1782" format="1">
  <advance width="1300"/>
  <unicode hex="1782"/>
  <outline>
    <contour>
      <point x="1150" y="1200" type="line"/>
      <point x="1150" y="1012" type="line"/>
      <point x="150" y="1012" type="line"/>
      <point x="150" y="1200" type="line"/>
    </contour>
    <contour>
      <point x="438" y="377" type="line"/>
      <point x="495" y="450"/>
      <point x="573" y="450" type="qcurve" smooth="yes"/>
      <point x="700" y="450" type="line"/>
      <point x="700" y="262" type="line"/>
      <point x="596" y="262" type="line" smooth="yes"/>
      <point x="493" y="262"/>
      <point x="451" y="197" type="qcurve" smooth="yes"/>
      <point x="444" y="186"/>
      <point x="438" y="176" type="qcurve"/>
      <point x="438" y="0" type="line"/>
      <point x="150" y="0" type="line"/>
      <point x="150" y="570" type="line" smooth="yes"/>
      <point x="150" y="893"/>
      <point x="650" y="893" type="qcurve" smooth="yes"/>
      <point x="1150" y="893"/>
      <point x="1150" y="570" type="qcurve" smooth="yes"/>
      <point x="1150" y="0" type="line"/>
      <point x="862" y="0" type="line"/>
      <point x="862" y="570" type="line" smooth="yes"/>
      <point x="862" y="705"/>
      <point x="650" y="705" type="qcurve" smooth="yes"/>
      <point x="438" y="705"/>
      <point x="438" y="570" type="qcurve" smooth="yes"/>
    </contour>
  </outline>
</glyph>
<glyph name="uni1783" format="1">
  <advance width="1900"/>
  <unicode hex="1783"/>
  <outline>
    <contour>
      <point x="812" y="806" type="line"/>
      <point x="707" y="905" type="line"/>
      <point x="655" y="955" type="line" smooth="yes"/>
      <point x="624" y="984"/>
      <point x="624" y="1012" type="qcurve" smooth="yes"/>
      <point x="624" y="1033"/>
      <point x="640" y="1053" type="qcurve" smooth="yes"/>
      <point x="677" y="1102" type="line"/>
      <point x="752" y="1200" type="line"/>
      <point x="1100" y="1200" type="line"/>
      <point x="1100" y="1012" type="line"/>
      <point x="802" y="1012" type="line"/>
      <point x="1100" y="840" type="line"/>
      <point x="1100" y="323" type="line" smooth="yes"/>
      <point x="1100" y="188"/>
      <point x="1281" y="188" type="qcurve" smooth="yes"/>
      <point x="1462" y="188"/>
      <point x="1462" y="323" type="qcurve" smooth="yes"/>
      <point x="1462" y="806" type="line"/>
      <point x="1357" y="905" type="line"/>
      <point x="1305" y="955" type="line" smooth="yes"/>
      <point x="1274" y="984"/>
      <point x="1274" y="1012" type="qcurve" smooth="yes"/>
      <point x="1274" y="1033"/>
      <point x="1290" y="1053" type="qcurve" smooth="yes"/>
      <point x="1327" y="1102" type="line"/>
      <point x="1402" y="1200" type="line"/>
      <point x="1750" y="1200" type="line"/>
      <point x="1750" y="1012" type="line"/>
      <point x="1452" y="1012" type="line"/>
      <point x="1750" y="840" type="line"/>
      <point x="1750" y="323" type="line" smooth="yes"/>
      <point x="1750" y="0"/>
      <point x="1281" y="0" type="qcurve" smooth="yes"/>
      <point x="1062" y="0"/>
      <point x="956" y="98" type="qcurve"/>
      <point x="850" y="0"/>
      <point x="625" y="0" type="qcurve" smooth="yes"/>
      <point x="150" y="0"/>
      <point x="150" y="323" type="qcurve" smooth="yes"/>
      <point x="150" y="965" type="line" smooth="yes"/>
      <point x="150" y="1012"/>
      <point x="59" y="1012" type="qcurve"/>
      <point x="59" y="1200" type="line"/>
      <point x="238" y="1200" type="line" smooth="yes"/>
      <point x="438" y="1200"/>
      <point x="438" y="1098" type="qcurve" smooth="yes"/>
      <point x="438" y="323" type="line" smooth="yes"/>
      <point x="438" y="188"/>
      <point x="625" y="188" type="qcurve" smooth="yes"/>
      <point x="812" y="188"/>
      <point x="812" y="323" type="qcurve" smooth="yes"/>
    </contour>
  </outline>
</glyph>
<glyph name="uni1784" format="1">
  <advance width="1300"/>
  <unicode hex="1784"/>
  <outline>
    <contour>
      <point x="150" y="485" type="line" smooth="yes"/>
      <point x="150" y="526"/>
      <point x="60" y="526" type="qcurve"/>
      <point x="60" y="720" type="line"/>
      <point x="250" y="720" type="line" smooth="yes"/>
      <point x="438" y="720"/>
      <point x="438" y="526" type="qcurve" smooth="yes"/>
      <point x="438" y="261" type="line"/>
      <point x="651" y="455" type="line"/>
      <point x="862" y="263" type="line"/>
      <point x="862" y="720" type="line" smooth="yes"/>
      <point x="862" y="769"/>
      <point x="828" y="834" type="qcurve"/>
      <point x="686" y="785"/>
      <point x="530" y="785" type="qcurve" smooth="yes"/>
      <point x="150" y="785"/>
      <point x="150" y="1039" type="qcurve" smooth="yes"/>
      <point x="150" y="1400" type="line"/>
      <point x="438" y="1400" type="line"/>
      <point x="438" y="1039" type="line" smooth="yes"/>
      <point x="438" y="943"/>
      <point x="530" y="943" type="qcurve" smooth="yes"/>
      <point x="604" y="943"/>
      <point x="705" y="973" type="qcurve"/>
      <point x="630" y="1004"/>
      <point x="630" y="1056" type="qcurve" smooth="yes"/>
      <point x="630" y="1200"/>
      <point x="820" y="1200" type="qcurve" smooth="yes"/>
      <point x="1050" y="1200"/>
      <point x="1050" y="1056" type="qcurve" smooth="yes"/>
      <point x="1050" y="994"/>
      <point x="982" y="937" type="qcurve"/>
      <point x="1003" y="930"/>
      <point x="1025" y="920" type="qcurve" smooth="yes"/>
      <point x="1150" y="867"/>
      <point x="1150" y="720" type="qcurve" smooth="yes"/>
      <point x="1150" y="0" type="line"/>
      <point x="882" y="0" type="line"/>
      <point x="651" y="210" type="line"/>
      <point x="419" y="0" type="line"/>
      <point x="150" y="0" type="line"/>
    </contour>
  </outline>
</glyph>
<glyph name="uni1787" format="1">
  <advance width="1300"/>
  <unicode hex="1787"/>
  <outline>
    <contour>
      <point x="862" y="893" type="line"/>
      <point x="1150" y="893" type="line"/>
      <point x="1150" y="0" type="line"/>
      <point x="882" y="0" type="line"/>
      <point x="651" y="210" type="line"/>
      <point x="419" y="0" type="line"/>
      <point x="150" y="0" type="line"/>
      <point x="150" y="786" type="line"/>
      <point x="122" y="822" type="line" smooth="yes"/>
      <point x="50" y="914"/>
      <point x="50" y="955" type="qcurve" smooth="yes"/>
      <point x="50" y="992"/>
      <point x="68" y="1017" type="qcurve" smooth="yes"/>
      <point x="218" y="1200" type="line"/>
      <point x="800" y="1200" type="line" smooth="yes"/>
      <point x="862" y="1200"/>
      <point x="862" y="1250" type="qcurve" smooth="yes"/>
      <point x="862" y="1400" type="line"/>
      <point x="1150" y="1400" type="line"/>
      <point x="1150" y="1250" type="line" smooth="yes"/>
      <point x="1150" y="1012"/>
      <point x="930" y="1012" type="qcurve" smooth="yes"/>
      <point x="263" y="1012" type="line"/>
      <point x="242" y="987" type="line" smooth="yes"/>
      <point x="237" y="982"/>
      <point x="237" y="974" type="qcurve" smooth="yes"/>
      <point x="237" y="942"/>
      <point x="438" y="820" type="qcurve"/>
      <point x="438" y="261" type="line"/>
      <point x="651" y="455" type="line"/>
      <point x="862" y="263" type="line"/>
    </contour>
  </outline>
</glyph>
<glyph name="uni1788" format="1">
  <advance width="2562"/>
  <unicode hex="1788"/>
  <outline>
    <contour>
      <point x="438" y="310" type="qcurve"/>
      <point x="438" y="138" type="line"/>
      <point x="530" y="138"/>
      <point x="530" y="249" type="qcurve" smooth="yes"/>
      <point x="530" y="310"/>
    </contour>
    <contour>
      <point x="2124" y="806" type="line"/>
      <point x="2019" y="905" type="line"/>
      <point x="1967" y="955" type="line" smooth="yes"/>
      <point x="1936" y="984"/>
      <point x="1936" y="1012" type="qcurve" smooth="yes"/>
      <point x="1936" y="1033"/>
      <point x="1952" y="1053" type="qcurve" smooth="yes"/>
      <point x="1989" y="1102" type="line"/>
      <point x="2064" y="1200" type="line"/>
      <point x="2412" y="1200" type="line"/>
      <point x="2412" y="1012" type="line"/>
      <point x="2114" y="1012" type="line"/>
      <point x="2412" y="840" type="line"/>
      <point x="2412" y="323" type="line" smooth="yes"/>
      <point x="2412" y="0"/>
      <point x="1943" y="0" type="qcurve" smooth="yes"/>
      <point x="1724" y="0"/>
      <point x="1618" y="98" type="qcurve"/>
      <point x="1512" y="0"/>
      <point x="1287" y="0" type="qcurve" smooth="yes"/>
      <point x="812" y="0"/>
      <point x="812" y="323" type="qcurve" smooth="yes"/>
      <point x="812" y="877" type="line" smooth="yes"/>
      <point x="812" y="1012"/>
      <point x="625" y="1012" type="qcurve" smooth="yes"/>
      <point x="438" y="1012"/>
      <point x="438" y="877" type="qcurve" smooth="yes"/>
      <point x="438" y="448" type="line"/>
      <point x="648" y="448"/>
      <point x="648" y="249" type="qcurve" smooth="yes"/>
      <point x="648" y="0"/>
      <point x="438" y="0" type="qcurve" smooth="yes"/>
      <point x="294" y="0" type="line" smooth="yes"/>
      <point x="150" y="0"/>
      <point x="150" y="122" type="qcurve" smooth="yes"/>
      <point x="150" y="877" type="line" smooth="yes"/>
      <point x="150" y="1200"/>
      <point x="625" y="1200" type="qcurve" smooth="yes"/>
      <point x="1100" y="1200"/>
      <point x="1100" y="877" type="qcurve" smooth="yes"/>
      <point x="1100" y="323" type="line" smooth="yes"/>
      <point x="1100" y="188"/>
      <point x="1287" y="188" type="qcurve" smooth="yes"/>
      <point x="1474" y="188"/>
      <point x="1474" y="323" type="qcurve" smooth="yes"/>
      <point x="1474" y="806" type="line"/>
      <point x="1369" y="905" type="line"/>
      <point x="1317" y="955" type="line" smooth="yes"/>
      <point x="1286" y="984"/>
      <point x="1286" y="1012" type="qcurve" smooth="yes"/>
      <point x="1286" y="1033"/>
      <point x="1302" y="1053" type="qcurve" smooth="yes"/>
      <point x="1339" y="1102" type="line"/>
      <point x="1414" y="1200" type="line"/>
      <point x="1762" y="1200" type="line"/>
      <point x="1762" y="1012" type="line"/>
      <point x="1464" y="1012" type="line"/>
      <point x="1762" y="840" type="line"/>
      <point x="1762" y="323" type="line" smooth="yes"/>
      <point x="1762" y="188"/>
      <point x="1943" y="188" type="qcurve" smooth="yes"/>
      <point x="2124" y="188"/>
      <point x="2124" y="323" type="qcurve" smooth="yes"/>
    </contour>
  </outline>
</glyph>
<glyph name="uni178A" format="1">
  <advance width="1300"/>
  <unicode hex="178A"/>
  <outline>
    <contour>
      <point x="150" y="1250" type="line"/>
      <point x="438" y="1250" type="line"/>
      <point x="438" y="1120" type="line"/>
      <point x="750" y="1120" type="line" smooth="yes"/>
      <point x="862" y="1120"/>
      <point x="862" y="1170" type="qcurve" smooth="yes"/>
      <point x="862" y="1400" type="line"/>
      <point x="1150" y="1400" type="line"/>
      <point x="1150" y="1170" type="line" smooth="yes"/>
      <point x="1150" y="932"/>
      <point x="910" y="932" type="qcurve" smooth="yes"/>
      <point x="150" y="932" type="line"/>
    </contour>
    <contour>
      <point x="438" y="261" type="line"/>
      <point x="651" y="455" type="line"/>
      <point x="862" y="263" type="line"/>
      <point x="862" y="823" type="line"/>
      <point x="1150" y="823" type="line"/>
      <point x="1150" y="0" type="line"/>
      <point x="882" y="0" type="line"/>
      <point x="651" y="210" type="line"/>
      <point x="419" y="0" type="line"/>
      <point x="150" y="0" type="line"/>
      <point x="150" y="823" type="line"/>
      <point x="438" y="823" type="line"/>
    </contour>
  </outline>
</glyph>
<glyph name="uni178B" format="1">
  <advance width="1300"/>
  <unicode hex="178B"/>
  <outline>
    <contour>
      <point x="150" y="965" type="line" smooth="yes"/>
      <point x="150" y="1012"/>
      <point x="50" y="1012" type="qcurve"/>
      <point x="50" y="1200" type="line"/>
      <point x="238" y="1200" type="line" smooth="yes"/>
      <point x="438" y="1200"/>
      <point x="438" y="1098" type="qcurve" smooth="yes"/>
      <point x="438" y="323" type="line" smooth="yes"/>
      <point x="438" y="138"/>
      <point x="650" y="138" type="qcurve" smooth="yes"/>
      <point x="862" y="138"/>
      <point x="862" y="323" type="qcurve" smooth="yes"/>
      <point x="862" y="746" type="line"/>
      <point x="645" y="955" type="line" smooth="yes"/>
      <point x="614" y="984"/>
      <point x="614" y="1012" type="qcurve" smooth="yes"/>
      <point x="614" y="1033"/>
      <point x="630" y="1053" type="qcurve" smooth="yes"/>
      <point x="667" y="1102" type="line"/>
      <point x="742" y="1200" type="line"/>
      <point x="812" y="1200" type="line" smooth="yes"/>
      <point x="862" y="1200"/>
      <point x="862" y="1250" type="qcurve" smooth="yes"/>
      <point x="862" y="1400" type="line"/>
      <point x="1150" y="1400" type="line"/>
      <point x="1150" y="1250" type="line" smooth="yes"/>
      <point x="1150" y="1012"/>
      <point x="942" y="1012" type="qcurve" smooth="yes"/>
      <point x="842" y="1012" type="line"/>
      <point x="1150" y="840" type="line"/>
      <point x="1150" y="323" type="line" smooth="yes"/>
      <point x="1150" y="0"/>
      <point x="650" y="0" type="qcurve" smooth="yes"/>
      <point x="150" y="0"/>
      <point x="150" y="323" type="qcurve" smooth="yes"/>
    </contour>
  </outline>
</glyph>
<glyph name="uni178C" format="1">
  <advance width="1300"/>
  <unicode hex="178C"/>
  <outline>
    <contour>
      <point x="862" y="153" type="line"/>
      <point x="660" y="0"/>
      <point x="500" y="0" type="qcurve" smooth="yes"/>
      <point x="340" y="0"/>
      <point x="150" y="185"/>
      <point x="150" y="323" type="qcurve" smooth="yes"/>
      <point x="150" y="586" type="line"/>
      <point x="556" y="656" type="line" smooth="yes"/>
      <point x="862" y="707"/>
      <point x="862" y="877" type="qcurve" smooth="yes"/>
      <point x="862" y="923" type="line" smooth="yes"/>
      <point x="862" y="1000"/>
      <point x="827" y="1000" type="qcurve" smooth="yes"/>
      <point x="791" y="1000"/>
      <point x="709" y="906" type="qcurve" smooth="yes"/>
      <point x="682" y="875"/>
      <point x="650" y="875" type="qcurve" smooth="yes"/>
      <point x="618" y="875"/>
      <point x="591" y="906" type="qcurve" smooth="yes"/>
      <point x="510" y="1000"/>
      <point x="474" y="1000" type="qcurve" smooth="yes"/>
      <point x="438" y="1000"/>
      <point x="438" y="923" type="qcurve" smooth="yes"/>
      <point x="438" y="897" type="line" smooth="yes"/>
      <point x="438" y="863"/>
      <point x="488" y="863" type="qcurve"/>
      <point x="488" y="719" type="line"/>
      <point x="388" y="719" type="line" smooth="yes"/>
      <point x="150" y="719"/>
      <point x="150" y="863" type="qcurve" smooth="yes"/>
      <point x="150" y="923" type="line" smooth="yes"/>
      <point x="150" y="1200"/>
      <point x="445" y="1200" type="qcurve" smooth="yes"/>
      <point x="539" y="1200"/>
      <point x="650" y="1076" type="qcurve"/>
      <point x="762" y="1200"/>
      <point x="857" y="1200" type="qcurve" smooth="yes"/>
      <point x="1150" y="1200"/>
      <point x="1150" y="923" type="qcurve" smooth="yes"/>
      <point x="1150" y="877" type="line" smooth="yes"/>
      <point x="1150" y="575"/>
      <point x="566" y="469" type="qcurve"/>
      <point x="438" y="443" type="line"/>
      <point x="438" y="323" type="line" smooth="yes"/>
      <point x="438" y="188"/>
      <point x="515" y="188" type="qcurve" smooth="yes"/>
      <point x="585" y="188"/>
      <point x="862" y="341"/>
      <point x="862" y="403" type="qcurve" smooth="yes"/>
      <point x="862" y="480" type="line"/>
      <point x="1150" y="480" type="line"/>
      <point x="1150" y="-50" type="line"/>
      <point x="862" y="-50" type="line"/>
    </contour>
  </outline>
</glyph>
<glyph name="uni178D" format="1">
  <advance width="1900"/>
  <unicode hex="178D"/>
  <outline>
    <contour>
      <point x="438" y="310" type="qcurve"/>
      <point x="438" y="138" type="line"/>
      <point x="530" y="138"/>
      <point x="530" y="249" type="qcurve" smooth="yes"/>
      <point x="530" y="310"/>
    </contour>
    <contour>
      <point x="1150" y="112" type="qcurve"/>
      <point x="1150" y="0" type="line"/>
      <point x="862" y="0" type="line"/>
      <point x="862" y="923" type="line" smooth="yes"/>
      <point x="862" y="1000"/>
      <point x="827" y="1000" type="qcurve" smooth="yes"/>
      <point x="791" y="1000"/>
      <point x="709" y="906" type="qcurve" smooth="yes"/>
      <point x="682" y="875"/>
      <point x="650" y="875" type="qcurve" smooth="yes"/>
      <point x="618" y="875"/>
      <point x="591" y="906" type="qcurve" smooth="yes"/>
      <point x="510" y="1000"/>
      <point x="474" y="1000" type="qcurve" smooth="yes"/>
      <point x="438" y="1000"/>
      <point x="438" y="923" type="qcurve" smooth="yes"/>
      <point x="438" y="448" type="line"/>
      <point x="648" y="448"/>
      <point x="648" y="249" type="qcurve" smooth="yes"/>
      <point x="648" y="0"/>
      <point x="438" y="0" type="qcurve" smooth="yes"/>
      <point x="294" y="0" type="line" smooth="yes"/>
      <point x="150" y="0"/>
      <point x="150" y="122" type="qcurve" smooth="yes"/>
      <point x="150" y="923" type="line" smooth="yes"/>
      <point x="150" y="1036"/>
      <point x="320" y="1200"/>
      <point x="415" y="1200" type="qcurve" smooth="yes"/>
      <point x="539" y="1200"/>
      <point x="650" y="1076" type="qcurve"/>
      <point x="762" y="1200"/>
      <point x="887" y="1200" type="qcurve" smooth="yes"/>
      <point x="981" y="1200"/>
      <point x="1150" y="1036"/>
      <point x="1150" y="923" type="qcurve" smooth="yes"/>
      <point x="1150" y="400" type="line"/>
      <point x="1236" y="400" type="line"/>
      <point x="1278" y="323" type="line" smooth="yes"/>
      <point x="1328" y="231"/>
      <point x="1395" y="188"/>
      <point x="1420" y="188" type="qcurve" smooth="yes"/>
      <point x="1445" y="188"/>
      <point x="1462" y="231"/>
      <point x="1462" y="323" type="qcurve" smooth="yes"/>
      <point x="1462" y="806" type="line"/>
      <point x="1357" y="905" type="line"/>
      <point x="1305" y="955" type="line" smooth="yes"/>
      <point x="1274" y="984"/>
      <point x="1274" y="1012" type="qcurve" smooth="yes"/>
      <point x="1274" y="1033"/>
      <point x="1290" y="1053" type="qcurve" smooth="yes"/>
      <point x="1327" y="1102" type="line"/>
      <point x="1402" y="1200" type="line"/>
      <point x="1750" y="1200" type="line"/>
      <point x="1750" y="1012" type="line"/>
      <point x="1452" y="1012" type="line"/>
      <point x="1750" y="840" type="line"/>
      <point x="1750" y="323" type="line" smooth="yes"/>
      <point x="1750" y="185"/>
      <point x="1550" y="0"/>
      <point x="1420" y="0" type="qcurve" smooth="yes"/>
      <point x="1240" y="0"/>
      <point x="1165" y="93" type="qcurve" smooth="yes"/>
      <point x="1157" y="102"/>
    </contour>
  </outline>
</glyph>
<glyph name="uni178E" format="1">
  <advance width="2538"/>
  <unicode hex="178E"/>
  <outline>
    <contour>
      <point x="438" y="310" type="qcurve"/>
      <point x="438" y="138" type="line"/>
      <point x="530" y="138"/>
      <point x="530" y="249" type="qcurve" smooth="yes"/>
      <point x="530" y="310"/>
    </contour>
    <contour>
      <point x="1450" y="263" type="line"/>
      <point x="1450" y="877" type="line" smooth="yes"/>
      <point x="1450" y="1200"/>
      <point x="1919" y="1200" type="qcurve" smooth="yes"/>
      <point x="2388" y="1200"/>
      <point x="2388" y="877" type="qcurve" smooth="yes"/>
      <point x="2388" y="0" type="line"/>
      <point x="2100" y="0" type="line"/>
      <point x="2100" y="877" type="line" smooth="yes"/>
      <point x="2100" y="1012"/>
      <point x="1919" y="1012" type="qcurve" smooth="yes"/>
      <point x="1738" y="1012"/>
      <point x="1738" y="877" type="qcurve" smooth="yes"/>
      <point x="1738" y="0" type="line"/>
      <point x="1470" y="0" type="line"/>
      <point x="1270" y="182" type="line"/>
      <point x="1069" y="0" type="line"/>
      <point x="800" y="0" type="line"/>
      <point x="800" y="877" type="line" smooth="yes"/>
      <point x="800" y="1012"/>
      <point x="619" y="1012" type="qcurve" smooth="yes"/>
      <point x="438" y="1012"/>
      <point x="438" y="877" type="qcurve" smooth="yes"/>
      <point x="438" y="448" type="line"/>
      <point x="648" y="448"/>
      <point x="648" y="249" type="qcurve" smooth="yes"/>
      <point x="648" y="0"/>
      <point x="438" y="0" type="qcurve" smooth="yes"/>
      <point x="294" y="0" type="line" smooth="yes"/>
      <point x="150" y="0"/>
      <point x="150" y="122" type="qcurve" smooth="yes"/>
      <point x="150" y="877" type="line" smooth="yes"/>
      <point x="150" y="1200"/>
      <point x="619" y="1200" type="qcurve" smooth="yes"/>
      <point x="1088" y="1200"/>
      <point x="1088" y="877" type="qcurve" smooth="yes"/>
      <point x="1088" y="261" type="line"/>
      <point x="1270" y="427" type="line"/>
    </contour>
  </outline>
</glyph>
<glyph name="uni178F" format="1">
  <advance width="1300"/>
  <unicode hex="178F"/>
  <outline>
    <contour>
      <point x="1150" y="1200" type="line"/>
      <point x="1150" y="1012" type="line"/>
      <point x="150" y="1012" type="line"/>
      <point x="150" y="1200" type="line"/>
    </contour>
    <contour>
      <point x="438" y="448" type="line"/>
      <point x="648" y="448"/>
      <point x="648" y="249" type="qcurve" smooth="yes"/>
      <point x="648" y="0"/>
      <point x="438" y="0" type="qcurve" smooth="yes"/>
      <point x="294" y="0" type="line" smooth="yes"/>
      <point x="150" y="0"/>
      <point x="150" y="122" type="qcurve" smooth="yes"/>
      <point x="150" y="570" type="line" smooth="yes"/>
      <point x="150" y="893"/>
      <point x="650" y="893" type="qcurve" smooth="yes"/>
      <point x="1150" y="893"/>
      <point x="1150" y="570" type="qcurve" smooth="yes"/>
      <point x="1150" y="0" type="line"/>
      <point x="862" y="0" type="line"/>
      <point x="862" y="570" type="line" smooth="yes"/>
      <point x="862" y="705"/>
      <point x="650" y="705" type="qcurve" smooth="yes"/>
      <point x="438" y="705"/>
      <point x="438" y="570" type="qcurve" smooth="yes"/>
    </contour>
    <contour>
      <point x="438" y="138" type="line"/>
      <point x="530" y="138"/>
      <point x="530" y="249" type="qcurve" smooth="yes"/>
      <point x="530" y="310"/>
      <point x="438" y="310" type="qcurve"/>
    </contour>
  </outline>
</glyph>
<glyph name="uni1790" format="1">
  <advance width="1300"/>
  <unicode hex="1790"/>
  <outline>
    <contour>
      <point x="862" y="610" type="qcurve"/>
      <point x="862" y="732" type="line"/>
      <point x="800" y="732"/>
      <point x="800" y="671" type="qcurve" smooth="yes"/>
      <point x="800" y="610"/>
    </contour>
    <contour>
      <point x="438" y="323" type="line" smooth="yes"/>
      <point x="438" y="138"/>
      <point x="650" y="138" type="qcurve" smooth="yes"/>
      <point x="862" y="138"/>
      <point x="862" y="323" type="qcurve" smooth="yes"/>
      <point x="862" y="472" type="line"/>
      <point x="652" y="472"/>
      <point x="652" y="671" type="qcurve" smooth="yes"/>
      <point x="652" y="870"/>
      <point x="912" y="870" type="qcurve" smooth="yes"/>
      <point x="1150" y="870"/>
      <point x="1150" y="748" type="qcurve" smooth="yes"/>
      <point x="1150" y="323" type="line" smooth="yes"/>
      <point x="1150" y="0"/>
      <point x="650" y="0" type="qcurve" smooth="yes"/>
      <point x="150" y="0"/>
      <point x="150" y="323" type="qcurve" smooth="yes"/>
      <point x="150" y="786" type="line"/>
      <point x="122" y="822" type="line" smooth="yes"/>
      <point x="50" y="914"/>
      <point x="50" y="955" type="qcurve" smooth="yes"/>
      <point x="50" y="992"/>
      <point x="68" y="1017" type="qcurve" smooth="yes"/>
      <point x="218" y="1200" type="line"/>
      <point x="800" y="1200" type="line" smooth="yes"/>
      <point x="862" y="1200"/>
      <point x="862" y="1250" type="qcurve" smooth="yes"/>
      <point x="862" y="1400" type="line"/>
      <point x="1150" y="1400" type="line"/>
      <point x="1150" y="1250" type="line" smooth="yes"/>
      <point x="1150" y="1012"/>
      <point x="930" y="1012" type="qcurve" smooth="yes"/>
      <point x="263" y="1012" type="line"/>
      <point x="242" y="987" type="line" smooth="yes"/>
      <point x="237" y="982"/>
      <point x="237" y="974" type="qcurve" smooth="yes"/>
      <point x="237" y="942"/>
      <point x="438" y="820" type="qcurve"/>
    </contour>
  </outline>
</glyph>
<glyph name="uni1791" format="1">
  <advance width="1300"/>
  <unicode hex="1791"/>
  <outline>
    <contour>
      <point x="1088" y="447" type="qcurve"/>
      <point x="1088" y="323" type="line" smooth="yes"/>
      <point x="1088" y="0"/>
      <point x="644" y="0" type="qcurve" smooth="yes"/>
      <point x="200" y="0"/>
      <point x="200" y="323" type="qcurve" smooth="yes"/>
      <point x="200" y="460" type="line"/>
      <point x="488" y="460" type="line"/>
      <point x="488" y="323" type="line" smooth="yes"/>
      <point x="488" y="188"/>
      <point x="644" y="188" type="qcurve" smooth="yes"/>
      <point x="800" y="188"/>
      <point x="800" y="323" type="qcurve" smooth="yes"/>
      <point x="800" y="462" type="line"/>
      <point x="150" y="555"/>
      <point x="150" y="877" type="qcurve" smooth="yes"/>
      <point x="150" y="1200"/>
      <point x="650" y="1200" type="qcurve" smooth="yes"/>
      <point x="1150" y="1200"/>
      <point x="1150" y="897" type="qcurve" smooth="yes"/>
      <point x="1150" y="847" type="line"/>
      <point x="862" y="847" type="line"/>
      <point x="862" y="897" type="line" smooth="yes"/>
      <point x="862" y="1012"/>
      <point x="650" y="1012" type="qcurve" smooth="yes"/>
      <point x="438" y="1012"/>
      <point x="438" y="877" type="qcurve" smooth="yes"/>
      <point x="438" y="727"/>
      <point x="808" y="650" type="qcurve"/>
      <point x="817" y="674"/>
      <point x="837" y="694" type="qcurve" smooth="yes"/>
      <point x="873" y="730"/>
      <point x="975" y="730" type="qcurve" smooth="yes"/>
      <point x="1077" y="730"/>
      <point x="1150" y="637"/>
      <point x="1150" y="555" type="qcurve" smooth="yes"/>
      <point x="1150" y="503"/>
      <point x="1114" y="467" type="qcurve" smooth="yes"/>
      <point x="1102" y="455"/>
    </contour>
  </outline>
</glyph>
<glyph name="uni1793" format="1">
  <advance width="1300"/>
  <unicode hex="1793"/>
  <outline>
    <contour>
      <point x="734" y="489" type="qcurve" smooth="yes"/>
      <point x="150" y="605"/>
      <point x="150" y="877" type="qcurve" smooth="yes"/>
      <point x="150" y="1200"/>
      <point x="650" y="1200" type="qcurve" smooth="yes"/>
      <point x="1150" y="1200"/>
      <point x="1150" y="917" type="qcurve" smooth="yes"/>
      <point x="1150" y="883" type="line" smooth="yes"/>
      <point x="1150" y="739"/>
      <point x="962" y="739" type="qcurve" smooth="yes"/>
      <point x="782" y="739" type="line"/>
      <point x="782" y="883" type="line"/>
      <point x="862" y="883"/>
      <point x="862" y="917" type="qcurve" smooth="yes"/>
      <point x="862" y="1012"/>
      <point x="650" y="1012" type="qcurve" smooth="yes"/>
      <point x="438" y="1012"/>
      <point x="438" y="877" type="qcurve" smooth="yes"/>
      <point x="438" y="731"/>
      <point x="778" y="666" type="qcurve"/>
      <point x="1150" y="590"/>
      <point x="1150" y="363" type="qcurve" smooth="yes"/>
      <point x="1150" y="283" type="line" smooth="yes"/>
      <point x="1150" y="0"/>
      <point x="800" y="0" type="qcurve" smooth="yes"/>
      <point x="690" y="0"/>
      <point x="464" y="162"/>
      <point x="438" y="162" type="qcurve"/>
      <point x="438" y="0" type="line"/>
      <point x="150" y="0" type="line"/>
      <point x="150" y="503" type="line"/>
      <point x="438" y="503" type="line"/>
      <point x="438" y="350" type="line"/>
      <point x="566" y="350"/>
      <point x="755" y="188"/>
      <point x="800" y="188" type="qcurve" smooth="yes"/>
      <point x="862" y="188"/>
      <point x="862" y="273" type="qcurve" smooth="yes"/>
      <point x="862" y="363" type="line" smooth="yes"/>
      <point x="862" y="463"/>
    </contour>
  </outline>
</glyph>
<glyph name="uni1797" format="1">
  <advance width="1300"/>
  <unicode hex="1797"/>
  <outline>
    <contour>
      <point x="1150" y="1200" type="line"/>
      <point x="1150" y="1012" type="line"/>
      <point x="150" y="1012" type="line"/>
      <point x="150" y="1200" type="line"/>
    </contour>
    <contour>
      <point x="508" y="348"/>
      <point x="508" y="224" type="qcurve" smooth="yes"/>
      <point x="508" y="0"/>
      <point x="236" y="0" type="qcurve" smooth="yes"/>
      <point x="70" y="0"/>
      <point x="30" y="223" type="qcurve"/>
      <point x="147" y="264" type="line"/>
      <point x="151" y="194"/>
      <point x="186" y="194" type="qcurve" smooth="yes"/>
      <point x="220" y="194"/>
      <point x="220" y="224" type="qcurve" smooth="yes"/>
      <point x="220" y="267"/>
      <point x="150" y="507"/>
      <point x="150" y="600" type="qcurve" smooth="yes"/>
      <point x="150" y="893"/>
      <point x="650" y="893" type="qcurve" smooth="yes"/>
      <point x="1150" y="893"/>
      <point x="1150" y="570" type="qcurve" smooth="yes"/>
      <point x="1150" y="0" type="line"/>
      <point x="862" y="0" type="line"/>
      <point x="862" y="570" type="line" smooth="yes"/>
      <point x="862" y="705"/>
      <point x="650" y="705" type="qcurve" smooth="yes"/>
      <point x="438" y="705"/>
      <point x="438" y="600" type="qcurve" smooth="yes"/>
      <point x="438" y="540"/>
    </contour>
  </outline>
</glyph>
<glyph name="uni1798" format="1">
  <advance width="1300"/>
  <unicode hex="1798"/>
  <outline>
    <contour>
      <point x="862" y="694" type="line"/>
      <point x="862" y="806" type="line"/>
      <point x="757" y="905" type="line"/>
      <point x="705" y="955" type="line" smooth="yes"/>
      <point x="674" y="984"/>
      <point x="674" y="1012" type="qcurve" smooth="yes"/>
      <point x="674" y="1033"/>
      <point x="690" y="1053" type="qcurve" smooth="yes"/>
      <point x="727" y="1102" type="line"/>
      <point x="802" y="1200" type="line"/>
      <point x="1150" y="1200" type="line"/>
      <point x="1150" y="1012" type="line"/>
      <point x="852" y="1012" type="line"/>
      <point x="1150" y="840" type="line"/>
      <point x="1150" y="323" type="line" smooth="yes"/>
      <point x="1150" y="0"/>
      <point x="650" y="0" type="qcurve" smooth="yes"/>
      <point x="150" y="0"/>
      <point x="150" y="323" type="qcurve" smooth="yes"/>
      <point x="150" y="843" type="line"/>
      <point x="100" y="905" type="line"/>
      <point x="60" y="955" type="line" smooth="yes"/>
      <point x="39" y="980"/>
      <point x="39" y="1005" type="qcurve" smooth="yes"/>
      <point x="39" y="1029"/>
      <point x="58" y="1053" type="qcurve" smooth="yes"/>
      <point x="95" y="1102" type="line"/>
      <point x="170" y="1200" type="line"/>
      <point x="498" y="1200" type="line"/>
      <point x="498" y="1012" type="line"/>
      <point x="220" y="1012" type="line"/>
      <point x="438" y="840" type="line"/>
      <point x="438" y="694" type="line"/>
    </contour>
    <contour>
      <point x="862" y="506" type="line"/>
      <point x="438" y="506" type="line"/>
      <point x="438" y="323" type="line" smooth="yes"/>
      <point x="438" y="188"/>
      <point x="650" y="188" type="qcurve" smooth="yes"/>
      <point x="862" y="188"/>
      <point x="862" y="323" type="qcurve" smooth="yes"/>
    </contour>
  </outline>
</glyph>
<glyph name="uni1799" format="1">
  <advance width="1950"/>
  <unicode hex="1799"/>
  <outline>
    <contour>
      <point x="150" y="1098" type="line" smooth="yes"/>
      <point x="150" y="1200"/>
      <point x="300" y="1200" type="qcurve" smooth="yes"/>
      <point x="559" y="1200" type="line"/>
      <point x="559" y="1012" type="line"/>
      <point x="438" y="1012"/>
      <point x="438" y="965" type="qcurve" smooth="yes"/>
      <point x="438" y="323" type="line" smooth="yes"/>
      <point x="438" y="188"/>
      <point x="650" y="188" type="qcurve" smooth="yes"/>
      <point x="862" y="188"/>
      <point x="862" y="323" type="qcurve" smooth="yes"/>
      <point x="862" y="806" type="line"/>
      <point x="757" y="905" type="line"/>
      <point x="705" y="955" type="line" smooth="yes"/>
      <point x="674" y="984"/>
      <point x="674" y="1012" type="qcurve" smooth="yes"/>
      <point x="674" y="1033"/>
      <point x="690" y="1053" type="qcurve" smooth="yes"/>
      <point x="727" y="1102" type="line"/>
      <point x="802" y="1200" type="line"/>
      <point x="1150" y="1200" type="line"/>
      <point x="1150" y="1012" type="line"/>
      <point x="852" y="1012" type="line"/>
      <point x="1150" y="840" type="line"/>
      <point x="1150" y="323" type="line" smooth="yes"/>
      <point x="1150" y="188"/>
      <point x="1331" y="188" type="qcurve" smooth="yes"/>
      <point x="1512" y="188"/>
      <point x="1512" y="323" type="qcurve" smooth="yes"/>
      <point x="1512" y="806" type="line"/>
      <point x="1407" y="905" type="line"/>
      <point x="1355" y="955" type="line" smooth="yes"/>
      <point x="1324" y="984"/>
      <point x="1324" y="1012" type="qcurve" smooth="yes"/>
      <point x="1324" y="1033"/>
      <point x="1340" y="1053" type="qcurve" smooth="yes"/>
      <point x="1377" y="1102" type="line"/>
      <point x="1452" y="1200" type="line"/>
      <point x="1800" y="1200" type="line"/>
      <point x="1800" y="1012" type="line"/>
      <point x="1502" y="1012" type="line"/>
      <point x="1800" y="840" type="line"/>
      <point x="1800" y="323" type="line" smooth="yes"/>
      <point x="1800" y="0"/>
      <point x="1331" y="0" type="qcurve" smooth="yes"/>
      <point x="1112" y="0"/>
      <point x="1006" y="98" type="qcurve"/>
      <point x="900" y="0"/>
      <point x="650" y="0" type="qcurve" smooth="yes"/>
      <point x="150" y="0"/>
      <point x="150" y="323" type="qcurve" smooth="yes"/>
    </contour>
  </outline>
</glyph>
<glyph name="uni179A" format="1">
  <advance width="588"/>
  <unicode hex="179A"/>
  <outline>
    <contour>
      <point x="184" y="310" type="qcurve" smooth="yes"/>
      <point x="158" y="310"/>
      <point x="158" y="249" type="qcurve" smooth="yes"/>
      <point x="158" y="148"/>
      <point x="184" y="148" type="qcurve" smooth="yes"/>
      <point x="210" y="148"/>
      <point x="210" y="229" type="qcurve" smooth="yes"/>
      <point x="210" y="310"/>
    </contour>
    <contour>
      <point x="150" y="843" type="line"/>
      <point x="100" y="905" type="line"/>
      <point x="60" y="955" type="line" smooth="yes"/>
      <point x="39" y="980"/>
      <point x="39" y="1005" type="qcurve" smooth="yes"/>
      <point x="39" y="1029"/>
      <point x="58" y="1053" type="qcurve" smooth="yes"/>
      <point x="95" y="1102" type="line"/>
      <point x="170" y="1200" type="line"/>
      <point x="438" y="1200" type="line"/>
      <point x="438" y="1012" type="line"/>
      <point x="220" y="1012" type="line"/>
      <point x="438" y="840" type="line"/>
      <point x="438" y="122" type="line" smooth="yes"/>
      <point x="438" y="0"/>
      <point x="344" y="0" type="qcurve" smooth="yes"/>
      <point x="200" y="0" type="line" smooth="yes"/>
      <point x="40" y="0"/>
      <point x="40" y="249" type="qcurve" smooth="yes"/>
      <point x="40" y="448"/>
      <point x="150" y="448" type="qcurve"/>
    </contour>
  </outline>
</glyph>
<glyph name="uni179B" format="1">
  <advance width="1900"/>
  <unicode hex="179B"/>
  <outline>
    <contour>
      <point x="438" y="310" type="qcurve"/>
      <point x="438" y="138" type="line"/>
      <point x="530" y="138"/>
      <point x="530" y="249" type="qcurve" smooth="yes"/>
      <point x="530" y="310"/>
    </contour>
    <contour>
      <point x="1750" y="323" type="line" smooth="yes"/>
      <point x="1750" y="0"/>
      <point x="1281" y="0" type="qcurve" smooth="yes"/>
      <point x="812" y="0"/>
      <point x="812" y="323" type="qcurve" smooth="yes"/>
      <point x="812" y="877" type="line" smooth="yes"/>
      <point x="812" y="1012"/>
      <point x="625" y="1012" type="qcurve" smooth="yes"/>
      <point x="438" y="1012"/>
      <point x="438" y="877" type="qcurve" smooth="yes"/>
      <point x="438" y="448" type="line"/>
      <point x="648" y="448"/>
      <point x="648" y="249" type="qcurve" smooth="yes"/>
      <point x="648" y="0"/>
      <point x="438" y="0" type="qcurve" smooth="yes"/>
      <point x="294" y="0" type="line" smooth="yes"/>
      <point x="150" y="0"/>
      <point x="150" y="122" type="qcurve" smooth="yes"/>
      <point x="150" y="877" type="line" smooth="yes"/>
      <point x="150" y="1200"/>
      <point x="625" y="1200" type="qcurve" smooth="yes"/>
      <point x="1100" y="1200"/>
      <point x="1100" y="877" type="qcurve" smooth="yes"/>
      <point x="1100" y="323" type="line" smooth="yes"/>
      <point x="1100" y="188"/>
      <point x="1281" y="188" type="qcurve" smooth="yes"/>
      <point x="1462" y="188"/>
      <point x="1462" y="323" type="qcurve" smooth="yes"/>
      <point x="1462" y="806" type="line"/>
      <point x="1357" y="905" type="line"/>
      <point x="1305" y="955" type="line" smooth="yes"/>
      <point x="1274" y="984"/>
      <point x="1274" y="1012" type="qcurve" smooth="yes"/>
      <point x="1274" y="1033"/>
      <point x="1290" y="1053" type="qcurve" smooth="yes"/>
      <point x="1327" y="1102" type="line"/>
      <point x="1402" y="1200" type="line"/>
      <point x="1750" y="1200" type="line"/>
      <point x="1750" y="1012" type="line"/>
      <point x="1452" y="1012" type="line"/>
      <point x="1750" y="840" type="line"/>
    </contour>
  </outline>
</glyph>
<glyph name="uni179C" format="1">
  <advance width="588"/>
  <unicode hex="179C"/>
  <outline>
    <contour>
      <point x="184" y="310" type="qcurve" smooth="yes"/>
      <point x="158" y="310"/>
      <point x="158" y="249" type="qcurve" smooth="yes"/>
      <point x="158" y="148"/>
      <point x="184" y="148" type="qcurve" smooth="yes"/>
      <point x="210" y="148"/>
      <point x="210" y="229" type="qcurve" smooth="yes"/>
      <point x="210" y="310"/>
    </contour>
    <contour>
      <point x="150" y="806" type="line"/>
      <point x="12" y="984"/>
      <point x="12" y="1012" type="qcurve" smooth="yes"/>
      <point x="12" y="1033"/>
      <point x="28" y="1053" type="qcurve" smooth="yes"/>
      <point x="65" y="1102" type="line"/>
      <point x="140" y="1200" type="line"/>
      <point x="220" y="1200" type="line" smooth="yes"/>
      <point x="262" y="1200"/>
      <point x="262" y="1250" type="qcurve" smooth="yes"/>
      <point x="262" y="1400" type="line"/>
      <point x="550" y="1400" type="line"/>
      <point x="550" y="1250" type="line" smooth="yes"/>
      <point x="550" y="1012"/>
      <point x="340" y="1012" type="qcurve" smooth="yes"/>
      <point x="190" y="1012" type="line"/>
      <point x="438" y="840" type="line"/>
      <point x="438" y="122" type="line" smooth="yes"/>
      <point x="438" y="0"/>
      <point x="344" y="0" type="qcurve" smooth="yes"/>
      <point x="200" y="0" type="line" smooth="yes"/>
      <point x="40" y="0"/>
      <point x="40" y="249" type="qcurve" smooth="yes"/>
      <point x="40" y="448"/>
      <point x="150" y="448" type="qcurve"/>
    </contour>
  </outline>
</glyph>
<glyph name="uni179F" format="1">
  <advance width="1900"/>
  <unicode hex="179F"/>
  <outline>
    <contour>
      <point x="438" y="310" type="qcurve"/>
      <point x="438" y="138" type="line"/>
      <point x="530" y="138"/>
      <point x="530" y="249" type="qcurve" smooth="yes"/>
      <point x="530" y="310"/>
    </contour>
    <contour>
      <point x="303" y="849" type="qcurve"/>
      <point x="220" y="955" type="line" smooth="yes"/>
      <point x="199" y="980"/>
      <point x="199" y="1005" type="qcurve" smooth="yes"/>
      <point x="199" y="1029"/>
      <point x="218" y="1053" type="qcurve" smooth="yes"/>
      <point x="255" y="1102" type="line"/>
      <point x="330" y="1200" type="line"/>
      <point x="900" y="1200" type="line"/>
      <point x="900" y="1012" type="line"/>
      <point x="380" y="1012" type="line"/>
      <point x="493" y="903" type="line"/>
      <point x="553" y="910"/>
      <point x="625" y="910" type="qcurve" smooth="yes"/>
      <point x="1100" y="910"/>
      <point x="1100" y="587" type="qcurve" smooth="yes"/>
      <point x="1100" y="323" type="line" smooth="yes"/>
      <point x="1100" y="188"/>
      <point x="1281" y="188" type="qcurve" smooth="yes"/>
      <point x="1462" y="188"/>
      <point x="1462" y="323" type="qcurve" smooth="yes"/>
      <point x="1462" y="806" type="line"/>
      <point x="1357" y="905" type="line"/>
      <point x="1305" y="955" type="line" smooth="yes"/>
      <point x="1274" y="984"/>
      <point x="1274" y="1012" type="qcurve" smooth="yes"/>
      <point x="1274" y="1033"/>
      <point x="1290" y="1053" type="qcurve" smooth="yes"/>
      <point x="1327" y="1102" type="line"/>
      <point x="1402" y="1200" type="line"/>
      <point x="1750" y="1200" type="line"/>
      <point x="1750" y="1012" type="line"/>
      <point x="1452" y="1012" type="line"/>
      <point x="1750" y="840" type="line"/>
      <point x="1750" y="323" type="line" smooth="yes"/>
      <point x="1750" y="0"/>
      <point x="1281" y="0" type="qcurve" smooth="yes"/>
      <point x="812" y="0"/>
      <point x="812" y="323" type="qcurve" smooth="yes"/>
      <point x="812" y="587" type="line" smooth="yes"/>
      <point x="812" y="722"/>
      <point x="625" y="722" type="qcurve" smooth="yes"/>
      <point x="438" y="722"/>
      <point x="438" y="587" type="qcurve" smooth="yes"/>
      <point x="438" y="448" type="line"/>
      <point x="648" y="448"/>
      <point x="648" y="249" type="qcurve" smooth="yes"/>
      <point x="648" y="0"/>
      <point x="438" y="0" type="qcurve" smooth="yes"/>
      <point x="294" y="0" type="line" smooth="yes"/>
      <point x="150" y="0"/>
      <point x="150" y="122" type="qcurve" smooth="yes"/>
      <point x="150" y="587" type="line" smooth="yes"/>
      <point x="150" y="770"/>
    </contour>
  </outline>
</glyph>
<glyph name="uni17A0" format="1">
  <advance width="1900"/>
  <unicode hex="17A0"/>
  <outline>
    <contour>
      <point x="438" y="323" type="line" smooth="yes"/>
      <point x="438" y="188"/>
      <point x="625" y="188" type="qcurve" smooth="yes"/>
      <point x="812" y="188"/>
      <point x="812" y="323" type="qcurve" smooth="yes"/>
      <point x="812" y="877" type="line" smooth="yes"/>
      <point x="812" y="1200"/>
      <point x="1281" y="1200" type="qcurve" smooth="yes"/>
      <point x="1750" y="1200"/>
      <point x="1750" y="877" type="qcurve" smooth="yes"/>
      <point x="1750" y="0" type="line"/>
      <point x="1462" y="0" type="line"/>
      <point x="1462" y="877" type="line" smooth="yes"/>
      <point x="1462" y="1012"/>
      <point x="1281" y="1012" type="qcurve" smooth="yes"/>
      <point x="1100" y="1012"/>
      <point x="1100" y="877" type="qcurve" smooth="yes"/>
      <point x="1100" y="323" type="line" smooth="yes"/>
      <point x="1100" y="0"/>
      <point x="625" y="0" type="qcurve" smooth="yes"/>
      <point x="150" y="0"/>
      <point x="150" y="323" type="qcurve" smooth="yes"/>
      <point x="150" y="843" type="line"/>
      <point x="100" y="905" type="line"/>
      <point x="60" y="955" type="line" smooth="yes"/>
      <point x="39" y="980"/>
      <point x="39" y="1005" type="qcurve" smooth="yes"/>
      <point x="39" y="1029"/>
      <point x="58" y="1053" type="qcurve" smooth="yes"/>
      <point x="95" y="1102" type="line"/>
      <point x="170" y="1200" type="line"/>
      <point x="498" y="1200" type="line"/>
      <point x="498" y="1012" type="line"/>
      <point x="220" y="1012" type="line"/>
      <point x="438" y="840" type="line"/>
    </contour>
  </outline>
</glyph>
<glyph name="uni17A1" format="1">
  <advance width="1900"/>
  <unicode hex="17A1"/>
  <outline>
    <contour>
      <point x="1088" y="447" type="qcurve"/>
      <point x="1088" y="323" type="line" smooth="yes"/>
      <point x="1088" y="0"/>
      <point x="644" y="0" type="qcurve" smooth="yes"/>
      <point x="200" y="0"/>
      <point x="200" y="323" type="qcurve" smooth="yes"/>
      <point x="200" y="460" type="line"/>
      <point x="488" y="460" type="line"/>
      <point x="488" y="323" type="line" smooth="yes"/>
      <point x="488" y="188"/>
      <point x="644" y="188" type="qcurve" smooth="yes"/>
      <point x="800" y="188"/>
      <point x="800" y="323" type="qcurve" smooth="yes"/>
      <point x="800" y="462" type="line"/>
      <point x="150" y="555"/>
      <point x="150" y="877" type="qcurve" smooth="yes"/>
      <point x="150" y="1200"/>
      <point x="650" y="1200" type="qcurve" smooth="yes"/>
      <point x="1150" y="1200"/>
      <point x="1150" y="897" type="qcurve" smooth="yes"/>
      <point x="1150" y="847" type="line"/>
      <point x="862" y="847" type="line"/>
      <point x="862" y="897" type="line" smooth="yes"/>
      <point x="862" y="1012"/>
      <point x="650" y="1012" type="qcurve" smooth="yes"/>
      <point x="438" y="1012"/>
      <point x="438" y="877" type="qcurve" smooth="yes"/>
      <point x="438" y="727"/>
      <point x="808" y="650" type="qcurve"/>
      <point x="817" y="674"/>
      <point x="837" y="694" type="qcurve" smooth="yes"/>
      <point x="873" y="730"/>
      <point x="975" y="730" type="qcurve" smooth="yes"/>
      <point x="1077" y="730"/>
      <point x="1150" y="637"/>
      <point x="1150" y="555" type="qcurve" smooth="yes"/>
      <point x="1150" y="503"/>
      <point x="1114" y="467" type="qcurve" smooth="yes"/>
      <point x="1102" y="455"/>
    </contour>
    <contour>
      <point x="1462" y="-277" type="line"/>
      <point x="1462" y="806" type="line"/>
      <point x="1357" y="905" type="line"/>
      <point x="1305" y="955" type="line" smooth="yes"/>
      <point x="1274" y="984"/>
      <point x="1274" y="1012" type="qcurve" smooth="yes"/>
      <point x="1274" y="1033"/>
      <point x="1290" y="1053" type="qcurve" smooth="yes"/>
      <point x="1327" y="1102" type="line"/>
      <point x="1402" y="1200" type="line"/>
      <point x="1750" y="1200" type="line"/>
      <point x="1750" y="1012" type="line"/>
      <point x="1452" y="1012" type="line"/>
      <point x="1750" y="840" type="line"/>
      <point x="1750" y="-490" type="line"/>
      <point x="1482" y="-490" type="line"/>
      <point x="1276" y="-303" type="line"/>
      <point x="1069" y="-490" type="line"/>
      <point x="800" y="-490" type="line"/>
      <point x="800" y="-235" type="line" smooth="yes"/>
      <point x="800" y="-194"/>
      <point x="700" y="-194" type="qcurve"/>
      <point x="700" y="-50" type="line"/>
      <point x="900" y="-50" type="line" smooth="yes"/>
      <point x="1088" y="-50"/>
      <point x="1088" y="-194" type="qcurve" smooth="yes"/>
      <point x="1088" y="-279" type="line"/>
      <point x="1276" y="-108" type="line"/>
    </contour>
  </outline>
</glyph>
<glyph name="uni17A5" format="1">
  <advance width="1300"/>
  <unicode hex="17A5"/>
  <outline>
    <contour>
      <point x="438" y="448" type="line"/>
      <point x="648" y="448"/>
      <point x="648" y="249" type="qcurve" smooth="yes"/>
      <point x="648" y="0"/>
      <point x="438" y="0" type="qcurve" smooth="yes"/>
      <point x="294" y="0" type="line" smooth="yes"/>
      <point x="150" y="0"/>
      <point x="150" y="122" type="qcurve" smooth="yes"/>
      <point x="150" y="570" type="line" smooth="yes"/>
      <point x="150" y="893"/>
      <point x="650" y="893" type="qcurve" smooth="yes"/>
      <point x="1150" y="893"/>
      <point x="1150" y="570" type="qcurve" smooth="yes"/>
      <point x="1150" y="0" type="line"/>
      <point x="862" y="0" type="line"/>
      <point x="862" y="570" type="line" smooth="yes"/>
      <point x="862" y="705"/>
      <point x="650" y="705" type="qcurve" smooth="yes"/>
      <point x="438" y="705"/>
      <point x="438" y="570" type="qcurve" smooth="yes"/>
    </contour>
    <contour>
      <point x="438" y="138" type="line"/>
      <point x="530" y="138"/>
      <point x="530" y="249" type="qcurve" smooth="yes"/>
      <point x="530" y="310"/>
      <point x="438" y="310" type="qcurve"/>
    </contour>
    <contour>
      <point x="313" y="1012" type="line"/>
      <point x="292" y="987" type="line" smooth="yes"/>
      <point x="287" y="982"/>
      <point x="287" y="974" type="qcurve" smooth="yes"/>
      <point x="287" y="942"/>
      <point x="354" y="904" type="qcurve"/>
      <point x="178" y="814" type="line"/>
      <point x="172" y="822" type="line" smooth="yes"/>
      <point x="100" y="914"/>
      <point x="100" y="955" type="qcurve" smooth="yes"/>
      <point x="100" y="992"/>
      <point x="118" y="1017" type="qcurve" smooth="yes"/>
      <point x="258" y="1200" type="line"/>
      <point x="800" y="1200" type="line" smooth="yes"/>
      <point x="862" y="1200"/>
      <point x="862" y="1250" type="qcurve" smooth="yes"/>
      <point x="862" y="1400" type="line"/>
      <point x="1150" y="1400" type="line"/>
      <point x="1150" y="1250" type="line" smooth="yes"/>
      <point x="1150" y="1012"/>
      <point x="930" y="1012" type="qcurve" smooth="yes"/>
    </contour>
  </outline>
</glyph>
<glyph name="uni17A6" format="1">
  <advance width="1900"/>
  <unicode hex="17A6"/>
  <outline>
    <contour>
      <point x="833" y="-283" type="qcurve" smooth="yes"/>
      <point x="833" y="-217"/>
      <point x="779" y="-180"/>
      <point x="650" y="-180" type="qcurve" smooth="yes"/>
      <point x="521" y="-180"/>
      <point x="467" y="-217"/>
      <point x="467" y="-283" type="qcurve" smooth="yes"/>
      <point x="467" y="-336" type="line" smooth="yes"/>
      <point x="467" y="-370"/>
      <point x="574" y="-370" type="qcurve"/>
      <point x="574" y="-500" type="line"/>
      <point x="383" y="-500" type="line" smooth="yes"/>
      <point x="200" y="-500"/>
      <point x="200" y="-426" type="qcurve" smooth="yes"/>
      <point x="200" y="-283" type="line" smooth="yes"/>
      <point x="200" y="-184"/>
      <point x="428" y="-50"/>
      <point x="650" y="-50" type="qcurve" smooth="yes"/>
      <point x="872" y="-50"/>
      <point x="1100" y="-184"/>
      <point x="1100" y="-283" type="qcurve" smooth="yes"/>
      <point x="1100" y="-330"/>
      <point x="1312" y="-330" type="qcurve" smooth="yes"/>
      <point x="1462" y="-330"/>
      <point x="1462" y="-260" type="qcurve" smooth="yes"/>
      <point x="1462" y="1250" type="line" smooth="yes"/>
      <point x="1462" y="1430"/>
      <point x="1312" y="1430" type="qcurve" smooth="yes"/>
      <point x="1162" y="1430"/>
      <point x="1102" y="1350" type="qcurve"/>
      <point x="874" y="1350" type="line"/>
      <point x="874" y="1900" type="line"/>
      <point x="1162" y="1900" type="line"/>
      <point x="1162" y="1552" type="line"/>
      <point x="1237" y="1610"/>
      <point x="1392" y="1610" type="qcurve" smooth="yes"/>
      <point x="1750" y="1610"/>
      <point x="1750" y="1250" type="qcurve" smooth="yes"/>
      <point x="1750" y="-260" type="line" smooth="yes"/>
      <point x="1750" y="-500"/>
      <point x="1312" y="-500" type="qcurve" smooth="yes"/>
      <point x="833" y="-500"/>
    </contour>
    <contour>
      <point x="438" y="310" type="qcurve"/>
      <point x="438" y="138" type="line"/>
      <point x="530" y="138"/>
      <point x="530" y="249" type="qcurve" smooth="yes"/>
      <point x="530" y="310"/>
    </contour>
    <contour>
      <point x="812" y="0" type="line"/>
      <point x="812" y="877" type="line" smooth="yes"/>
      <point x="812" y="1012"/>
      <point x="625" y="1012" type="qcurve" smooth="yes"/>
      <point x="438" y="1012"/>
      <point x="438" y="877" type="qcurve" smooth="yes"/>
      <point x="438" y="448" type="line"/>
      <point x="648" y="448"/>
      <point x="648" y="249" type="qcurve" smooth="yes"/>
      <point x="648" y="0"/>
      <point x="438" y="0" type="qcurve" smooth="yes"/>
      <point x="294" y="0" type="line" smooth="yes"/>
      <point x="150" y="0"/>
      <point x="150" y="122" type="qcurve" smooth="yes"/>
      <point x="150" y="877" type="line" smooth="yes"/>
      <point x="150" y="1200"/>
      <point x="625" y="1200" type="qcurve" smooth="yes"/>
      <point x="1100" y="1200"/>
      <point x="1100" y="877" type="qcurve" smooth="yes"/>
      <point x="1100" y="0" type="line"/>
    </contour>
  </outline>
</glyph>
<glyph name="uni17A9" format="1">
  <advance width="1300"/>
  <unicode hex="17A9"/>
  <outline>
    <contour>
      <point x="1400" y="480" type="line"/>
      <point x="1400" y="-100" type="line"/>
      <point x="1212" y="-100" type="line"/>
      <point x="1212" y="480" type="line"/>
    </contour>
    <contour>
      <point x="438" y="323" type="line" smooth="yes"/>
      <point x="438" y="188"/>
      <point x="520" y="188" type="qcurve" smooth="yes"/>
      <point x="585" y="188"/>
      <point x="862" y="341"/>
      <point x="862" y="403" type="qcurve" smooth="yes"/>
      <point x="862" y="480" type="line"/>
      <point x="1150" y="480" type="line"/>
      <point x="1150" y="-100" type="line"/>
      <point x="862" y="-100" type="line"/>
      <point x="862" y="153" type="line"/>
      <point x="660" y="0"/>
      <point x="520" y="0" type="qcurve" smooth="yes"/>
      <point x="150" y="0"/>
      <point x="150" y="323" type="qcurve" smooth="yes"/>
      <point x="150" y="586" type="line"/>
      <point x="556" y="656" type="line"/>
      <point x="862" y="717"/>
      <point x="862" y="877" type="qcurve" smooth="yes"/>
      <point x="862" y="1012"/>
      <point x="650" y="1012" type="qcurve" smooth="yes"/>
      <point x="438" y="1012"/>
      <point x="438" y="897" type="qcurve" smooth="yes"/>
      <point x="438" y="863"/>
      <point x="538" y="863" type="qcurve"/>
      <point x="538" y="719" type="line"/>
      <point x="338" y="719" type="line" smooth="yes"/>
      <point x="150" y="719"/>
      <point x="150" y="863" type="qcurve" smooth="yes"/>
      <point x="150" y="897" type="line" smooth="yes"/>
      <point x="150" y="1200"/>
      <point x="650" y="1200" type="qcurve" smooth="yes"/>
      <point x="1150" y="1200"/>
      <point x="1150" y="877" type="qcurve" smooth="yes"/>
      <point x="1150" y="575"/>
      <point x="566" y="479" type="qcurve"/>
      <point x="438" y="453" type="line"/>
    </contour>
  </outline>
</glyph>
<glyph name="uni17AA" format="1">
  <advance width="1300"/>
  <unicode hex="17AA"/>
  <outline>
    <contour>
      <point x="438" y="323" type="line" smooth="yes"/>
      <point x="438" y="188"/>
      <point x="520" y="188" type="qcurve" smooth="yes"/>
      <point x="585" y="188"/>
      <point x="862" y="341"/>
      <point x="862" y="403" type="qcurve" smooth="yes"/>
      <point x="862" y="480" type="line"/>
      <point x="1150" y="480" type="line"/>
      <point x="1150" y="-100" type="line"/>
      <point x="862" y="-100" type="line"/>
      <point x="862" y="153" type="line"/>
      <point x="660" y="0"/>
      <point x="520" y="0" type="qcurve" smooth="yes"/>
      <point x="150" y="0"/>
      <point x="150" y="323" type="qcurve" smooth="yes"/>
      <point x="150" y="586" type="line"/>
      <point x="556" y="656" type="line"/>
      <point x="862" y="717"/>
      <point x="862" y="877" type="qcurve" smooth="yes"/>
      <point x="862" y="1012"/>
      <point x="650" y="1012" type="qcurve" smooth="yes"/>
      <point x="438" y="1012"/>
      <point x="438" y="897" type="qcurve" smooth="yes"/>
      <point x="438" y="863"/>
      <point x="538" y="863" type="qcurve"/>
      <point x="538" y="719" type="line"/>
      <point x="338" y="719" type="line" smooth="yes"/>
      <point x="150" y="719"/>
      <point x="150" y="863" type="qcurve" smooth="yes"/>
      <point x="150" y="897" type="line" smooth="yes"/>
      <point x="150" y="1200"/>
      <point x="650" y="1200" type="qcurve" smooth="yes"/>
      <point x="1150" y="1200"/>
      <point x="1150" y="877" type="qcurve" smooth="yes"/>
      <point x="1150" y="575"/>
      <point x="566" y="479" type="qcurve"/>
      <point x="438" y="453" type="line"/>
    </contour>
    <contour>
      <point x="313" y="1312" type="line"/>
      <point x="292" y="1287" type="line" smooth="yes"/>
      <point x="287" y="1282"/>
      <point x="287" y="1274" type="qcurve" smooth="yes"/>
      <point x="287" y="1242"/>
      <point x="354" y="1204" type="qcurve"/>
      <point x="178" y="1114" type="line"/>
      <point x="172" y="1122" type="line" smooth="yes"/>
      <point x="100" y="1214"/>
      <point x="100" y="1255" type="qcurve" smooth="yes"/>
      <point x="100" y="1292"/>
      <point x="118" y="1317" type="qcurve" smooth="yes"/>
      <point x="258" y="1500" type="line"/>
      <point x="800" y="1500" type="line" smooth="yes"/>
      <point x="862" y="1500"/>
      <point x="862" y="1550" type="qcurve" smooth="yes"/>
      <point x="862" y="1700" type="line"/>
      <point x="1150" y="1700" type="line"/>
      <point x="1150" y="1550" type="line" smooth="yes"/>
      <point x="1150" y="1312"/>
      <point x="930" y="1312" type="qcurve" smooth="yes"/>
    </contour>
  </outline>
</glyph>
<glyph name="uni17AC" format="1">
  <advance width="1300"/>
  <unicode hex="17AC"/>
  <outline>
    <contour>
      <point x="1130" y="-286" type="qcurve"/>
      <point x="1177" y="-350"/>
      <point x="1220" y="-350" type="qcurve" smooth="yes"/>
      <point x="1300" y="-350" type="line"/>
      <point x="1300" y="-500" type="line"/>
      <point x="1220" y="-500" type="line" smooth="yes"/>
      <point x="1124" y="-500"/>
      <point x="1025" y="-406" type="qcurve"/>
      <point x="876" y="-500"/>
      <point x="500" y="-500" type="qcurve" smooth="yes"/>
      <point x="150" y="-500" type="line"/>
      <point x="150" y="-330" type="line"/>
      <point x="500" y="-330" type="line" smooth="yes"/>
      <point x="862" y="-330"/>
      <point x="862" y="-210" type="qcurve"/>
      <point x="750" y="-210" type="line"/>
      <point x="750" y="-50" type="line"/>
      <point x="1150" y="-50" type="line"/>
      <point x="1150" y="-180" type="line" smooth="yes"/>
      <point x="1150" y="-238"/>
    </contour>
    <contour>
      <point x="150" y="843" type="line"/>
      <point x="100" y="905" type="line"/>
      <point x="60" y="955" type="line" smooth="yes"/>
      <point x="39" y="980"/>
      <point x="39" y="1005" type="qcurve" smooth="yes"/>
      <point x="39" y="1029"/>
      <point x="58" y="1053" type="qcurve" smooth="yes"/>
      <point x="95" y="1102" type="line"/>
      <point x="170" y="1200" type="line"/>
      <point x="498" y="1200" type="line"/>
      <point x="498" y="1012" type="line"/>
      <point x="220" y="1012" type="line"/>
      <point x="438" y="840" type="line"/>
      <point x="438" y="323" type="line" smooth="yes"/>
      <point x="438" y="138"/>
      <point x="650" y="138" type="qcurve" smooth="yes"/>
      <point x="862" y="138"/>
      <point x="862" y="323" type="qcurve" smooth="yes"/>
      <point x="862" y="806" type="line"/>
      <point x="757" y="905" type="line"/>
      <point x="705" y="955" type="line" smooth="yes"/>
      <point x="674" y="984"/>
      <point x="674" y="1012" type="qcurve" smooth="yes"/>
      <point x="674" y="1033"/>
      <point x="690" y="1053" type="qcurve" smooth="yes"/>
      <point x="727" y="1102" type="line"/>
      <point x="802" y="1200" type="line"/>
      <point x="1150" y="1200" type="line"/>
      <point x="1150" y="1012" type="line"/>
      <point x="852" y="1012" type="line"/>
      <point x="1150" y="840" type="line"/>
      <point x="1150" y="323" type="line" smooth="yes"/>
      <point x="1150" y="0"/>
      <point x="650" y="0" type="qcurve" smooth="yes"/>
      <point x="150" y="0"/>
      <point x="150" y="323" type="qcurve" smooth="yes"/>
    </contour>
  </outline>
</glyph>
<glyph name="uni17AE" format="1">
  <advance width="1300"/>
  <unicode hex="17AE"/>
  <outline>
    <contour>
      <point x="438" y="310" type="qcurve"/>
      <point x="438" y="138" type="line"/>
      <point x="530" y="138"/>
      <point x="530" y="249" type="qcurve" smooth="yes"/>
      <point x="530" y="310"/>
    </contour>
    <contour>
      <point x="150" y="923" type="line" smooth="yes"/>
      <point x="150" y="1036"/>
      <point x="320" y="1200"/>
      <point x="415" y="1200" type="qcurve" smooth="yes"/>
      <point x="539" y="1200"/>
      <point x="650" y="1076" type="qcurve"/>
      <point x="762" y="1200"/>
      <point x="887" y="1200" type="qcurve" smooth="yes"/>
      <point x="981" y="1200"/>
      <point x="1150" y="1036"/>
      <point x="1150" y="923" type="qcurve" smooth="yes"/>
      <point x="1150" y="0" type="line"/>
      <point x="862" y="0" type="line"/>
      <point x="862" y="923" type="line" smooth="yes"/>
      <point x="862" y="1000"/>
      <point x="827" y="1000" type="qcurve" smooth="yes"/>
      <point x="791" y="1000"/>
      <point x="709" y="906" type="qcurve" smooth="yes"/>
      <point x="682" y="875"/>
      <point x="650" y="875" type="qcurve" smooth="yes"/>
      <point x="618" y="875"/>
      <point x="591" y="906" type="qcurve" smooth="yes"/>
      <point x="510" y="1000"/>
      <point x="474" y="1000" type="qcurve" smooth="yes"/>
      <point x="438" y="1000"/>
      <point x="438" y="923" type="qcurve" smooth="yes"/>
      <point x="438" y="448" type="line"/>
      <point x="648" y="448"/>
      <point x="648" y="249" type="qcurve" smooth="yes"/>
      <point x="648" y="0"/>
      <point x="438" y="0" type="qcurve" smooth="yes"/>
      <point x="294" y="0" type="line" smooth="yes"/>
      <point x="150" y="0"/>
      <point x="150" y="122" type="qcurve" smooth="yes"/>
    </contour>
    <contour>
      <point x="1130" y="-286" type="qcurve"/>
      <point x="1177" y="-350"/>
      <point x="1220" y="-350" type="qcurve" smooth="yes"/>
      <point x="1300" y="-350" type="line"/>
      <point x="1300" y="-500" type="line"/>
      <point x="1220" y="-500" type="line" smooth="yes"/>
      <point x="1124" y="-500"/>
      <point x="1025" y="-406" type="qcurve"/>
      <point x="876" y="-500"/>
      <point x="500" y="-500" type="qcurve" smooth="yes"/>
      <point x="150" y="-500" type="line"/>
      <point x="150" y="-330" type="line"/>
      <point x="500" y="-330" type="line" smooth="yes"/>
      <point x="862" y="-330"/>
      <point x="862" y="-210" type="qcurve"/>
      <point x="750" y="-210" type="line"/>
      <point x="750" y="-50" type="line"/>
      <point x="1150" y="-50" type="line"/>
      <point x="1150" y="-180" type="line" smooth="yes"/>
      <point x="1150" y="-238"/>
    </contour>
  </outline>
</glyph>
<glyph name="uni17AF" format="1">
  <advance width="1300"/>
  <unicode hex="17AF"/>
  <outline>
    <contour>
      <point x="150" y="732" type="line" smooth="yes"/>
      <point x="150" y="773"/>
      <point x="50" y="773" type="qcurve"/>
      <point x="50" y="917" type="line"/>
      <point x="250" y="917" type="line" smooth="yes"/>
      <point x="438" y="917"/>
      <point x="438" y="773" type="qcurve" smooth="yes"/>
      <point x="438" y="261" type="line"/>
      <point x="651" y="455" type="line"/>
      <point x="862" y="263" type="line"/>
      <point x="862" y="897" type="line" smooth="yes"/>
      <point x="862" y="1012"/>
      <point x="721" y="1012" type="qcurve" smooth="yes"/>
      <point x="530" y="1012" type="line" smooth="yes"/>
      <point x="150" y="1012"/>
      <point x="150" y="1316" type="qcurve" smooth="yes"/>
      <point x="150" y="1540" type="line"/>
      <point x="438" y="1540" type="line"/>
      <point x="438" y="1316" type="line" smooth="yes"/>
      <point x="438" y="1200"/>
      <point x="530" y="1200" type="qcurve" smooth="yes"/>
      <point x="815" y="1200" type="line" smooth="yes"/>
      <point x="1150" y="1200"/>
      <point x="1150" y="897" type="qcurve" smooth="yes"/>
      <point x="1150" y="0" type="line"/>
      <point x="882" y="0" type="line"/>
      <point x="651" y="210" type="line"/>
      <point x="419" y="0" type="line"/>
      <point x="150" y="0" type="line"/>
    </contour>
  </outline>
</glyph>
<glyph name="uni17B0" format="1">
  <advance width="1300"/>
  <unicode hex="17B0"/>
  <outline>
    <contour>
      <point x="670" y="-246" type="line"/>
      <point x="862" y="-282" type="line"/>
      <point x="862" y="-195" type="line"/>
    </contour>
    <contour>
      <point x="438" y="310" type="qcurve"/>
      <point x="438" y="138" type="line"/>
      <point x="530" y="138"/>
      <point x="530" y="249" type="qcurve" smooth="yes"/>
      <point x="530" y="310"/>
    </contour>
    <contour>
      <point x="433" y="-316" type="line"/>
      <point x="433" y="-356" type="line" smooth="yes"/>
      <point x="433" y="-395"/>
      <point x="469" y="-395" type="qcurve" smooth="yes"/>
      <point x="541" y="-395"/>
      <point x="569" y="-372" type="qcurve" smooth="yes"/>
      <point x="596" y="-351"/>
      <point x="596" y="-321" type="qcurve" smooth="yes"/>
      <point x="596" y="-265" type="line"/>
    </contour>
    <contour>
      <point x="1150" y="-275" type="line" smooth="yes"/>
      <point x="1150" y="-332"/>
      <point x="1031" y="-389"/>
      <point x="816" y="-389" type="qcurve"/>
      <point x="706" y="-363" type="line"/>
      <point x="706" y="-410"/>
      <point x="650" y="-455" type="qcurve" smooth="yes"/>
      <point x="596" y="-500"/>
      <point x="466" y="-500" type="qcurve" smooth="yes"/>
      <point x="150" y="-500"/>
      <point x="150" y="-360" type="qcurve" smooth="yes"/>
      <point x="150" y="-219" type="line"/>
      <point x="486" y="-168"/>
      <point x="862" y="-84"/>
      <point x="862" y="-50" type="qcurve" smooth="yes"/>
      <point x="862" y="923" type="line" smooth="yes"/>
      <point x="862" y="1000"/>
      <point x="827" y="1000" type="qcurve" smooth="yes"/>
      <point x="791" y="1000"/>
      <point x="709" y="906" type="qcurve" smooth="yes"/>
      <point x="682" y="875"/>
      <point x="650" y="875" type="qcurve" smooth="yes"/>
      <point x="618" y="875"/>
      <point x="591" y="906" type="qcurve" smooth="yes"/>
      <point x="510" y="1000"/>
      <point x="474" y="1000" type="qcurve" smooth="yes"/>
      <point x="438" y="1000"/>
      <point x="438" y="923" type="qcurve" smooth="yes"/>
      <point x="438" y="448" type="line"/>
      <point x="648" y="448"/>
      <point x="648" y="249" type="qcurve" smooth="yes"/>
      <point x="648" y="0"/>
      <point x="438" y="0" type="qcurve" smooth="yes"/>
      <point x="294" y="0" type="line" smooth="yes"/>
      <point x="150" y="0"/>
      <point x="150" y="122" type="qcurve" smooth="yes"/>
      <point x="150" y="923" type="line" smooth="yes"/>
      <point x="150" y="1036"/>
      <point x="320" y="1200"/>
      <point x="415" y="1200" type="qcurve" smooth="yes"/>
      <point x="539" y="1200"/>
      <point x="650" y="1076" type="qcurve"/>
      <point x="762" y="1200"/>
      <point x="887" y="1200" type="qcurve" smooth="yes"/>
      <point x="981" y="1200"/>
      <point x="1150" y="1036"/>
      <point x="1150" y="923" type="qcurve" smooth="yes"/>
    </contour>
  </outline>
</glyph>
<glyph name="uni17B2" format="1">
  <advance width="1300"/>
  <unicode hex="17B2"/>
  <outline>
    <contour>
      <point x="150" y="877" type="line" smooth="yes"/>
      <point x="150" y="1200"/>
      <point x="625" y="1200" type="qcurve" smooth="yes"/>
      <point x="910" y="1200"/>
      <point x="1050" y="1108" type="qcurve"/>
      <point x="974" y="936" type="line"/>
      <point x="855" y="1012"/>
      <point x="625" y="1012" type="qcurve" smooth="yes"/>
      <point x="438" y="1012"/>
      <point x="438" y="877" type="qcurve" smooth="yes"/>
      <point x="438" y="323" type="line" smooth="yes"/>
      <point x="438" y="138"/>
      <point x="650" y="138" type="qcurve" smooth="yes"/>
      <point x="862" y="138"/>
      <point x="862" y="323" type="qcurve" smooth="yes"/>
      <point x="862" y="360" type="line" smooth="yes"/>
      <point x="862" y="389"/>
      <point x="856" y="413" type="qcurve"/>
      <point x="750" y="320" type="line"/>
      <point x="637" y="425" type="line"/>
      <point x="922" y="672" type="line"/>
      <point x="644" y="672" type="line"/>
      <point x="644" y="860" type="line"/>
      <point x="1022" y="860" type="line"/>
      <point x="1097" y="762" type="line"/>
      <point x="1134" y="713" type="line" smooth="yes"/>
      <point x="1150" y="693"/>
      <point x="1150" y="672" type="qcurve" smooth="yes"/>
      <point x="1150" y="644"/>
      <point x="1119" y="615" type="qcurve" smooth="yes"/>
      <point x="1067" y="565" type="line"/>
      <point x="1043" y="542" type="line"/>
      <point x="1150" y="464"/>
      <point x="1150" y="360" type="qcurve" smooth="yes"/>
      <point x="1150" y="323" type="line" smooth="yes"/>
      <point x="1150" y="0"/>
      <point x="650" y="0" type="qcurve" smooth="yes"/>
      <point x="150" y="0"/>
      <point x="150" y="323" type="qcurve" smooth="yes"/>
    </contour>
  </outline>
</glyph>
<glyph name="uni17B3" format="1">
  <advance width="1300"/>
  <unicode hex="17B3"/>
  <outline>
    <contour>
      <point x="875" y="1362" type="line"/>
      <point x="313" y="1362" type="line"/>
      <point x="292" y="1337" type="line" smooth="yes"/>
      <point x="287" y="1332"/>
      <point x="287" y="1324" type="qcurve" smooth="yes"/>
      <point x="287" y="1292"/>
      <point x="354" y="1216" type="qcurve" smooth="yes"/>
      <point x="364" y="1204" type="line"/>
      <point x="178" y="1114" type="line"/>
      <point x="172" y="1122" type="line" smooth="yes"/>
      <point x="100" y="1214"/>
      <point x="100" y="1255" type="qcurve" smooth="yes"/>
      <point x="100" y="1292"/>
      <point x="118" y="1317" type="qcurve" smooth="yes"/>
      <point x="258" y="1550" type="line"/>
      <point x="711" y="1550" type="line"/>
      <point x="650" y="1632"/>
      <point x="650" y="1718" type="qcurve" smooth="yes"/>
      <point x="650" y="1775"/>
      <point x="746" y="1890" type="qcurve"/>
      <point x="930" y="1823" type="line"/>
      <point x="854" y="1768"/>
      <point x="854" y="1695" type="qcurve" smooth="yes"/>
      <point x="854" y="1652"/>
      <point x="881" y="1620" type="qcurve" smooth="yes"/>
      <point x="944" y="1545" type="line"/>
      <point x="1137" y="1513"/>
      <point x="1180" y="1222" type="qcurve"/>
      <point x="1054" y="1147" type="line"/>
    </contour>
    <contour>
      <point x="438" y="323" type="line" smooth="yes"/>
      <point x="438" y="188"/>
      <point x="520" y="188" type="qcurve" smooth="yes"/>
      <point x="585" y="188"/>
      <point x="862" y="341"/>
      <point x="862" y="403" type="qcurve" smooth="yes"/>
      <point x="862" y="480" type="line"/>
      <point x="1150" y="480" type="line"/>
      <point x="1150" y="-100" type="line"/>
      <point x="862" y="-100" type="line"/>
      <point x="862" y="153" type="line"/>
      <point x="660" y="0"/>
      <point x="520" y="0" type="qcurve" smooth="yes"/>
      <point x="150" y="0"/>
      <point x="150" y="323" type="qcurve" smooth="yes"/>
      <point x="150" y="586" type="line"/>
      <point x="556" y="656" type="line"/>
      <point x="862" y="717"/>
      <point x="862" y="877" type="qcurve" smooth="yes"/>
      <point x="862" y="1012"/>
      <point x="650" y="1012" type="qcurve" smooth="yes"/>
      <point x="438" y="1012"/>
      <point x="438" y="897" type="qcurve" smooth="yes"/>
      <point x="438" y="863"/>
      <point x="538" y="863" type="qcurve"/>
      <point x="538" y="719" type="line"/>
      <point x="338" y="719" type="line" smooth="yes"/>
      <point x="150" y="719"/>
      <point x="150" y="863" type="qcurve" smooth="yes"/>
      <point x="150" y="897" type="line" smooth="yes"/>
      <point x="150" y="1200"/>
      <point x="650" y="1200" type="qcurve" smooth="yes"/>
      <point x="1150" y="1200"/>
      <point x="1150" y="877" type="qcurve" smooth="yes"/>
      <point x="1150" y="575"/>
      <point x="566" y="479" type="qcurve"/>
      <point x="438" y="453" type="line"/>
    </contour>
  </outline>
</glyph>
<glyph name="uni17B5" format="1">
  <advance width="588"/>
  <unicode hex="17B5"/>
  <outline>
    <contour>
      <point x="68" y="1200" type="line" smooth="yes"/>
      <point x="236" y="1200"/>
      <point x="438" y="1068"/>
      <point x="438" y="937" type="qcurve" smooth="yes"/>
      <point x="438" y="0" type="line"/>
      <point x="150" y="0" type="line"/>
      <point x="150" y="887" type="line" smooth="yes"/>
      <point x="150" y="959"/>
      <point x="93" y="1012"/>
      <point x="18" y="1012" type="qcurve" smooth="yes"/>
      <point x="-200" y="1012" type="line"/>
      <point x="-200" y="1200" type="line"/>
    </contour>
  </outline>
</glyph>
<glyph name="uni17B7" format="1">
  <advance width="0"/>
  <unicode hex="17B7"/>
  <outline>
    <contour>
      <point x="-1100" y="1550" type="qcurve" smooth="yes"/>
      <point x="-1100" y="1800"/>
      <point x="-740" y="1800" type="qcurve" smooth="yes"/>
      <point x="-591" y="1800"/>
      <point x="-450" y="1725" type="qcurve" smooth="yes"/>
      <point x="-310" y="1650"/>
      <point x="-200" y="1550" type="qcurve"/>
      <point x="-200" y="1400" type="line"/>
      <point x="-1000" y="1400" type="line" smooth="yes"/>
      <point x="-1100" y="1400"/>
    </contour>
    <contour>
      <point x="-850" y="1530" type="qcurve"/>
      <point x="-442" y="1530" type="line"/>
      <point x="-554" y="1620"/>
      <point x="-740" y="1620" type="qcurve" smooth="yes"/>
      <point x="-850" y="1620"/>
    </contour>
  </outline>
</glyph>
<glyph name="uni17B8" format="1">
  <advance width="0"/>
  <unicode hex="17B8"/>
  <outline>
    <contour>
      <point x="-850" y="1530" type="qcurve"/>
      <point x="-442" y="1530" type="line"/>
      <point x="-554" y="1620"/>
      <point x="-740" y="1620" type="qcurve" smooth="yes"/>
      <point x="-850" y="1620"/>
    </contour>
    <contour>
      <point x="-388" y="1690" type="qcurve"/>
      <point x="-388" y="1850" type="line"/>
      <point x="-200" y="1850" type="line"/>
      <point x="-200" y="1400" type="line"/>
      <point x="-950" y="1400" type="line" smooth="yes"/>
      <point x="-1100" y="1400"/>
      <point x="-1100" y="1550" type="qcurve" smooth="yes"/>
      <point x="-1100" y="1800"/>
      <point x="-740" y="1800" type="qcurve" smooth="yes"/>
      <point x="-591" y="1800"/>
      <point x="-450" y="1725" type="qcurve" smooth="yes"/>
      <point x="-418" y="1708"/>
    </contour>
  </outline>
</glyph>
<glyph name="uni17BB" format="1">
  <advance width="0"/>
  <unicode hex="17BB"/>
  <outline>
    <contour>
      <point x="-150" y="-70" type="line"/>
      <point x="-150" y="-500" type="line"/>
      <point x="-438" y="-500" type="line"/>
      <point x="-438" y="-170" type="line"/>
      <point x="-523" y="-170" type="line"/>
      <point x="-523" y="-70" type="line"/>
    </contour>
  </outline>
</glyph>
<glyph name="uni17BC" format="1">
  <advance width="0"/>
  <unicode hex="17BC"/>
  <outline>
    <contour>
      <point x="-790" y="-70" type="line"/>
      <point x="-562" y="-70" type="line"/>
      <point x="-562" y="-290" type="line" smooth="yes"/>
      <point x="-562" y="-380"/>
      <point x="-470" y="-380" type="qcurve" smooth="yes"/>
      <point x="-378" y="-380"/>
      <point x="-378" y="-290" type="qcurve" smooth="yes"/>
      <point x="-378" y="-70" type="line"/>
      <point x="-150" y="-70" type="line"/>
      <point x="-150" y="-290" type="line" smooth="yes"/>
      <point x="-150" y="-500"/>
      <point x="-470" y="-500" type="qcurve" smooth="yes"/>
      <point x="-790" y="-500"/>
      <point x="-790" y="-290" type="qcurve" smooth="yes"/>
    </contour>
  </outline>
</glyph>
<glyph name="uni17BD" format="1">
  <advance width="0"/>
  <unicode hex="17BD"/>
  <outline>
    <contour>
      <point x="-378" y="-333" type="line"/>
      <point x="-378" y="-70" type="line"/>
      <point x="-150" y="-70" type="line"/>
      <point x="-150" y="-500" type="line"/>
      <point x="-370" y="-500" type="line"/>
      <point x="-495" y="-370" type="line"/>
      <point x="-620" y="-500" type="line"/>
      <point x="-840" y="-500" type="line"/>
      <point x="-840" y="-70" type="line"/>
      <point x="-612" y="-70" type="line"/>
      <point x="-612" y="-333" type="line"/>
      <point x="-495" y="-230" type="line"/>
    </contour>
  </outline>
</glyph>
<glyph name="uni17BF" format="1">
  <advance width="588"/>
  <unicode hex="17BF"/>
  <outline>
    <contour>
      <point x="-270" y="1530" type="qcurve"/>
      <point x="8" y="1530" type="line"/>
      <point x="-104" y="1610"/>
      <point x="-180" y="1620"/>
      <point x="-210" y="1620" type="qcurve" smooth="yes"/>
      <point x="-250" y="1620"/>
      <point x="-270" y="1560"/>
    </contour>
    <contour>
      <point x="200" y="1550" type="line"/>
      <point x="438" y="1383"/>
      <point x="438" y="1210" type="qcurve" smooth="yes"/>
      <point x="438" y="-260" type="line" smooth="yes"/>
      <point x="438" y="-500"/>
      <point x="0" y="-500" type="qcurve" smooth="yes"/>
      <point x="-438" y="-500"/>
      <point x="-438" y="-260" type="qcurve" smooth="yes"/>
      <point x="-438" y="-50" type="line"/>
      <point x="-100" y="-50" type="line"/>
      <point x="-100" y="-160" type="line"/>
      <point x="-150" y="-160" type="line"/>
      <point x="-150" y="-260" type="line" smooth="yes"/>
      <point x="-150" y="-330"/>
      <point x="0" y="-330" type="qcurve" smooth="yes"/>
      <point x="150" y="-330"/>
      <point x="150" y="-260" type="qcurve" smooth="yes"/>
      <point x="150" y="1210" type="line" smooth="yes"/>
      <point x="150" y="1350"/>
      <point x="0" y="1350" type="qcurve" smooth="yes"/>
      <point x="-420" y="1350" type="line" smooth="yes"/>
      <point x="-520" y="1350"/>
      <point x="-520" y="1550" type="qcurve" smooth="yes"/>
      <point x="-520" y="1650"/>
      <point x="-410" y="1800"/>
      <point x="-310" y="1800" type="qcurve" smooth="yes"/>
      <point x="-247" y="1800"/>
      <point x="-158" y="1771" type="qcurve"/>
      <point x="-158" y="1900" type="line"/>
      <point x="-20" y="1900" type="line"/>
      <point x="-20" y="1708" type="line"/>
      <point x="22" y="1684"/>
      <point x="62" y="1658" type="qcurve"/>
      <point x="62" y="1850" type="line"/>
      <point x="200" y="1850" type="line"/>
    </contour>
  </outline>
</glyph>
<glyph name="uni17C0" format="1">
  <advance width="588"/>
  <unicode hex="17C0"/>
  <outline>
    <contour>
      <point x="150" y="1250" type="line" smooth="yes"/>
      <point x="150" y="1430"/>
      <point x="0" y="1430" type="qcurve" smooth="yes"/>
      <point x="-150" y="1430"/>
      <point x="-210" y="1400" type="qcurve"/>
      <point x="-438" y="1400" type="line"/>
      <point x="-438" y="1900" type="line"/>
      <point x="-150" y="1900" type="line"/>
      <point x="-150" y="1552" type="line"/>
      <point x="-75" y="1610"/>
      <point x="70" y="1610" type="qcurve" smooth="yes"/>
      <point x="438" y="1610"/>
      <point x="438" y="1250" type="qcurve" smooth="yes"/>
      <point x="438" y="-260" type="line" smooth="yes"/>
      <point x="438" y="-500"/>
      <point x="0" y="-500" type="qcurve" smooth="yes"/>
      <point x="-438" y="-500"/>
      <point x="-438" y="-260" type="qcurve" smooth="yes"/>
      <point x="-438" y="-50" type="line"/>
      <point x="-100" y="-50" type="line"/>
      <point x="-100" y="-160" type="line"/>
      <point x="-150" y="-160" type="line"/>
      <point x="-150" y="-260" type="line" smooth="yes"/>
      <point x="-150" y="-330"/>
      <point x="0" y="-330" type="qcurve" smooth="yes"/>
      <point x="150" y="-330"/>
      <point x="150" y="-260" type="qcurve" smooth="yes"/>
    </contour>
  </outline>
</glyph>
<glyph name="uni17C1" format="1">
  <advance width="588"/>
  <unicode hex="17C1"/>
  <outline>
    <contour>
      <point x="438" y="235" type="line" smooth="yes"/>
      <point x="438" y="188"/>
      <point x="483" y="188" type="qcurve" smooth="yes"/>
      <point x="548" y="188" type="line"/>
      <point x="548" y="0" type="line"/>
      <point x="300" y="0" type="line" smooth="yes"/>
      <point x="150" y="0"/>
      <point x="150" y="102" type="qcurve" smooth="yes"/>
      <point x="150" y="843" type="line"/>
      <point x="100" y="905" type="line"/>
      <point x="60" y="955" type="line" smooth="yes"/>
      <point x="39" y="980"/>
      <point x="39" y="1005" type="qcurve" smooth="yes"/>
      <point x="39" y="1029"/>
      <point x="58" y="1053" type="qcurve" smooth="yes"/>
      <point x="95" y="1102" type="line"/>
      <point x="170" y="1200" type="line"/>
      <point x="498" y="1200" type="line"/>
      <point x="498" y="1012" type="line"/>
      <point x="220" y="1012" type="line"/>
      <point x="438" y="840" type="line"/>
    </contour>
  </outline>
</glyph>
<glyph name="uni17C2" format="1">
  <advance width="588"/>
  <unicode hex="17C2"/>
  <outline>
    <contour>
      <point x="0" y="1490" type="qcurve" smooth="yes"/>
      <point x="0" y="1670"/>
      <point x="297" y="1670" type="qcurve"/>
      <point x="297" y="1540" type="line"/>
      <point x="250" y="1540"/>
      <point x="250" y="1490" type="qcurve" smooth="yes"/>
      <point x="250" y="1460"/>
      <point x="311" y="1460" type="qcurve" smooth="yes"/>
      <point x="410" y="1460"/>
      <point x="410" y="1750" type="qcurve"/>
      <point x="610" y="1750" type="line"/>
      <point x="610" y="1300"/>
      <point x="261" y="1300" type="qcurve" smooth="yes"/>
      <point x="0" y="1300"/>
    </contour>
    <contour>
      <point x="438" y="235" type="line" smooth="yes"/>
      <point x="438" y="188"/>
      <point x="483" y="188" type="qcurve" smooth="yes"/>
      <point x="548" y="188" type="line"/>
      <point x="548" y="0" type="line"/>
      <point x="300" y="0" type="line" smooth="yes"/>
      <point x="150" y="0"/>
      <point x="150" y="102" type="qcurve" smooth="yes"/>
      <point x="150" y="843" type="line"/>
      <point x="100" y="905" type="line"/>
      <point x="60" y="955" type="line" smooth="yes"/>
      <point x="39" y="980"/>
      <point x="39" y="1005" type="qcurve" smooth="yes"/>
      <point x="39" y="1029"/>
      <point x="58" y="1053" type="qcurve" smooth="yes"/>
      <point x="95" y="1102" type="line"/>
      <point x="170" y="1200" type="line"/>
      <point x="498" y="1200" type="line"/>
      <point x="498" y="1012" type="line"/>
      <point x="220" y="1012" type="line"/>
      <point x="438" y="840" type="line"/>
    </contour>
  </outline>
</glyph>
<glyph name="uni17C3" format="1">
  <advance width="588"/>
  <unicode hex="17C3"/>
  <outline>
    <contour>
      <point x="380" y="1505" type="qcurve" smooth="yes"/>
      <point x="380" y="1560"/>
      <point x="315" y="1560" type="qcurve" smooth="yes"/>
      <point x="250" y="1560"/>
      <point x="250" y="1530" type="qcurve"/>
      <point x="20" y="1530" type="line"/>
      <point x="20" y="1700" type="line" smooth="yes"/>
      <point x="20" y="1750"/>
      <point x="-30" y="1750" type="qcurve"/>
      <point x="-30" y="1900" type="line"/>
      <point x="250" y="1900"/>
      <point x="250" y="1750" type="qcurve" smooth="yes"/>
      <point x="250" y="1670" type="line"/>
      <point x="305" y="1700"/>
      <point x="360" y="1700" type="qcurve" smooth="yes"/>
      <point x="590" y="1700"/>
      <point x="590" y="1505" type="qcurve" smooth="yes"/>
      <point x="590" y="1300"/>
      <point x="320" y="1300" type="qcurve" smooth="yes"/>
      <point x="20" y="1300" type="line"/>
      <point x="20" y="1460" type="line"/>
      <point x="320" y="1460" type="line" smooth="yes"/>
      <point x="380" y="1460"/>
    </contour>
    <contour>
      <point x="438" y="235" type="line" smooth="yes"/>
      <point x="438" y="188"/>
      <point x="483" y="188" type="qcurve" smooth="yes"/>
      <point x="548" y="188" type="line"/>
      <point x="548" y="0" type="line"/>
      <point x="300" y="0" type="line" smooth="yes"/>
      <point x="150" y="0"/>
      <point x="150" y="102" type="qcurve" smooth="yes"/>
      <point x="150" y="843" type="line"/>
      <point x="100" y="905" type="line"/>
      <point x="60" y="955" type="line" smooth="yes"/>
      <point x="39" y="980"/>
      <point x="39" y="1005" type="qcurve" smooth="yes"/>
      <point x="39" y="1029"/>
      <point x="58" y="1053" type="qcurve" smooth="yes"/>
      <point x="95" y="1102" type="line"/>
      <point x="170" y="1200" type="line"/>
      <point x="498" y="1200" type="line"/>
      <point x="498" y="1012" type="line"/>
      <point x="220" y="1012" type="line"/>
      <point x="438" y="840" type="line"/>
    </contour>
  </outline>
</glyph>
<glyph name="uni17C5" format="1">
  <advance width="588"/>
  <unicode hex="17C5"/>
  <outline>
    <contour>
      <point x="150" y="1487" type="line" smooth="yes"/>
      <point x="150" y="1529"/>
      <point x="123" y="1562"/>
      <point x="78" y="1562" type="qcurve" smooth="yes"/>
      <point x="0" y="1562" type="line"/>
      <point x="0" y="1750" type="line"/>
      <point x="178" y="1750" type="line" smooth="yes"/>
      <point x="336" y="1750"/>
      <point x="438" y="1638"/>
      <point x="438" y="1537" type="qcurve" smooth="yes"/>
      <point x="438" y="1237" type="line"/>
      <point x="150" y="1239" type="line"/>
    </contour>
    <contour>
      <point x="68" y="1200" type="line" smooth="yes"/>
      <point x="236" y="1200"/>
      <point x="438" y="1068"/>
      <point x="438" y="937" type="qcurve" smooth="yes"/>
      <point x="438" y="0" type="line"/>
      <point x="150" y="0" type="line"/>
      <point x="150" y="887" type="line" smooth="yes"/>
      <point x="150" y="959"/>
      <point x="93" y="1012"/>
      <point x="18" y="1012" type="qcurve" smooth="yes"/>
      <point x="-200" y="1012" type="line"/>
      <point x="-200" y="1200" type="line"/>
    </contour>
  </outline>
</glyph>
<glyph name="uni17C6" format="1">
  <advance width="0"/>
  <unicode hex="17C6"/>
  <outline>
    <contour>
      <point x="-572" y="1480" type="qcurve" smooth="yes"/>
      <point x="-566" y="1491"/>
      <point x="-566" y="1506" type="qcurve" smooth="yes"/>
      <point x="-566" y="1513" type="line" smooth="yes"/>
      <point x="-568" y="1533"/>
      <point x="-598" y="1570"/>
      <point x="-618" y="1581" type="qcurve" smooth="yes"/>
      <point x="-637" y="1593"/>
      <point x="-660" y="1596" type="qcurve" smooth="yes"/>
      <point x="-668" y="1598"/>
      <point x="-674" y="1598" type="qcurve" smooth="yes"/>
      <point x="-689" y="1598"/>
      <point x="-702" y="1592" type="qcurve" smooth="yes"/>
      <point x="-720" y="1584"/>
      <point x="-728" y="1570" type="qcurve" smooth="yes"/>
      <point x="-734" y="1559"/>
      <point x="-734" y="1544" type="qcurve" smooth="yes"/>
      <point x="-734" y="1536" type="line" smooth="yes"/>
      <point x="-732" y="1517"/>
      <point x="-702" y="1480"/>
      <point x="-682" y="1469" type="qcurve" smooth="yes"/>
      <point x="-663" y="1457"/>
      <point x="-639" y="1453" type="qcurve" smooth="yes"/>
      <point x="-632" y="1452"/>
      <point x="-626" y="1452" type="qcurve" smooth="yes"/>
      <point x="-611" y="1452"/>
      <point x="-598" y="1458" type="qcurve" smooth="yes"/>
      <point x="-580" y="1466"/>
    </contour>
    <contour>
      <point x="-650" y="1750" type="qcurve" smooth="yes"/>
      <point x="-587" y="1750"/>
      <point x="-468" y="1692"/>
      <point x="-400" y="1584"/>
      <point x="-400" y="1525" type="qcurve" smooth="yes"/>
      <point x="-400" y="1466"/>
      <point x="-466" y="1359"/>
      <point x="-584" y="1300"/>
      <point x="-650" y="1300" type="qcurve" smooth="yes"/>
      <point x="-714" y="1300"/>
      <point x="-833" y="1359"/>
      <point x="-900" y="1466"/>
      <point x="-900" y="1525" type="qcurve" smooth="yes"/>
      <point x="-900" y="1584"/>
      <point x="-832" y="1692"/>
      <point x="-713" y="1750"/>
    </contour>
  </outline>
</glyph>
<glyph name="uni17C8" format="1">
  <advance width="580"/>
  <unicode hex="17C8"/>
  <outline>
    <contour>
      <point x="280" y="315" type="qcurve" smooth="yes"/>
      <point x="319" y="315"/>
      <point x="390" y="289"/>
      <point x="430" y="241"/>
      <point x="430" y="215" type="qcurve" smooth="yes"/>
      <point x="430" y="189"/>
      <point x="391" y="141"/>
      <point x="319" y="115"/>
      <point x="280" y="115" type="qcurve" smooth="yes"/>
      <point x="241" y="115"/>
      <point x="171" y="141"/>
      <point x="130" y="189"/>
      <point x="130" y="215" type="qcurve" smooth="yes"/>
      <point x="130" y="241"/>
      <point x="171" y="289"/>
      <point x="241" y="315"/>
    </contour>
    <contour>
      <point x="280" y="1065" type="qcurve" smooth="yes"/>
      <point x="319" y="1065"/>
      <point x="390" y="1039"/>
      <point x="430" y="991"/>
      <point x="430" y="965" type="qcurve" smooth="yes"/>
      <point x="430" y="939"/>
      <point x="391" y="891"/>
      <point x="319" y="865"/>
      <point x="280" y="865" type="qcurve" smooth="yes"/>
      <point x="241" y="865"/>
      <point x="171" y="891"/>
      <point x="130" y="939"/>
      <point x="130" y="965" type="qcurve" smooth="yes"/>
      <point x="130" y="991"/>
      <point x="171" y="1039"/>
      <point x="241" y="1065"/>
    </contour>
  </outline>
</glyph>
<glyph name="uni17C9" format="1">
  <advance width="0"/>
  <unicode hex="17C9"/>
  <outline>
    <contour>
      <point x="-930" y="1300" type="line"/>
      <point x="-930" y="1700" type="line"/>
      <point x="-730" y="1700" type="line"/>
      <point x="-730" y="1300" type="line"/>
    </contour>
    <contour>
      <point x="-570" y="1300" type="line"/>
      <point x="-570" y="1700" type="line"/>
      <point x="-370" y="1700" type="line"/>
      <point x="-370" y="1300" type="line"/>
    </contour>
  </outline>
</glyph>
<glyph name="uni17CA" format="1">
  <advance width="0"/>
  <unicode hex="17CA"/>
  <outline>
    <contour>
      <point x="-1100" y="1270" type="line"/>
      <point x="-1100" y="1470" type="line"/>
      <point x="-727" y="1470" type="line"/>
      <point x="-650" y="1370" type="line"/>
      <point x="-572" y="1470" type="line"/>
      <point x="-200" y="1470" type="line"/>
      <point x="-200" y="1270" type="line"/>
    </contour>
  </outline>
</glyph>
<glyph name="uni17CC" format="1">
  <advance width="0"/>
  <unicode hex="17CC"/>
  <outline>
    <contour>
      <point x="-893" y="1309" type="qcurve"/>
      <point x="-1055" y="1416" type="line"/>
      <point x="-900" y="1500"/>
      <point x="-697" y="1712"/>
      <point x="-666" y="1806" type="qcurve"/>
      <point x="-495" y="1767" type="line"/>
      <point x="-539" y="1651"/>
      <point x="-594" y="1571"/>
      <point x="-645" y="1521" type="qcurve"/>
      <point x="-620" y="1525"/>
      <point x="-594" y="1525" type="qcurve" smooth="yes"/>
      <point x="-538" y="1525"/>
      <point x="-472" y="1510" type="qcurve" smooth="yes"/>
      <point x="-376" y="1489"/>
      <point x="-295" y="1391" type="qcurve"/>
      <point x="-460" y="1300" type="line"/>
      <point x="-541" y="1400"/>
      <point x="-617" y="1413" type="qcurve" smooth="yes"/>
      <point x="-659" y="1417"/>
      <point x="-693" y="1417" type="qcurve" smooth="yes"/>
      <point x="-732" y="1417"/>
      <point x="-770" y="1400" type="qcurve" smooth="yes"/>
      <point x="-827" y="1373"/>
    </contour>
  </outline>
</glyph>
<glyph name="uni17CD" format="1">
  <advance width="0"/>
  <unicode hex="17CD"/>
  <outline>
    <contour>
      <point x="-757" y="1430" type="qcurve" smooth="yes"/>
      <point x="-692" y="1430" type="line"/>
      <point x="-692" y="1300" type="line"/>
      <point x="-757" y="1300" type="line" smooth="yes"/>
      <point x="-1050" y="1300"/>
      <point x="-1050" y="1475" type="qcurve" smooth="yes"/>
      <point x="-1050" y="1700"/>
      <point x="-783" y="1700" type="qcurve" smooth="yes"/>
      <point x="-561" y="1700" type="line" smooth="yes"/>
      <point x="-447" y="1700"/>
      <point x="-447" y="1800" type="qcurve"/>
      <point x="-250" y="1800" type="line"/>
      <point x="-250" y="1750" type="line" smooth="yes"/>
      <point x="-250" y="1520"/>
      <point x="-561" y="1520" type="qcurve" smooth="yes"/>
      <point x="-733" y="1520" type="line" smooth="yes"/>
      <point x="-802" y="1520"/>
      <point x="-802" y="1475" type="qcurve" smooth="yes"/>
      <point x="-802" y="1430"/>
    </contour>
  </outline>
</glyph>
<glyph name="uni17CE" format="1">
  <advance width="0"/>
  <unicode hex="17CE"/>
  <outline>
    <contour>
      <point x="-525" y="1638" type="line"/>
      <point x="-325" y="1638" type="line"/>
      <point x="-325" y="1461" type="line"/>
      <point x="-525" y="1461" type="line"/>
      <point x="-525" y="1300" type="line"/>
      <point x="-775" y="1300" type="line"/>
      <point x="-775" y="1461" type="line"/>
      <point x="-975" y="1461" type="line"/>
      <point x="-975" y="1638" type="line"/>
      <point x="-775" y="1638" type="line"/>
      <point x="-775" y="1799" type="line"/>
      <point x="-525" y="1799" type="line"/>
    </contour>
  </outline>
</glyph>
<glyph name="uni17CF" format="1">
  <advance width="0"/>
  <unicode hex="17CF"/>
  <outline>
    <contour>
      <point x="-800" y="1754" type="qcurve" smooth="yes"/>
      <point x="-664" y="1754" type="line" smooth="yes"/>
      <point x="-450" y="1754"/>
      <point x="-450" y="1850" type="qcurve"/>
      <point x="-200" y="1850" type="line"/>
      <point x="-200" y="1812" type="line" smooth="yes"/>
      <point x="-200" y="1588"/>
      <point x="-470" y="1588" type="qcurve" smooth="yes"/>
      <point x="-710" y="1588" type="line" smooth="yes"/>
      <point x="-849" y="1588"/>
      <point x="-849" y="1502" type="qcurve" smooth="yes"/>
      <point x="-849" y="1445" type="line"/>
      <point x="-650" y="1527" type="line"/>
      <point x="-450" y="1444" type="line"/>
      <point x="-450" y="1512" type="line"/>
      <point x="-200" y="1512" type="line"/>
      <point x="-200" y="1300" type="line"/>
      <point x="-430" y="1300" type="line"/>
      <point x="-651" y="1393" type="line"/>
      <point x="-868" y="1300" type="line"/>
      <point x="-869" y="1301" type="line"/>
      <point x="-869" y="1300" type="line"/>
      <point x="-1100" y="1300" type="line"/>
      <point x="-1100" y="1502" type="line" smooth="yes"/>
      <point x="-1100" y="1754"/>
    </contour>
  </outline>
</glyph>
<glyph name="uni17D1" format="1">
  <advance width="0"/>
  <unicode hex="17D1"/>
  <outline>
    <contour>
      <point x="-1050" y="1300" type="line"/>
      <point x="-1050" y="1450" type="line"/>
      <point x="-250" y="1450" type="line"/>
      <point x="-250" y="1300" type="line"/>
    </contour>
  </outline>
</glyph>
<glyph name="uni17D3" format="1">
  <advance width="0"/>
  <unicode hex="17D3"/>
  <outline>
    <contour>
      <point x="-807" y="1636"/>
      <point x="-866" y="1580"/>
      <point x="-866" y="1550" type="qcurve" smooth="yes"/>
      <point x="-866" y="1520"/>
      <point x="-807" y="1464"/>
      <point x="-703" y="1433"/>
      <point x="-649" y="1433" type="qcurve" smooth="yes"/>
      <point x="-592" y="1433"/>
      <point x="-488" y="1464"/>
      <point x="-432" y="1520"/>
      <point x="-432" y="1550" type="qcurve" smooth="yes"/>
      <point x="-432" y="1580"/>
      <point x="-491" y="1636"/>
      <point x="-592" y="1667"/>
      <point x="-649" y="1667" type="qcurve" smooth="yes"/>
      <point x="-703" y="1667"/>
    </contour>
    <contour>
      <point x="-650" y="1800" type="qcurve" smooth="yes"/>
      <point x="-548" y="1800"/>
      <point x="-358" y="1736"/>
      <point x="-250" y="1615"/>
      <point x="-250" y="1550" type="qcurve" smooth="yes"/>
      <point x="-250" y="1485"/>
      <point x="-354" y="1366"/>
      <point x="-546" y="1300"/>
      <point x="-650" y="1300" type="qcurve" smooth="yes"/>
      <point x="-752" y="1300"/>
      <point x="-942" y="1366"/>
      <point x="-1050" y="1485"/>
      <point x="-1050" y="1550" type="qcurve" smooth="yes"/>
      <point x="-1050" y="1615"/>
      <point x="-942" y="1736"/>
      <point x="-750" y="1800"/>
    </contour>
  </outline>
</glyph>
<glyph name="uni17D5" format="1">
  <advance width="1600"/>
  <unicode hex="17D5"/>
  <outline>
    <contour>
      <point x="1450" y="1200" type="line"/>
      <point x="1450" y="0" type="line"/>
      <point x="1162" y="0" type="line"/>
      <point x="1162" y="1200" type="line"/>
    </contour>
    <contour>
      <point x="438" y="1020" type="qcurve" smooth="yes"/>
      <point x="438" y="968"/>
      <point x="516" y="968" type="qcurve" smooth="yes"/>
      <point x="643" y="968"/>
      <point x="703" y="1084" type="qcurve" smooth="yes"/>
      <point x="762" y="1200" type="line"/>
      <point x="1050" y="1200" type="line"/>
      <point x="1050" y="0" type="line"/>
      <point x="762" y="0" type="line"/>
      <point x="762" y="896" type="line"/>
      <point x="653" y="780"/>
      <point x="416" y="780" type="qcurve" smooth="yes"/>
      <point x="150" y="780"/>
      <point x="150" y="1020" type="qcurve" smooth="yes"/>
      <point x="150" y="1200"/>
      <point x="401" y="1200" type="qcurve" smooth="yes"/>
      <point x="492" y="1200" type="line"/>
      <point x="492" y="1062" type="line"/>
      <point x="438" y="1062"/>
    </contour>
  </outline>
</glyph>
<glyph name="uni17D6" format="1">
  <advance width="850"/>
  <unicode hex="17D6"/>
  <outline>
    <contour>
      <point x="750" y="669" type="line"/>
      <point x="750" y="531" type="line"/>
      <point x="100" y="531" type="line"/>
      <point x="100" y="669" type="line"/>
    </contour>
    <contour>
      <point x="511" y="180" type="qcurve" smooth="yes"/>
      <point x="517" y="191"/>
      <point x="517" y="206" type="qcurve" smooth="yes"/>
      <point x="517" y="213" type="line" smooth="yes"/>
      <point x="515" y="233"/>
      <point x="482" y="270"/>
      <point x="460" y="281" type="qcurve" smooth="yes"/>
      <point x="439" y="293"/>
      <point x="414" y="296" type="qcurve" smooth="yes"/>
      <point x="405" y="298"/>
      <point x="399" y="298" type="qcurve" smooth="yes"/>
      <point x="382" y="298"/>
      <point x="368" y="292" type="qcurve" smooth="yes"/>
      <point x="348" y="284"/>
      <point x="339" y="270" type="qcurve" smooth="yes"/>
      <point x="333" y="259"/>
      <point x="333" y="244" type="qcurve" smooth="yes"/>
      <point x="333" y="236" type="line" smooth="yes"/>
      <point x="335" y="217"/>
      <point x="368" y="180"/>
      <point x="390" y="169" type="qcurve" smooth="yes"/>
      <point x="411" y="157"/>
      <point x="437" y="153" type="qcurve" smooth="yes"/>
      <point x="445" y="152"/>
      <point x="451" y="152" type="qcurve" smooth="yes"/>
      <point x="468" y="152"/>
      <point x="482" y="158" type="qcurve" smooth="yes"/>
      <point x="502" y="166"/>
    </contour>
    <contour>
      <point x="425" y="450" type="qcurve" smooth="yes"/>
      <point x="494" y="450"/>
      <point x="625" y="392"/>
      <point x="700" y="284"/>
      <point x="700" y="225" type="qcurve" smooth="yes"/>
      <point x="700" y="166"/>
      <point x="627" y="59"/>
      <point x="498" y="0"/>
      <point x="425" y="0" type="qcurve" smooth="yes"/>
      <point x="355" y="0"/>
      <point x="224" y="59"/>
      <point x="150" y="166"/>
      <point x="150" y="225" type="qcurve" smooth="yes"/>
      <point x="150" y="284"/>
      <point x="225" y="392"/>
      <point x="356" y="450"/>
    </contour>
    <contour>
      <point x="511" y="930" type="qcurve" smooth="yes"/>
      <point x="517" y="941"/>
      <point x="517" y="956" type="qcurve" smooth="yes"/>
      <point x="517" y="963" type="line" smooth="yes"/>
      <point x="515" y="983"/>
      <point x="482" y="1020"/>
      <point x="460" y="1031" type="qcurve" smooth="yes"/>
      <point x="439" y="1043"/>
      <point x="414" y="1046" type="qcurve" smooth="yes"/>
      <point x="405" y="1048"/>
      <point x="399" y="1048" type="qcurve" smooth="yes"/>
      <point x="382" y="1048"/>
      <point x="368" y="1042" type="qcurve" smooth="yes"/>
      <point x="348" y="1034"/>
      <point x="339" y="1020" type="qcurve" smooth="yes"/>
      <point x="333" y="1009"/>
      <point x="333" y="994" type="qcurve" smooth="yes"/>
      <point x="333" y="986" type="line" smooth="yes"/>
      <point x="335" y="967"/>
      <point x="368" y="930"/>
      <point x="390" y="919" type="qcurve" smooth="yes"/>
      <point x="411" y="907"/>
      <point x="437" y="903" type="qcurve" smooth="yes"/>
      <point x="445" y="902"/>
      <point x="451" y="902" type="qcurve" smooth="yes"/>
      <point x="468" y="902"/>
      <point x="482" y="908" type="qcurve" smooth="yes"/>
      <point x="502" y="916"/>
    </contour>
    <contour>
      <point x="425" y="1200" type="qcurve" smooth="yes"/>
      <point x="494" y="1200"/>
      <point x="625" y="1142"/>
      <point x="700" y="1034"/>
      <point x="700" y="975" type="qcurve" smooth="yes"/>
      <point x="700" y="916"/>
      <point x="627" y="809"/>
      <point x="498" y="750"/>
      <point x="425" y="750" type="qcurve" smooth="yes"/>
      <point x="355" y="750"/>
      <point x="224" y="809"/>
      <point x="150" y="916"/>
      <point x="150" y="975" type="qcurve" smooth="yes"/>
      <point x="150" y="1034"/>
      <point x="225" y="1142"/>
      <point x="356" y="1200"/>
    </contour>
  </outline>
</glyph>
<glyph name="uni17D7" format="1">
  <advance width="1200"/>
  <unicode hex="17D7"/>
  <outline>
    <contour>
      <point x="762" y="943" type="line"/>
      <point x="709" y="884"/>
      <point x="625" y="884" type="qcurve" smooth="yes"/>
      <point x="561" y="884"/>
      <point x="508" y="936" type="qcurve"/>
      <point x="460" y="1000"/>
      <point x="391" y="1000" type="qcurve" smooth="yes"/>
      <point x="338" y="1000"/>
      <point x="338" y="953" type="qcurve" smooth="yes"/>
      <point x="338" y="927" type="line" smooth="yes"/>
      <point x="338" y="893"/>
      <point x="438" y="893" type="qcurve"/>
      <point x="438" y="699" type="line"/>
      <point x="358" y="699" type="line" smooth="yes"/>
      <point x="100" y="699"/>
      <point x="100" y="913" type="qcurve" smooth="yes"/>
      <point x="100" y="973" type="line" smooth="yes"/>
      <point x="100" y="1036"/>
      <point x="260" y="1200"/>
      <point x="375" y="1200" type="qcurve" smooth="yes"/>
      <point x="489" y="1200"/>
      <point x="600" y="1076" type="qcurve" smooth="yes"/>
      <point x="614" y="1066"/>
      <point x="631" y="1066" type="qcurve" smooth="yes"/>
      <point x="700" y="1066"/>
      <point x="762" y="1200" type="qcurve"/>
      <point x="1050" y="1200" type="line"/>
      <point x="1050" y="-80" type="line" smooth="yes"/>
      <point x="1050" y="-400"/>
      <point x="550" y="-400" type="qcurve"/>
      <point x="550" y="-212" type="line"/>
      <point x="762" y="-212"/>
      <point x="762" y="-80" type="qcurve" smooth="yes"/>
    </contour>
  </outline>
</glyph>
<glyph name="uni17D8" format="1">
  <advance width="4300"/>
  <unicode hex="17D8"/>
  <outline>
    <contour>
      <point x="1638" y="310" type="qcurve"/>
      <point x="1638" y="138" type="line"/>
      <point x="1730" y="138"/>
      <point x="1730" y="249" type="qcurve" smooth="yes"/>
      <point x="1730" y="310"/>
    </contour>
    <contour>
      <point x="2950" y="323" type="line" smooth="yes"/>
      <point x="2950" y="0"/>
      <point x="2481" y="0" type="qcurve" smooth="yes"/>
      <point x="2012" y="0"/>
      <point x="2012" y="323" type="qcurve" smooth="yes"/>
      <point x="2012" y="877" type="line" smooth="yes"/>
      <point x="2012" y="1012"/>
      <point x="1825" y="1012" type="qcurve" smooth="yes"/>
      <point x="1638" y="1012"/>
      <point x="1638" y="877" type="qcurve" smooth="yes"/>
      <point x="1638" y="448" type="line"/>
      <point x="1848" y="448"/>
      <point x="1848" y="249" type="qcurve" smooth="yes"/>
      <point x="1848" y="0"/>
      <point x="1638" y="0" type="qcurve" smooth="yes"/>
      <point x="1494" y="0" type="line" smooth="yes"/>
      <point x="1350" y="0"/>
      <point x="1350" y="122" type="qcurve" smooth="yes"/>
      <point x="1350" y="877" type="line" smooth="yes"/>
      <point x="1350" y="1200"/>
      <point x="1825" y="1200" type="qcurve" smooth="yes"/>
      <point x="2300" y="1200"/>
      <point x="2300" y="877" type="qcurve" smooth="yes"/>
      <point x="2300" y="323" type="line" smooth="yes"/>
      <point x="2300" y="188"/>
      <point x="2481" y="188" type="qcurve" smooth="yes"/>
      <point x="2662" y="188"/>
      <point x="2662" y="323" type="qcurve" smooth="yes"/>
      <point x="2662" y="806" type="line"/>
      <point x="2557" y="905" type="line"/>
      <point x="2505" y="955" type="line" smooth="yes"/>
      <point x="2474" y="984"/>
      <point x="2474" y="1012" type="qcurve" smooth="yes"/>
      <point x="2474" y="1033"/>
      <point x="2490" y="1053" type="qcurve" smooth="yes"/>
      <point x="2527" y="1102" type="line"/>
      <point x="2602" y="1200" type="line"/>
      <point x="2950" y="1200" type="line"/>
      <point x="2950" y="1012" type="line"/>
      <point x="2652" y="1012" type="line"/>
      <point x="2950" y="840" type="line"/>
    </contour>
    <contour>
      <point x="3538" y="1020" type="qcurve" smooth="yes"/>
      <point x="3538" y="968"/>
      <point x="3616" y="968" type="qcurve" smooth="yes"/>
      <point x="3743" y="968"/>
      <point x="3803" y="1084" type="qcurve" smooth="yes"/>
      <point x="3862" y="1200" type="line"/>
      <point x="4150" y="1200" type="line"/>
      <point x="4150" y="0" type="line"/>
      <point x="3862" y="0" type="line"/>
      <point x="3862" y="896" type="line"/>
      <point x="3753" y="780"/>
      <point x="3516" y="780" type="qcurve" smooth="yes"/>
      <point x="3250" y="780"/>
      <point x="3250" y="1020" type="qcurve" smooth="yes"/>
      <point x="3250" y="1200"/>
      <point x="3501" y="1200" type="qcurve" smooth="yes"/>
      <point x="3592" y="1200" type="line"/>
      <point x="3592" y="1062" type="line"/>
      <point x="3538" y="1062"/>
    </contour>
    <contour>
      <point x="438" y="1020" type="qcurve" smooth="yes"/>
      <point x="438" y="968"/>
      <point x="516" y="968" type="qcurve" smooth="yes"/>
      <point x="643" y="968"/>
      <point x="703" y="1084" type="qcurve" smooth="yes"/>
      <point x="762" y="1200" type="line"/>
      <point x="1050" y="1200" type="line"/>
      <point x="1050" y="0" type="line"/>
      <point x="762" y="0" type="line"/>
      <point x="762" y="896" type="line"/>
      <point x="653" y="780"/>
      <point x="416" y="780" type="qcurve" smooth="yes"/>
      <point x="150" y="780"/>
      <point x="150" y="1020" type="qcurve" smooth="yes"/>
      <point x="150" y="1200"/>
      <point x="401" y="1200" type="qcurve" smooth="yes"/>
      <point x="492" y="1200" type="line"/>
      <point x="492" y="1062" type="line"/>
      <point x="438" y="1062"/>
    </contour>
  </outline>
</glyph>
<glyph name="uni17DB" format="1">
  <advance width="588"/>
  <unicode hex="17DB"/>
  <outline>
    <contour>
      <point x="150" y="506" type="line"/>
      <point x="40" y="506" type="line"/>
      <point x="40" y="694" type="line"/>
      <point x="150" y="694" type="line"/>
      <point x="150" y="843" type="line"/>
      <point x="100" y="905" type="line"/>
      <point x="60" y="955" type="line" smooth="yes"/>
      <point x="39" y="980"/>
      <point x="39" y="1005" type="qcurve" smooth="yes"/>
      <point x="39" y="1029"/>
      <point x="58" y="1053" type="qcurve" smooth="yes"/>
      <point x="95" y="1102" type="line"/>
      <point x="170" y="1200" type="line"/>
      <point x="438" y="1200" type="line"/>
      <point x="438" y="1012" type="line"/>
      <point x="220" y="1012" type="line"/>
      <point x="438" y="840" type="line"/>
      <point x="438" y="694" type="line"/>
      <point x="538" y="694" type="line"/>
      <point x="538" y="506" type="line"/>
      <point x="438" y="506" type="line"/>
      <point x="438" y="102" type="line" smooth="yes"/>
      <point x="438" y="0"/>
      <point x="238" y="0" type="qcurve" smooth="yes"/>
      <point x="39" y="0" type="line"/>
      <point x="39" y="188" type="line"/>
      <point x="150" y="188"/>
      <point x="150" y="235" type="qcurve" smooth="yes"/>
    </contour>
  </outline>
</glyph>
<glyph name="uni17E0" format="1">
  <advance width="1300"/>
  <unicode hex="17E0"/>
  <outline>
    <contour>
      <point x="650" y="188" type="qcurve" smooth="yes"/>
      <point x="862" y="188"/>
      <point x="862" y="380" type="qcurve" smooth="yes"/>
      <point x="862" y="820" type="line" smooth="yes"/>
      <point x="862" y="1012"/>
      <point x="650" y="1012" type="qcurve" smooth="yes"/>
      <point x="438" y="1012"/>
      <point x="438" y="820" type="qcurve" smooth="yes"/>
      <point x="438" y="380" type="line" smooth="yes"/>
      <point x="438" y="188"/>
    </contour>
    <contour>
      <point x="150" y="820" type="line" smooth="yes"/>
      <point x="150" y="1200"/>
      <point x="650" y="1200" type="qcurve" smooth="yes"/>
      <point x="1150" y="1200"/>
      <point x="1150" y="820" type="qcurve" smooth="yes"/>
      <point x="1150" y="380" type="line" smooth="yes"/>
      <point x="1150" y="0"/>
      <point x="650" y="0" type="qcurve" smooth="yes"/>
      <point x="150" y="0"/>
      <point x="150" y="380" type="qcurve" smooth="yes"/>
    </contour>
  </outline>
</glyph>
<glyph name="uni17E1" format="1">
  <advance width="1300"/>
  <unicode hex="17E1"/>
  <outline>
    <contour>
      <point x="862" y="320" type="qcurve" smooth="yes"/>
      <point x="862" y="880" type="line" smooth="yes"/>
      <point x="862" y="1012"/>
      <point x="650" y="1012" type="qcurve" smooth="yes"/>
      <point x="438" y="1012"/>
      <point x="438" y="880" type="qcurve" smooth="yes"/>
      <point x="438" y="760" type="line" smooth="yes"/>
      <point x="438" y="680"/>
      <point x="515" y="680" type="qcurve" smooth="yes"/>
      <point x="650" y="680" type="line"/>
      <point x="650" y="520" type="line"/>
      <point x="515" y="520" type="line" smooth="yes"/>
      <point x="150" y="520"/>
      <point x="150" y="760" type="qcurve" smooth="yes"/>
      <point x="150" y="880" type="line" smooth="yes"/>
      <point x="150" y="1200"/>
      <point x="650" y="1200" type="qcurve" smooth="yes"/>
      <point x="1150" y="1200"/>
      <point x="1150" y="880" type="qcurve" smooth="yes"/>
      <point x="1150" y="320" type="line" smooth="yes"/>
      <point x="1150" y="0"/>
      <point x="650" y="0" type="qcurve" smooth="yes"/>
      <point x="150" y="0"/>
      <point x="150" y="320" type="qcurve"/>
      <point x="438" y="320" type="line"/>
      <point x="438" y="188"/>
      <point x="650" y="188" type="qcurve" smooth="yes"/>
      <point x="862" y="188"/>
    </contour>
  </outline>
</glyph>
<glyph name="uni17E2" format="1">
  <advance width="1608"/>
  <unicode hex="17E2"/>
  <outline>
    <contour>
      <point x="1458" y="400" type="line" smooth="yes"/>
      <point x="1458" y="0"/>
      <point x="804" y="0" type="qcurve" smooth="yes"/>
      <point x="150" y="0"/>
      <point x="150" y="400" type="qcurve" smooth="yes"/>
      <point x="150" y="1300" type="line"/>
      <point x="50" y="1300" type="line"/>
      <point x="50" y="1450" type="line"/>
      <point x="150" y="1450" type="line" smooth="yes"/>
      <point x="438" y="1450"/>
      <point x="438" y="1300" type="qcurve" smooth="yes"/>
      <point x="438" y="400" type="line" smooth="yes"/>
      <point x="438" y="188"/>
      <point x="804" y="188" type="qcurve" smooth="yes"/>
      <point x="1170" y="188"/>
      <point x="1170" y="400" type="qcurve" smooth="yes"/>
      <point x="1170" y="982" type="line"/>
      <point x="1010" y="858" type="line"/>
      <point x="860" y="982" type="line"/>
      <point x="860" y="750" type="line"/>
      <point x="910" y="750" type="line"/>
      <point x="910" y="600" type="line"/>
      <point x="562" y="600" type="line"/>
      <point x="562" y="1200" type="line"/>
      <point x="860" y="1200" type="line"/>
      <point x="1010" y="1076" type="line"/>
      <point x="1170" y="1200" type="line"/>
      <point x="1458" y="1200" type="line"/>
    </contour>
  </outline>
</glyph>
<glyph name="uni17E3" format="1">
  <advance width="1764"/>
  <unicode hex="17E3"/>
  <outline>
    <contour>
      <point x="1026" y="0" type="line"/>
      <point x="738" y="0" type="line"/>
      <point x="738" y="840" type="line" smooth="yes"/>
      <point x="738" y="1012"/>
      <point x="588" y="1012" type="qcurve" smooth="yes"/>
      <point x="438" y="1012"/>
      <point x="438" y="840" type="qcurve" smooth="yes"/>
      <point x="438" y="138" type="line"/>
      <point x="538" y="138" type="line"/>
      <point x="538" y="0" type="line"/>
      <point x="150" y="0" type="line"/>
      <point x="150" y="850" type="line" smooth="yes"/>
      <point x="150" y="1200"/>
      <point x="588" y="1200" type="qcurve" smooth="yes"/>
      <point x="787" y="1200"/>
      <point x="881" y="1111" type="qcurve"/>
      <point x="975" y="1200"/>
      <point x="1176" y="1200" type="qcurve" smooth="yes"/>
      <point x="1614" y="1200"/>
      <point x="1614" y="840" type="qcurve" smooth="yes"/>
      <point x="1614" y="0" type="line"/>
      <point x="1326" y="0" type="line"/>
      <point x="1326" y="840" type="line" smooth="yes"/>
      <point x="1326" y="1012"/>
      <point x="1176" y="1012" type="qcurve" smooth="yes"/>
      <point x="1026" y="1012"/>
      <point x="1026" y="840" type="qcurve" smooth="yes"/>
    </contour>
  </outline>
</glyph>
<glyph name="uni17E4" format="1">
  <advance width="1300"/>
  <unicode hex="17E4"/>
  <outline>
    <contour>
      <point x="650" y="188" type="qcurve" smooth="yes"/>
      <point x="920" y="188" type="line"/>
      <point x="700" y="448" type="line"/>
      <point x="700" y="800" type="line" smooth="yes"/>
      <point x="700" y="875"/>
      <point x="850" y="938"/>
      <point x="1000" y="938" type="qcurve" smooth="yes"/>
      <point x="1150" y="938" type="line"/>
      <point x="1150" y="750" type="line"/>
      <point x="988" y="750" type="line"/>
      <point x="988" y="498" type="line"/>
      <point x="1150" y="138" type="line"/>
      <point x="1100" y="0" type="line"/>
      <point x="650" y="0" type="line" smooth="yes"/>
      <point x="150" y="0"/>
      <point x="150" y="400" type="qcurve" smooth="yes"/>
      <point x="150" y="1300" type="line"/>
      <point x="50" y="1300" type="line"/>
      <point x="50" y="1460" type="line"/>
      <point x="150" y="1460" type="line" smooth="yes"/>
      <point x="438" y="1460"/>
      <point x="438" y="1310" type="qcurve" smooth="yes"/>
      <point x="438" y="400" type="line" smooth="yes"/>
      <point x="438" y="188"/>
    </contour>
  </outline>
</glyph>
<glyph name="uni17E5" format="1">
  <advance width="1300"/>
  <unicode hex="17E5"/>
  <outline>
    <contour>
      <point x="438" y="330" type="line" smooth="yes"/>
      <point x="438" y="188"/>
      <point x="650" y="188" type="qcurve" smooth="yes"/>
      <point x="900" y="188" type="line"/>
      <point x="700" y="368" type="line"/>
      <point x="700" y="600" type="line" smooth="yes"/>
      <point x="700" y="800"/>
      <point x="888" y="800" type="qcurve" smooth="yes"/>
      <point x="1150" y="800" type="line"/>
      <point x="1150" y="612" type="line"/>
      <point x="988" y="612" type="line"/>
      <point x="988" y="398" type="line"/>
      <point x="1150" y="138" type="line"/>
      <point x="1098" y="0" type="line"/>
      <point x="650" y="0" type="line" smooth="yes"/>
      <point x="150" y="0"/>
      <point x="150" y="330" type="qcurve" smooth="yes"/>
      <point x="150" y="890" type="line" smooth="yes"/>
      <point x="150" y="1037"/>
      <point x="275" y="1090" type="qcurve" smooth="yes"/>
      <point x="297" y="1100"/>
      <point x="318" y="1107" type="qcurve"/>
      <point x="250" y="1164"/>
      <point x="250" y="1226" type="qcurve" smooth="yes"/>
      <point x="250" y="1370"/>
      <point x="480" y="1370" type="qcurve" smooth="yes"/>
      <point x="670" y="1370"/>
      <point x="670" y="1226" type="qcurve" smooth="yes"/>
      <point x="670" y="1174"/>
      <point x="595" y="1123" type="qcurve"/>
      <point x="696" y="1113"/>
      <point x="770" y="1113" type="qcurve" smooth="yes"/>
      <point x="862" y="1113"/>
      <point x="862" y="1209" type="qcurve" smooth="yes"/>
      <point x="862" y="1570" type="line"/>
      <point x="1150" y="1570" type="line"/>
      <point x="1150" y="1209" type="line" smooth="yes"/>
      <point x="1150" y="925"/>
      <point x="770" y="925" type="qcurve" smooth="yes"/>
      <point x="614" y="925"/>
      <point x="472" y="984" type="qcurve"/>
      <point x="438" y="939"/>
      <point x="438" y="890" type="qcurve" smooth="yes"/>
    </contour>
  </outline>
</glyph>
<glyph name="uni17E6" format="1">
  <advance width="1300"/>
  <unicode hex="17E6"/>
  <outline>
    <contour>
      <point x="150" y="1550" type="line"/>
      <point x="438" y="1550" type="line"/>
      <point x="438" y="1146" type="line"/>
      <point x="516" y="1200"/>
      <point x="650" y="1200" type="qcurve" smooth="yes"/>
      <point x="1150" y="1200"/>
      <point x="1150" y="800" type="qcurve" smooth="yes"/>
      <point x="1150" y="400" type="line" smooth="yes"/>
      <point x="1150" y="0"/>
      <point x="650" y="0" type="qcurve" smooth="yes"/>
      <point x="150" y="0"/>
      <point x="150" y="350" type="qcurve" smooth="yes"/>
      <point x="150" y="700"/>
      <point x="550" y="700" type="qcurve" smooth="yes"/>
      <point x="700" y="700" type="line"/>
      <point x="700" y="562" type="line"/>
      <point x="550" y="562" type="line" smooth="yes"/>
      <point x="438" y="562"/>
      <point x="438" y="350" type="qcurve" smooth="yes"/>
      <point x="438" y="188"/>
      <point x="650" y="188" type="qcurve" smooth="yes"/>
      <point x="862" y="188"/>
      <point x="862" y="400" type="qcurve" smooth="yes"/>
      <point x="862" y="800" type="line" smooth="yes"/>
      <point x="862" y="1012"/>
      <point x="650" y="1012" type="qcurve" smooth="yes"/>
      <point x="438" y="1012"/>
      <point x="438" y="860" type="qcurve"/>
      <point x="150" y="860" type="line"/>
    </contour>
  </outline>
</glyph>
<glyph name="uni17E7" format="1">
  <advance width="1650"/>
  <unicode hex="17E7"/>
  <outline>
    <contour>
      <point x="1100" y="188" type="line"/>
      <point x="1212" y="188" type="line"/>
      <point x="1212" y="1500" type="line"/>
      <point x="1500" y="1500" type="line"/>
      <point x="1500" y="188" type="line" smooth="yes"/>
      <point x="1500" y="0"/>
      <point x="1156" y="0" type="qcurve" smooth="yes"/>
      <point x="812" y="0"/>
      <point x="812" y="188" type="qcurve" smooth="yes"/>
      <point x="812" y="873" type="line" smooth="yes"/>
      <point x="812" y="1000"/>
      <point x="785" y="1000" type="qcurve" smooth="yes"/>
      <point x="758" y="1000"/>
      <point x="681" y="906" type="qcurve" smooth="yes"/>
      <point x="655" y="875"/>
      <point x="625" y="875" type="qcurve" smooth="yes"/>
      <point x="595" y="875"/>
      <point x="569" y="906" type="qcurve" smooth="yes"/>
      <point x="493" y="1000"/>
      <point x="466" y="1000" type="qcurve" smooth="yes"/>
      <point x="438" y="1000"/>
      <point x="438" y="873" type="qcurve" smooth="yes"/>
      <point x="438" y="188" type="line"/>
      <point x="550" y="188" type="line"/>
      <point x="550" y="0" type="line"/>
      <point x="150" y="0" type="line"/>
      <point x="150" y="923" type="line" smooth="yes"/>
      <point x="150" y="1200"/>
      <point x="431" y="1200" type="qcurve" smooth="yes"/>
      <point x="520" y="1200"/>
      <point x="625" y="1076" type="qcurve"/>
      <point x="731" y="1200"/>
      <point x="821" y="1200" type="qcurve" smooth="yes"/>
      <point x="1100" y="1200"/>
      <point x="1100" y="923" type="qcurve" smooth="yes"/>
    </contour>
  </outline>
</glyph>
<glyph name="uni17E8" format="1">
  <advance width="1300"/>
  <unicode hex="17E8"/>
  <outline>
    <contour>
      <point x="150" y="880" type="line" smooth="yes"/>
      <point x="150" y="1200"/>
      <point x="590" y="1200" type="qcurve" smooth="yes"/>
      <point x="754" y="1200"/>
      <point x="862" y="1146" type="qcurve"/>
      <point x="862" y="1550" type="line"/>
      <point x="1150" y="1550" type="line"/>
      <point x="1150" y="880" type="line"/>
      <point x="862" y="880" type="line"/>
      <point x="862" y="1012"/>
      <point x="650" y="1012" type="qcurve" smooth="yes"/>
      <point x="438" y="1012"/>
      <point x="438" y="880" type="qcurve" smooth="yes"/>
      <point x="438" y="261" type="line"/>
      <point x="651" y="455" type="line"/>
      <point x="862" y="263" type="line"/>
      <point x="862" y="520" type="line" smooth="yes"/>
      <point x="862" y="600"/>
      <point x="810" y="600" type="qcurve" smooth="yes"/>
      <point x="680" y="600" type="line"/>
      <point x="680" y="750" type="line"/>
      <point x="910" y="750" type="line" smooth="yes"/>
      <point x="1150" y="750"/>
      <point x="1150" y="520" type="qcurve" smooth="yes"/>
      <point x="1150" y="0" type="line"/>
      <point x="882" y="0" type="line"/>
      <point x="651" y="210" type="line"/>
      <point x="419" y="0" type="line"/>
      <point x="150" y="0" type="line"/>
    </contour>
  </outline>
</glyph>
<glyph name="uni17E9" format="1">
  <advance width="1300"/>
  <unicode hex="17E9"/>
  <outline>
    <contour>
      <point x="862" y="1510" type="line"/>
      <point x="1150" y="1510" type="line"/>
      <point x="1150" y="942" type="line"/>
      <point x="862" y="942" type="line"/>
      <point x="862" y="1012"/>
      <point x="650" y="1012" type="qcurve" smooth="yes"/>
      <point x="438" y="1012"/>
      <point x="438" y="902" type="qcurve" smooth="yes"/>
      <point x="438" y="780"/>
      <point x="650" y="780" type="qcurve" smooth="yes"/>
      <point x="950" y="780" type="line"/>
      <point x="950" y="642" type="line"/>
      <point x="650" y="642" type="line" smooth="yes"/>
      <point x="438" y="642"/>
      <point x="438" y="526" type="qcurve" smooth="yes"/>
      <point x="438" y="300" type="line" smooth="yes"/>
      <point x="438" y="188"/>
      <point x="650" y="188" type="qcurve" smooth="yes"/>
      <point x="862" y="188"/>
      <point x="862" y="298" type="qcurve" smooth="yes"/>
      <point x="862" y="398"/>
      <point x="750" y="398" type="qcurve" smooth="yes"/>
      <point x="650" y="398" type="line"/>
      <point x="650" y="526" type="line"/>
      <point x="750" y="526" type="line" smooth="yes"/>
      <point x="1150" y="526"/>
      <point x="1150" y="293" type="qcurve" smooth="yes"/>
      <point x="1150" y="0"/>
      <point x="650" y="0" type="qcurve" smooth="yes"/>
      <point x="150" y="0"/>
      <point x="150" y="300" type="qcurve" smooth="yes"/>
      <point x="150" y="526" type="line"/>
      <point x="189" y="672"/>
      <point x="338" y="715" type="qcurve"/>
      <point x="189" y="759"/>
      <point x="150" y="902" type="qcurve"/>
      <point x="150" y="1200"/>
      <point x="600" y="1200" type="qcurve" smooth="yes"/>
      <point x="784" y="1200"/>
      <point x="862" y="1162" type="qcurve"/>
    </contour>
  </outline>
</glyph>
<glyph name="uni19E0" format="1">
  <advance width="1300"/>
  <unicode hex="19E0"/>
  <outline>
    <contour>
      <point x="650" y="988" type="qcurve" smooth="yes"/>
      <point x="862" y="988"/>
      <point x="862" y="1180" type="qcurve" smooth="yes"/>
      <point x="862" y="1620" type="line" smooth="yes"/>
      <point x="862" y="1812"/>
      <point x="650" y="1812" type="qcurve" smooth="yes"/>
      <point x="438" y="1812"/>
      <point x="438" y="1620" type="qcurve" smooth="yes"/>
      <point x="438" y="1180" type="line" smooth="yes"/>
      <point x="438" y="988"/>
    </contour>
    <contour>
      <point x="862" y="822" type="line"/>
      <point x="771" y="800"/>
      <point x="650" y="800" type="qcurve" smooth="yes"/>
      <point x="150" y="800"/>
      <point x="150" y="1180" type="qcurve" smooth="yes"/>
      <point x="150" y="1620" type="line" smooth="yes"/>
      <point x="150" y="2000"/>
      <point x="650" y="2000" type="qcurve" smooth="yes"/>
      <point x="1150" y="2000"/>
      <point x="1150" y="1620" type="qcurve" smooth="yes"/>
      <point x="1150" y="1180" type="line" smooth="yes"/>
      <point x="1150" y="1047"/>
      <point x="1088" y="960" type="qcurve"/>
      <point x="1150" y="960" type="line"/>
      <point x="1150" y="290" type="line"/>
      <point x="862" y="290" type="line"/>
      <point x="862" y="422"/>
      <point x="650" y="422" type="qcurve" smooth="yes"/>
      <point x="438" y="422"/>
      <point x="438" y="290" type="qcurve" smooth="yes"/>
      <point x="438" y="-329" type="line"/>
      <point x="651" y="-135" type="line"/>
      <point x="862" y="-327" type="line"/>
      <point x="862" y="-70" type="line" smooth="yes"/>
      <point x="862" y="10"/>
      <point x="810" y="10" type="qcurve" smooth="yes"/>
      <point x="680" y="10" type="line"/>
      <point x="680" y="160" type="line"/>
      <point x="910" y="160" type="line" smooth="yes"/>
      <point x="1150" y="160"/>
      <point x="1150" y="-70" type="qcurve" smooth="yes"/>
      <point x="1150" y="-590" type="line"/>
      <point x="882" y="-590" type="line"/>
      <point x="651" y="-380" type="line"/>
      <point x="419" y="-590" type="line"/>
      <point x="150" y="-590" type="line"/>
      <point x="150" y="290" type="line" smooth="yes"/>
      <point x="150" y="610"/>
      <point x="590" y="610" type="qcurve" smooth="yes"/>
      <point x="754" y="610"/>
      <point x="862" y="556" type="qcurve"/>
    </contour>
  </outline>
</glyph>
<glyph name="uni19E1" format="1">
  <advance width="1300"/>
  <unicode hex="19E1"/>
  <outline>
    <contour>
      <point x="438" y="430" type="qcurve" smooth="yes"/>
      <point x="438" y="378"/>
      <point x="516" y="378" type="qcurve" smooth="yes"/>
      <point x="643" y="378"/>
      <point x="703" y="494" type="qcurve" smooth="yes"/>
      <point x="762" y="610" type="line"/>
      <point x="1050" y="610" type="line"/>
      <point x="1050" y="-590" type="line"/>
      <point x="762" y="-590" type="line"/>
      <point x="762" y="306" type="line"/>
      <point x="653" y="190"/>
      <point x="416" y="190" type="qcurve" smooth="yes"/>
      <point x="150" y="190"/>
      <point x="150" y="430" type="qcurve" smooth="yes"/>
      <point x="150" y="610"/>
      <point x="401" y="610" type="qcurve" smooth="yes"/>
      <point x="492" y="610" type="line"/>
      <point x="492" y="472" type="line"/>
      <point x="438" y="472"/>
    </contour>
    <contour>
      <point x="862" y="1120" type="qcurve" smooth="yes"/>
      <point x="862" y="1680" type="line" smooth="yes"/>
      <point x="862" y="1812"/>
      <point x="650" y="1812" type="qcurve" smooth="yes"/>
      <point x="438" y="1812"/>
      <point x="438" y="1680" type="qcurve" smooth="yes"/>
      <point x="438" y="1560" type="line" smooth="yes"/>
      <point x="438" y="1480"/>
      <point x="515" y="1480" type="qcurve" smooth="yes"/>
      <point x="650" y="1480" type="line"/>
      <point x="650" y="1320" type="line"/>
      <point x="515" y="1320" type="line" smooth="yes"/>
      <point x="150" y="1320"/>
      <point x="150" y="1560" type="qcurve" smooth="yes"/>
      <point x="150" y="1680" type="line" smooth="yes"/>
      <point x="150" y="2000"/>
      <point x="650" y="2000" type="qcurve" smooth="yes"/>
      <point x="1150" y="2000"/>
      <point x="1150" y="1680" type="qcurve" smooth="yes"/>
      <point x="1150" y="1120" type="line" smooth="yes"/>
      <point x="1150" y="800"/>
      <point x="650" y="800" type="qcurve" smooth="yes"/>
      <point x="150" y="800"/>
      <point x="150" y="1120" type="qcurve"/>
      <point x="438" y="1120" type="line"/>
      <point x="438" y="988"/>
      <point x="650" y="988" type="qcurve" smooth="yes"/>
      <point x="862" y="988"/>
    </contour>
  </outline>
</glyph>
<glyph name="uni19E2" format="1">
  <advance width="1608"/>
  <unicode hex="19E2"/>
  <outline>
    <contour>
      <point x="438" y="430" type="qcurve" smooth="yes"/>
      <point x="438" y="378"/>
      <point x="516" y="378" type="qcurve" smooth="yes"/>
      <point x="643" y="378"/>
      <point x="703" y="494" type="qcurve" smooth="yes"/>
      <point x="762" y="610" type="line"/>
      <point x="1050" y="610" type="line"/>
      <point x="1050" y="-590" type="line"/>
      <point x="762" y="-590" type="line"/>
      <point x="762" y="306" type="line"/>
      <point x="653" y="190"/>
      <point x="416" y="190" type="qcurve" smooth="yes"/>
      <point x="150" y="190"/>
      <point x="150" y="430" type="qcurve" smooth="yes"/>
      <point x="150" y="610"/>
      <point x="401" y="610" type="qcurve" smooth="yes"/>
      <point x="492" y="610" type="line"/>
      <point x="492" y="472" type="line"/>
      <point x="438" y="472"/>
    </contour>
    <contour>
      <point x="1458" y="1200" type="line" smooth="yes"/>
      <point x="1458" y="800"/>
      <point x="804" y="800" type="qcurve" smooth="yes"/>
      <point x="150" y="800"/>
      <point x="150" y="1200" type="qcurve" smooth="yes"/>
      <point x="150" y="2100" type="line"/>
      <point x="50" y="2100" type="line"/>
      <point x="50" y="2250" type="line"/>
      <point x="150" y="2250" type="line" smooth="yes"/>
      <point x="438" y="2250"/>
      <point x="438" y="2100" type="qcurve" smooth="yes"/>
      <point x="438" y="1200" type="line" smooth="yes"/>
      <point x="438" y="988"/>
      <point x="804" y="988" type="qcurve" smooth="yes"/>
      <point x="1170" y="988"/>
      <point x="1170" y="1200" type="qcurve" smooth="yes"/>
      <point x="1170" y="1782" type="line"/>
      <point x="1010" y="1658" type="line"/>
      <point x="860" y="1782" type="line"/>
      <point x="860" y="1550" type="line"/>
      <point x="910" y="1550" type="line"/>
      <point x="910" y="1400" type="line"/>
      <point x="562" y="1400" type="line"/>
      <point x="562" y="2000" type="line"/>
      <point x="860" y="2000" type="line"/>
      <point x="1010" y="1876" type="line"/>
      <point x="1170" y="2000" type="line"/>
      <point x="1458" y="2000" type="line"/>
    </contour>
  </outline>
</glyph>
<glyph name="uni19E3" format="1">
  <advance width="1764"/>
  <unicode hex="19E3"/>
  <outline>
    <contour>
      <point x="438" y="430" type="qcurve" smooth="yes"/>
      <point x="438" y="378"/>
      <point x="516" y="378" type="qcurve" smooth="yes"/>
      <point x="643" y="378"/>
      <point x="703" y="494" type="qcurve" smooth="yes"/>
      <point x="762" y="610" type="line"/>
      <point x="1050" y="610" type="line"/>
      <point x="1050" y="-590" type="line"/>
      <point x="762" y="-590" type="line"/>
      <point x="762" y="306" type="line"/>
      <point x="653" y="190"/>
      <point x="416" y="190" type="qcurve" smooth="yes"/>
      <point x="150" y="190"/>
      <point x="150" y="430" type="qcurve" smooth="yes"/>
      <point x="150" y="610"/>
      <point x="401" y="610" type="qcurve" smooth="yes"/>
      <point x="492" y="610" type="line"/>
      <point x="492" y="472" type="line"/>
      <point x="438" y="472"/>
    </contour>
    <contour>
      <point x="1026" y="800" type="line"/>
      <point x="738" y="800" type="line"/>
      <point x="738" y="1640" type="line" smooth="yes"/>
      <point x="738" y="1812"/>
      <point x="588" y="1812" type="qcurve" smooth="yes"/>
      <point x="438" y="1812"/>
      <point x="438" y="1640" type="qcurve" smooth="yes"/>
      <point x="438" y="938" type="line"/>
      <point x="538" y="938" type="line"/>
      <point x="538" y="800" type="line"/>
      <point x="150" y="800" type="line"/>
      <point x="150" y="1650" type="line" smooth="yes"/>
      <point x="150" y="2000"/>
      <point x="588" y="2000" type="qcurve" smooth="yes"/>
      <point x="787" y="2000"/>
      <point x="881" y="1911" type="qcurve"/>
      <point x="975" y="2000"/>
      <point x="1176" y="2000" type="qcurve" smooth="yes"/>
      <point x="1614" y="2000"/>
      <point x="1614" y="1640" type="qcurve" smooth="yes"/>
      <point x="1614" y="800" type="line"/>
      <point x="1326" y="800" type="line"/>
      <point x="1326" y="1640" type="line" smooth="yes"/>
      <point x="1326" y="1812"/>
      <point x="1176" y="1812" type="qcurve" smooth="yes"/>
      <point x="1026" y="1812"/>
      <point x="1026" y="1640" type="qcurve" smooth="yes"/>
    </contour>
  </outline>
</glyph>
<glyph name="uni19E4" format="1">
  <advance width="1300"/>
  <unicode hex="19E4"/>
  <outline>
    <contour>
      <point x="438" y="430" type="qcurve" smooth="yes"/>
      <point x="438" y="378"/>
      <point x="516" y="378" type="qcurve" smooth="yes"/>
      <point x="643" y="378"/>
      <point x="703" y="494" type="qcurve" smooth="yes"/>
      <point x="762" y="610" type="line"/>
      <point x="1050" y="610" type="line"/>
      <point x="1050" y="-590" type="line"/>
      <point x="762" y="-590" type="line"/>
      <point x="762" y="306" type="line"/>
      <point x="653" y="190"/>
      <point x="416" y="190" type="qcurve" smooth="yes"/>
      <point x="150" y="190"/>
      <point x="150" y="430" type="qcurve" smooth="yes"/>
      <point x="150" y="610"/>
      <point x="401" y="610" type="qcurve" smooth="yes"/>
      <point x="492" y="610" type="line"/>
      <point x="492" y="472" type="line"/>
      <point x="438" y="472"/>
    </contour>
    <contour>
      <point x="650" y="988" type="qcurve" smooth="yes"/>
      <point x="920" y="988" type="line"/>
      <point x="700" y="1248" type="line"/>
      <point x="700" y="1600" type="line" smooth="yes"/>
      <point x="700" y="1675"/>
      <point x="850" y="1738"/>
      <point x="1000" y="1738" type="qcurve" smooth="yes"/>
      <point x="1150" y="1738" type="line"/>
      <point x="1150" y="1550" type="line"/>
      <point x="988" y="1550" type="line"/>
      <point x="988" y="1298" type="line"/>
      <point x="1150" y="938" type="line"/>
      <point x="1100" y="800" type="line"/>
      <point x="650" y="800" type="line" smooth="yes"/>
      <point x="150" y="800"/>
      <point x="150" y="1200" type="qcurve" smooth="yes"/>
      <point x="150" y="2100" type="line"/>
      <point x="50" y="2100" type="line"/>
      <point x="50" y="2260" type="line"/>
      <point x="150" y="2260" type="line" smooth="yes"/>
      <point x="438" y="2260"/>
      <point x="438" y="2110" type="qcurve" smooth="yes"/>
      <point x="438" y="1200" type="line" smooth="yes"/>
      <point x="438" y="988"/>
    </contour>
  </outline>
</glyph>
<glyph name="uni19E5" format="1">
  <advance width="1300"/>
  <unicode hex="19E5"/>
  <outline>
    <contour>
      <point x="438" y="430" type="qcurve" smooth="yes"/>
      <point x="438" y="378"/>
      <point x="516" y="378" type="qcurve" smooth="yes"/>
      <point x="643" y="378"/>
      <point x="703" y="494" type="qcurve" smooth="yes"/>
      <point x="762" y="610" type="line"/>
      <point x="1050" y="610" type="line"/>
      <point x="1050" y="-590" type="line"/>
      <point x="762" y="-590" type="line"/>
      <point x="762" y="306" type="line"/>
      <point x="653" y="190"/>
      <point x="416" y="190" type="qcurve" smooth="yes"/>
      <point x="150" y="190"/>
      <point x="150" y="430" type="qcurve" smooth="yes"/>
      <point x="150" y="610"/>
      <point x="401" y="610" type="qcurve" smooth="yes"/>
      <point x="492" y="610" type="line"/>
      <point x="492" y="472" type="line"/>
      <point x="438" y="472"/>
    </contour>
    <contour>
      <point x="438" y="1130" type="line" smooth="yes"/>
      <point x="438" y="988"/>
      <point x="650" y="988" type="qcurve" smooth="yes"/>
      <point x="900" y="988" type="line"/>
      <point x="700" y="1168" type="line"/>
      <point x="700" y="1400" type="line" smooth="yes"/>
      <point x="700" y="1600"/>
      <point x="888" y="1600" type="qcurve" smooth="yes"/>
      <point x="1150" y="1600" type="line"/>
      <point x="1150" y="1412" type="line"/>
      <point x="988" y="1412" type="line"/>
      <point x="988" y="1198" type="line"/>
      <point x="1150" y="938" type="line"/>
      <point x="1098" y="800" type="line"/>
      <point x="650" y="800" type="line" smooth="yes"/>
      <point x="150" y="800"/>
      <point x="150" y="1130" type="qcurve" smooth="yes"/>
      <point x="150" y="1690" type="line" smooth="yes"/>
      <point x="150" y="1837"/>
      <point x="275" y="1890" type="qcurve" smooth="yes"/>
      <point x="297" y="1900"/>
      <point x="318" y="1907" type="qcurve"/>
      <point x="250" y="1964"/>
      <point x="250" y="2026" type="qcurve" smooth="yes"/>
      <point x="250" y="2170"/>
      <point x="480" y="2170" type="qcurve" smooth="yes"/>
      <point x="670" y="2170"/>
      <point x="670" y="2026" type="qcurve" smooth="yes"/>
      <point x="670" y="1974"/>
      <point x="595" y="1923" type="qcurve"/>
      <point x="696" y="1913"/>
      <point x="770" y="1913" type="qcurve" smooth="yes"/>
      <point x="862" y="1913"/>
      <point x="862" y="2009" type="qcurve" smooth="yes"/>
      <point x="862" y="2370" type="line"/>
      <point x="1150" y="2370" type="line"/>
      <point x="1150" y="2009" type="line" smooth="yes"/>
      <point x="1150" y="1725"/>
      <point x="770" y="1725" type="qcurve" smooth="yes"/>
      <point x="614" y="1725"/>
      <point x="472" y="1784" type="qcurve"/>
      <point x="438" y="1739"/>
      <point x="438" y="1690" type="qcurve" smooth="yes"/>
    </contour>
  </outline>
</glyph>
<glyph name="uni19E7" format="1">
  <advance width="1650"/>
  <unicode hex="19E7"/>
  <outline>
    <contour>
      <point x="438" y="430" type="qcurve" smooth="yes"/>
      <point x="438" y="378"/>
      <point x="516" y="378" type="qcurve" smooth="yes"/>
      <point x="643" y="378"/>
      <point x="703" y="494" type="qcurve" smooth="yes"/>
      <point x="762" y="610" type="line"/>
      <point x="1050" y="610" type="line"/>
      <point x="1050" y="-590" type="line"/>
      <point x="762" y="-590" type="line"/>
      <point x="762" y="306" type="line"/>
      <point x="653" y="190"/>
      <point x="416" y="190" type="qcurve" smooth="yes"/>
      <point x="150" y="190"/>
      <point x="150" y="430" type="qcurve" smooth="yes"/>
      <point x="150" y="610"/>
      <point x="401" y="610" type="qcurve" smooth="yes"/>
      <point x="492" y="610" type="line"/>
      <point x="492" y="472" type="line"/>
      <point x="438" y="472"/>
    </contour>
    <contour>
      <point x="1100" y="988" type="line"/>
      <point x="1212" y="988" type="line"/>
      <point x="1212" y="2300" type="line"/>
      <point x="1500" y="2300" type="line"/>
      <point x="1500" y="988" type="line" smooth="yes"/>
      <point x="1500" y="800"/>
      <point x="1156" y="800" type="qcurve" smooth="yes"/>
      <point x="812" y="800"/>
      <point x="812" y="988" type="qcurve" smooth="yes"/>
      <point x="812" y="1673" type="line" smooth="yes"/>
      <point x="812" y="1800"/>
      <point x="785" y="1800" type="qcurve" smooth="yes"/>
      <point x="758" y="1800"/>
      <point x="681" y="1706" type="qcurve" smooth="yes"/>
      <point x="655" y="1675"/>
      <point x="625" y="1675" type="qcurve" smooth="yes"/>
      <point x="595" y="1675"/>
      <point x="569" y="1706" type="qcurve" smooth="yes"/>
      <point x="493" y="1800"/>
      <point x="466" y="1800" type="qcurve" smooth="yes"/>
      <point x="438" y="1800"/>
      <point x="438" y="1673" type="qcurve" smooth="yes"/>
      <point x="438" y="988" type="line"/>
      <point x="550" y="988" type="line"/>
      <point x="550" y="800" type="line"/>
      <point x="150" y="800" type="line"/>
      <point x="150" y="1723" type="line" smooth="yes"/>
      <point x="150" y="2000"/>
      <point x="431" y="2000" type="qcurve" smooth="yes"/>
      <point x="520" y="2000"/>
      <point x="625" y="1876" type="qcurve"/>
      <point x="731" y="2000"/>
      <point x="821" y="2000" type="qcurve" smooth="yes"/>
      <point x="1100" y="2000"/>
      <point x="1100" y="1723" type="qcurve" smooth="yes"/>
    </contour>
  </outline>
</glyph>
<glyph name="uni19E8" format="1">
  <advance width="1300"/>
  <unicode hex="19E8"/>
  <outline>
    <contour>
      <point x="438" y="430" type="qcurve" smooth="yes"/>
      <point x="438" y="378"/>
      <point x="516" y="378" type="qcurve" smooth="yes"/>
      <point x="643" y="378"/>
      <point x="703" y="494" type="qcurve" smooth="yes"/>
      <point x="762" y="610" type="line"/>
      <point x="1050" y="610" type="line"/>
      <point x="1050" y="-590" type="line"/>
      <point x="762" y="-590" type="line"/>
      <point x="762" y="306" type="line"/>
      <point x="653" y="190"/>
      <point x="416" y="190" type="qcurve" smooth="yes"/>
      <point x="150" y="190"/>
      <point x="150" y="430" type="qcurve" smooth="yes"/>
      <point x="150" y="610"/>
      <point x="401" y="610" type="qcurve" smooth="yes"/>
      <point x="492" y="610" type="line"/>
      <point x="492" y="472" type="line"/>
      <point x="438" y="472"/>
    </contour>
    <contour>
      <point x="150" y="1680" type="line" smooth="yes"/>
      <point x="150" y="2000"/>
      <point x="590" y="2000" type="qcurve" smooth="yes"/>
      <point x="754" y="2000"/>
      <point x="862" y="1946" type="qcurve"/>
      <point x="862" y="2350" type="line"/>
      <point x="1150" y="2350" type="line"/>
      <point x="1150" y="1680" type="line"/>
      <point x="862" y="1680" type="line"/>
      <point x="862" y="1812"/>
      <point x="650" y="1812" type="qcurve" smooth="yes"/>
      <point x="438" y="1812"/>
      <point x="438" y="1680" type="qcurve" smooth="yes"/>
      <point x="438" y="1061" type="line"/>
      <point x="651" y="1255" type="line"/>
      <point x="862" y="1063" type="line"/>
      <point x="862" y="1320" type="line" smooth="yes"/>
      <point x="862" y="1400"/>
      <point x="810" y="1400" type="qcurve" smooth="yes"/>
      <point x="680" y="1400" type="line"/>
      <point x="680" y="1550" type="line"/>
      <point x="910" y="1550" type="line" smooth="yes"/>
      <point x="1150" y="1550"/>
      <point x="1150" y="1320" type="qcurve" smooth="yes"/>
      <point x="1150" y="800" type="line"/>
      <point x="882" y="800" type="line"/>
      <point x="651" y="1010" type="line"/>
      <point x="419" y="800" type="line"/>
      <point x="150" y="800" type="line"/>
    </contour>
  </outline>
</glyph>
<glyph name="uni19E9" format="1">
  <advance width="1300"/>
  <unicode hex="19E9"/>
  <outline>
    <contour>
      <point x="438" y="430" type="qcurve" smooth="yes"/>
      <point x="438" y="378"/>
      <point x="516" y="378" type="qcurve" smooth="yes"/>
      <point x="643" y="378"/>
      <point x="703" y="494" type="qcurve" smooth="yes"/>
      <point x="762" y="610" type="line"/>
      <point x="1050" y="610" type="line"/>
      <point x="1050" y="-590" type="line"/>
      <point x="762" y="-590" type="line"/>
      <point x="762" y="306" type="line"/>
      <point x="653" y="190"/>
      <point x="416" y="190" type="qcurve" smooth="yes"/>
      <point x="150" y="190"/>
      <point x="150" y="430" type="qcurve" smooth="yes"/>
      <point x="150" y="610"/>
      <point x="401" y="610" type="qcurve" smooth="yes"/>
      <point x="492" y="610" type="line"/>
      <point x="492" y="472" type="line"/>
      <point x="438" y="472"/>
    </contour>
    <contour>
      <point x="862" y="2310" type="line"/>
      <point x="1150" y="2310" type="line"/>
      <point x="1150" y="1742" type="line"/>
      <point x="862" y="1742" type="line"/>
      <point x="862" y="1812"/>
      <point x="650" y="1812" type="qcurve" smooth="yes"/>
      <point x="438" y="1812"/>
      <point x="438" y="1702" type="qcurve" smooth="yes"/>
      <point x="438" y="1580"/>
      <point x="650" y="1580" type="qcurve" smooth="yes"/>
      <point x="950" y="1580" type="line"/>
      <point x="950" y="1442" type="line"/>
      <point x="650" y="1442" type="line" smooth="yes"/>
      <point x="438" y="1442"/>
      <point x="438" y="1326" type="qcurve" smooth="yes"/>
      <point x="438" y="1100" type="line" smooth="yes"/>
      <point x="438" y="988"/>
      <point x="650" y="988" type="qcurve" smooth="yes"/>
      <point x="862" y="988"/>
      <point x="862" y="1098" type="qcurve" smooth="yes"/>
      <point x="862" y="1198"/>
      <point x="750" y="1198" type="qcurve" smooth="yes"/>
      <point x="650" y="1198" type="line"/>
      <point x="650" y="1326" type="line"/>
      <point x="750" y="1326" type="line" smooth="yes"/>
      <point x="1150" y="1326"/>
      <point x="1150" y="1093" type="qcurve" smooth="yes"/>
      <point x="1150" y="800"/>
      <point x="650" y="800" type="qcurve" smooth="yes"/>
      <point x="150" y="800"/>
      <point x="150" y="1100" type="qcurve" smooth="yes"/>
      <point x="150" y="1326" type="line"/>
      <point x="189" y="1472"/>
      <point x="338" y="1515" type="qcurve"/>
      <point x="189" y="1559"/>
      <point x="150" y="1702" type="qcurve"/>
      <point x="150" y="2000"/>
      <point x="600" y="2000" type="qcurve" smooth="yes"/>
      <point x="784" y="2000"/>
      <point x="862" y="1962" type="qcurve"/>
    </contour>
  </outline>
</glyph>
<glyph name="uni19EC" format="1">
  <advance width="2908"/>
  <unicode hex="19EC"/>
  <outline>
    <contour>
      <point x="862" y="1120" type="qcurve" smooth="yes"/>
      <point x="862" y="1680" type="line" smooth="yes"/>
      <point x="862" y="1812"/>
      <point x="650" y="1812" type="qcurve" smooth="yes"/>
      <point x="438" y="1812"/>
      <point x="438" y="1680" type="qcurve" smooth="yes"/>
      <point x="438" y="1560" type="line" smooth="yes"/>
      <point x="438" y="1480"/>
      <point x="515" y="1480" type="qcurve" smooth="yes"/>
      <point x="650" y="1480" type="line"/>
      <point x="650" y="1320" type="line"/>
      <point x="515" y="1320" type="line" smooth="yes"/>
      <point x="150" y="1320"/>
      <point x="150" y="1560" type="qcurve" smooth="yes"/>
      <point x="150" y="1680" type="line" smooth="yes"/>
      <point x="150" y="2000"/>
      <point x="650" y="2000" type="qcurve" smooth="yes"/>
      <point x="1150" y="2000"/>
      <point x="1150" y="1680" type="qcurve" smooth="yes"/>
      <point x="1150" y="1120" type="line" smooth="yes"/>
      <point x="1150" y="800"/>
      <point x="650" y="800" type="qcurve" smooth="yes"/>
      <point x="150" y="800"/>
      <point x="150" y="1120" type="qcurve"/>
      <point x="438" y="1120" type="line"/>
      <point x="438" y="988"/>
      <point x="650" y="988" type="qcurve" smooth="yes"/>
      <point x="862" y="988"/>
    </contour>
    <contour>
      <point x="2758" y="1200" type="line" smooth="yes"/>
      <point x="2758" y="800"/>
      <point x="2104" y="800" type="qcurve" smooth="yes"/>
      <point x="1450" y="800"/>
      <point x="1450" y="1200" type="qcurve" smooth="yes"/>
      <point x="1450" y="2100" type="line"/>
      <point x="1350" y="2100" type="line"/>
      <point x="1350" y="2250" type="line"/>
      <point x="1450" y="2250" type="line" smooth="yes"/>
      <point x="1738" y="2250"/>
      <point x="1738" y="2100" type="qcurve" smooth="yes"/>
      <point x="1738" y="1200" type="line" smooth="yes"/>
      <point x="1738" y="988"/>
      <point x="2104" y="988" type="qcurve" smooth="yes"/>
      <point x="2470" y="988"/>
      <point x="2470" y="1200" type="qcurve" smooth="yes"/>
      <point x="2470" y="1782" type="line"/>
      <point x="2310" y="1658" type="line"/>
      <point x="2160" y="1782" type="line"/>
      <point x="2160" y="1550" type="line"/>
      <point x="2210" y="1550" type="line"/>
      <point x="2210" y="1400" type="line"/>
      <point x="1862" y="1400" type="line"/>
      <point x="1862" y="2000" type="line"/>
      <point x="2160" y="2000" type="line"/>
      <point x="2310" y="1876" type="line"/>
      <point x="2470" y="2000" type="line"/>
      <point x="2758" y="2000" type="line"/>
    </contour>
    <contour>
      <point x="1038" y="430" type="qcurve" smooth="yes"/>
      <point x="1038" y="378"/>
      <point x="1116" y="378" type="qcurve" smooth="yes"/>
      <point x="1243" y="378"/>
      <point x="1303" y="494" type="qcurve" smooth="yes"/>
      <point x="1362" y="610" type="line"/>
      <point x="1650" y="610" type="line"/>
      <point x="1650" y="-590" type="line"/>
      <point x="1362" y="-590" type="line"/>
      <point x="1362" y="306" type="line"/>
      <point x="1253" y="190"/>
      <point x="1016" y="190" type="qcurve" smooth="yes"/>
      <point x="750" y="190"/>
      <point x="750" y="430" type="qcurve" smooth="yes"/>
      <point x="750" y="610"/>
      <point x="1001" y="610" type="qcurve" smooth="yes"/>
      <point x="1092" y="610" type="line"/>
      <point x="1092" y="472" type="line"/>
      <point x="1038" y="472"/>
    </contour>
  </outline>
</glyph>
<glyph name="uni19ED" format="1">
  <advance width="3064"/>
  <unicode hex="19ED"/>
  <outline>
    <contour>
      <point x="862" y="1120" type="qcurve" smooth="yes"/>
      <point x="862" y="1680" type="line" smooth="yes"/>
      <point x="862" y="1812"/>
      <point x="650" y="1812" type="qcurve" smooth="yes"/>
      <point x="438" y="1812"/>
      <point x="438" y="1680" type="qcurve" smooth="yes"/>
      <point x="438" y="1560" type="line" smooth="yes"/>
      <point x="438" y="1480"/>
      <point x="515" y="1480" type="qcurve" smooth="yes"/>
      <point x="650" y="1480" type="line"/>
      <point x="650" y="1320" type="line"/>
      <point x="515" y="1320" type="line" smooth="yes"/>
      <point x="150" y="1320"/>
      <point x="150" y="1560" type="qcurve" smooth="yes"/>
      <point x="150" y="1680" type="line" smooth="yes"/>
      <point x="150" y="2000"/>
      <point x="650" y="2000" type="qcurve" smooth="yes"/>
      <point x="1150" y="2000"/>
      <point x="1150" y="1680" type="qcurve" smooth="yes"/>
      <point x="1150" y="1120" type="line" smooth="yes"/>
      <point x="1150" y="800"/>
      <point x="650" y="800" type="qcurve" smooth="yes"/>
      <point x="150" y="800"/>
      <point x="150" y="1120" type="qcurve"/>
      <point x="438" y="1120" type="line"/>
      <point x="438" y="988"/>
      <point x="650" y="988" type="qcurve" smooth="yes"/>
      <point x="862" y="988"/>
    </contour>
    <contour>
      <point x="2326" y="800" type="line"/>
      <point x="2038" y="800" type="line"/>
      <point x="2038" y="1640" type="line" smooth="yes"/>
      <point x="2038" y="1812"/>
      <point x="1888" y="1812" type="qcurve" smooth="yes"/>
      <point x="1738" y="1812"/>
      <point x="1738" y="1640" type="qcurve" smooth="yes"/>
      <point x="1738" y="938" type="line"/>
      <point x="1838" y="938" type="line"/>
      <point x="1838" y="800" type="line"/>
      <point x="1450" y="800" type="line"/>
      <point x="1450" y="1650" type="line" smooth="yes"/>
      <point x="1450" y="2000"/>
      <point x="1888" y="2000" type="qcurve" smooth="yes"/>
      <point x="2087" y="2000"/>
      <point x="2181" y="1911" type="qcurve"/>
      <point x="2275" y="2000"/>
      <point x="2476" y="2000" type="qcurve" smooth="yes"/>
      <point x="2914" y="2000"/>
      <point x="2914" y="1640" type="qcurve" smooth="yes"/>
      <point x="2914" y="800" type="line"/>
      <point x="2626" y="800" type="line"/>
      <point x="2626" y="1640" type="line" smooth="yes"/>
      <point x="2626" y="1812"/>
      <point x="2476" y="1812" type="qcurve" smooth="yes"/>
      <point x="2326" y="1812"/>
      <point x="2326" y="1640" type="qcurve" smooth="yes"/>
    </contour>
    <contour>
      <point x="1038" y="430" type="qcurve" smooth="yes"/>
      <point x="1038" y="378"/>
      <point x="1116" y="378" type="qcurve" smooth="yes"/>
      <point x="1243" y="378"/>
      <point x="1303" y="494" type="qcurve" smooth="yes"/>
      <point x="1362" y="610" type="line"/>
      <point x="1650" y="610" type="line"/>
      <point x="1650" y="-590" type="line"/>
      <point x="1362" y="-590" type="line"/>
      <point x="1362" y="306" type="line"/>
      <point x="1253" y="190"/>
      <point x="1016" y="190" type="qcurve" smooth="yes"/>
      <point x="750" y="190"/>
      <point x="750" y="430" type="qcurve" smooth="yes"/>
      <point x="750" y="610"/>
      <point x="1001" y="610" type="qcurve" smooth="yes"/>
      <point x="1092" y="610" type="line"/>
      <point x="1092" y="472" type="line"/>
      <point x="1038" y="472"/>
    </contour>
  </outline>
</glyph>
<glyph name="uni19EE" format="1">
  <advance width="2600"/>
  <unicode hex="19EE"/>
  <outline>
    <contour>
      <point x="862" y="1120" type="qcurve" smooth="yes"/>
      <point x="862" y="1680" type="line" smooth="yes"/>
      <point x="862" y="1812"/>
      <point x="650" y="1812" type="qcurve" smooth="yes"/>
      <point x="438" y="1812"/>
      <point x="438" y="1680" type="qcurve" smooth="yes"/>
      <point x="438" y="1560" type="line" smooth="yes"/>
      <point x="438" y="1480"/>
      <point x="515" y="1480" type="qcurve" smooth="yes"/>
      <point x="650" y="1480" type="line"/>
      <point x="650" y="1320" type="line"/>
      <point x="515" y="1320" type="line" smooth="yes"/>
      <point x="150" y="1320"/>
      <point x="150" y="1560" type="qcurve" smooth="yes"/>
      <point x="150" y="1680" type="line" smooth="yes"/>
      <point x="150" y="2000"/>
      <point x="650" y="2000" type="qcurve" smooth="yes"/>
      <point x="1150" y="2000"/>
      <point x="1150" y="1680" type="qcurve" smooth="yes"/>
      <point x="1150" y="1120" type="line" smooth="yes"/>
      <point x="1150" y="800"/>
      <point x="650" y="800" type="qcurve" smooth="yes"/>
      <point x="150" y="800"/>
      <point x="150" y="1120" type="qcurve"/>
      <point x="438" y="1120" type="line"/>
      <point x="438" y="988"/>
      <point x="650" y="988" type="qcurve" smooth="yes"/>
      <point x="862" y="988"/>
    </contour>
    <contour>
      <point x="1950" y="988" type="qcurve" smooth="yes"/>
      <point x="2220" y="988" type="line"/>
      <point x="2000" y="1248" type="line"/>
      <point x="2000" y="1600" type="line" smooth="yes"/>
      <point x="2000" y="1675"/>
      <point x="2150" y="1738"/>
      <point x="2300" y="1738" type="qcurve" smooth="yes"/>
      <point x="2450" y="1738" type="line"/>
      <point x="2450" y="1550" type="line"/>
      <point x="2288" y="1550" type="line"/>
      <point x="2288" y="1298" type="line"/>
      <point x="2450" y="938" type="line"/>
      <point x="2400" y="800" type="line"/>
      <point x="1950" y="800" type="line" smooth="yes"/>
      <point x="1450" y="800"/>
      <point x="1450" y="1200" type="qcurve" smooth="yes"/>
      <point x="1450" y="2100" type="line"/>
      <point x="1350" y="2100" type="line"/>
      <point x="1350" y="2260" type="line"/>
      <point x="1450" y="2260" type="line" smooth="yes"/>
      <point x="1738" y="2260"/>
      <point x="1738" y="2110" type="qcurve" smooth="yes"/>
      <point x="1738" y="1200" type="line" smooth="yes"/>
      <point x="1738" y="988"/>
    </contour>
    <contour>
      <point x="1038" y="430" type="qcurve" smooth="yes"/>
      <point x="1038" y="378"/>
      <point x="1116" y="378" type="qcurve" smooth="yes"/>
      <point x="1243" y="378"/>
      <point x="1303" y="494" type="qcurve" smooth="yes"/>
      <point x="1362" y="610" type="line"/>
      <point x="1650" y="610" type="line"/>
      <point x="1650" y="-590" type="line"/>
      <point x="1362" y="-590" type="line"/>
      <point x="1362" y="306" type="line"/>
      <point x="1253" y="190"/>
      <point x="1016" y="190" type="qcurve" smooth="yes"/>
      <point x="750" y="190"/>
      <point x="750" y="430" type="qcurve" smooth="yes"/>
      <point x="750" y="610"/>
      <point x="1001" y="610" type="qcurve" smooth="yes"/>
      <point x="1092" y="610" type="line"/>
      <point x="1092" y="472" type="line"/>
      <point x="1038" y="472"/>
    </contour>
  </outline>
</glyph>
<glyph name="uni19EF" format="1">
  <advance width="2600"/>
  <unicode hex="19EF"/>
  <outline>
    <contour>
      <point x="862" y="1120" type="qcurve" smooth="yes"/>
      <point x="862" y="1680" type="line" smooth="yes"/>
      <point x="862" y="1812"/>
      <point x="650" y="1812" type="qcurve" smooth="yes"/>
      <point x="438" y="1812"/>
      <point x="438" y="1680" type="qcurve" smooth="yes"/>
      <point x="438" y="1560" type="line" smooth="yes"/>
      <point x="438" y="1480"/>
      <point x="515" y="1480" type="qcurve" smooth="yes"/>
      <point x="650" y="1480" type="line"/>
      <point x="650" y="1320" type="line"/>
      <point x="515" y="1320" type="line" smooth="yes"/>
      <point x="150" y="1320"/>
      <point x="150" y="1560" type="qcurve" smooth="yes"/>
      <point x="150" y="1680" type="line" smooth="yes"/>
      <point x="150" y="2000"/>
      <point x="650" y="2000" type="qcurve" smooth="yes"/>
      <point x="1150" y="2000"/>
      <point x="1150" y="1680" type="qcurve" smooth="yes"/>
      <point x="1150" y="1120" type="line" smooth="yes"/>
      <point x="1150" y="800"/>
      <point x="650" y="800" type="qcurve" smooth="yes"/>
      <point x="150" y="800"/>
      <point x="150" y="1120" type="qcurve"/>
      <point x="438" y="1120" type="line"/>
      <point x="438" y="988"/>
      <point x="650" y="988" type="qcurve" smooth="yes"/>
      <point x="862" y="988"/>
    </contour>
    <contour>
      <point x="1738" y="1130" type="line" smooth="yes"/>
      <point x="1738" y="988"/>
      <point x="1950" y="988" type="qcurve" smooth="yes"/>
      <point x="2200" y="988" type="line"/>
      <point x="2000" y="1168" type="line"/>
      <point x="2000" y="1400" type="line" smooth="yes"/>
      <point x="2000" y="1600"/>
      <point x="2188" y="1600" type="qcurve" smooth="yes"/>
      <point x="2450" y="1600" type="line"/>
      <point x="2450" y="1412" type="line"/>
      <point x="2288" y="1412" type="line"/>
      <point x="2288" y="1198" type="line"/>
      <point x="2450" y="938" type="line"/>
      <point x="2398" y="800" type="line"/>
      <point x="1950" y="800" type="line" smooth="yes"/>
      <point x="1450" y="800"/>
      <point x="1450" y="1130" type="qcurve" smooth="yes"/>
      <point x="1450" y="1690" type="line" smooth="yes"/>
      <point x="1450" y="1837"/>
      <point x="1575" y="1890" type="qcurve" smooth="yes"/>
      <point x="1597" y="1900"/>
      <point x="1618" y="1907" type="qcurve"/>
      <point x="1550" y="1964"/>
      <point x="1550" y="2026" type="qcurve" smooth="yes"/>
      <point x="1550" y="2170"/>
      <point x="1780" y="2170" type="qcurve" smooth="yes"/>
      <point x="1970" y="2170"/>
      <point x="1970" y="2026" type="qcurve" smooth="yes"/>
      <point x="1970" y="1974"/>
      <point x="1895" y="1923" type="qcurve"/>
      <point x="1996" y="1913"/>
      <point x="2070" y="1913" type="qcurve" smooth="yes"/>
      <point x="2162" y="1913"/>
      <point x="2162" y="2009" type="qcurve" smooth="yes"/>
      <point x="2162" y="2370" type="line"/>
      <point x="2450" y="2370" type="line"/>
      <point x="2450" y="2009" type="line" smooth="yes"/>
      <point x="2450" y="1725"/>
      <point x="2070" y="1725" type="qcurve" smooth="yes"/>
      <point x="1914" y="1725"/>
      <point x="1772" y="1784" type="qcurve"/>
      <point x="1738" y="1739"/>
      <point x="1738" y="1690" type="qcurve" smooth="yes"/>
    </contour>
    <contour>
      <point x="1038" y="430" type="qcurve" smooth="yes"/>
      <point x="1038" y="378"/>
      <point x="1116" y="378" type="qcurve" smooth="yes"/>
      <point x="1243" y="378"/>
      <point x="1303" y="494" type="qcurve" smooth="yes"/>
      <point x="1362" y="610" type="line"/>
      <point x="1650" y="610" type="line"/>
      <point x="1650" y="-590" type="line"/>
      <point x="1362" y="-590" type="line"/>
      <point x="1362" y="306" type="line"/>
      <point x="1253" y="190"/>
      <point x="1016" y="190" type="qcurve" smooth="yes"/>
      <point x="750" y="190"/>
      <point x="750" y="430" type="qcurve" smooth="yes"/>
      <point x="750" y="610"/>
      <point x="1001" y="610" type="qcurve" smooth="yes"/>
      <point x="1092" y="610" type="line"/>
      <point x="1092" y="472" type="line"/>
      <point x="1038" y="472"/>
    </contour>
  </outline>
</glyph>
<glyph name="uni19F0" format="1">
  <advance width="1300"/>
  <unicode hex="19F0"/>
  <outline>
    <contour>
      <point x="1150" y="290" type="line"/>
      <point x="862" y="290" type="line"/>
      <point x="862" y="422"/>
      <point x="650" y="422" type="qcurve" smooth="yes"/>
      <point x="438" y="422"/>
      <point x="438" y="290" type="qcurve" smooth="yes"/>
      <point x="438" y="-329" type="line"/>
      <point x="651" y="-135" type="line"/>
      <point x="862" y="-327" type="line"/>
      <point x="862" y="-70" type="line" smooth="yes"/>
      <point x="862" y="10"/>
      <point x="810" y="10" type="qcurve" smooth="yes"/>
      <point x="680" y="10" type="line"/>
      <point x="680" y="160" type="line"/>
      <point x="910" y="160" type="line" smooth="yes"/>
      <point x="1150" y="160"/>
      <point x="1150" y="-70" type="qcurve" smooth="yes"/>
      <point x="1150" y="-590" type="line"/>
      <point x="882" y="-590" type="line"/>
      <point x="651" y="-380" type="line"/>
      <point x="419" y="-590" type="line"/>
      <point x="150" y="-590" type="line"/>
      <point x="150" y="290" type="line" smooth="yes"/>
      <point x="150" y="610"/>
      <point x="590" y="610" type="qcurve" smooth="yes"/>
      <point x="754" y="610"/>
      <point x="862" y="556" type="qcurve"/>
      <point x="862" y="818" type="line"/>
      <point x="651" y="1010" type="line"/>
      <point x="419" y="800" type="line"/>
      <point x="150" y="800" type="line"/>
      <point x="150" y="1680" type="line" smooth="yes"/>
      <point x="150" y="2000"/>
      <point x="590" y="2000" type="qcurve" smooth="yes"/>
      <point x="754" y="2000"/>
      <point x="862" y="1946" type="qcurve"/>
      <point x="862" y="2350" type="line"/>
      <point x="1150" y="2350" type="line"/>
      <point x="1150" y="1680" type="line"/>
      <point x="862" y="1680" type="line"/>
      <point x="862" y="1812"/>
      <point x="650" y="1812" type="qcurve" smooth="yes"/>
      <point x="438" y="1812"/>
      <point x="438" y="1680" type="qcurve" smooth="yes"/>
      <point x="438" y="1061" type="line"/>
      <point x="651" y="1255" type="line"/>
      <point x="862" y="1063" type="line"/>
      <point x="862" y="1320" type="line" smooth="yes"/>
      <point x="862" y="1400"/>
      <point x="810" y="1400" type="qcurve" smooth="yes"/>
      <point x="680" y="1400" type="line"/>
      <point x="680" y="1550" type="line"/>
      <point x="910" y="1550" type="line" smooth="yes"/>
      <point x="1150" y="1550"/>
      <point x="1150" y="1320" type="qcurve" smooth="yes"/>
    </contour>
  </outline>
</glyph>
<glyph name="uni19F1" format="1">
  <advance width="1300"/>
  <unicode hex="19F1"/>
  <outline>
    <contour>
      <point x="862" y="-270" type="qcurve" smooth="yes"/>
      <point x="862" y="290" type="line" smooth="yes"/>
      <point x="862" y="422"/>
      <point x="650" y="422" type="qcurve" smooth="yes"/>
      <point x="438" y="422"/>
      <point x="438" y="290" type="qcurve" smooth="yes"/>
      <point x="438" y="170" type="line" smooth="yes"/>
      <point x="438" y="90"/>
      <point x="515" y="90" type="qcurve" smooth="yes"/>
      <point x="650" y="90" type="line"/>
      <point x="650" y="-70" type="line"/>
      <point x="515" y="-70" type="line" smooth="yes"/>
      <point x="150" y="-70"/>
      <point x="150" y="170" type="qcurve" smooth="yes"/>
      <point x="150" y="290" type="line" smooth="yes"/>
      <point x="150" y="610"/>
      <point x="650" y="610" type="qcurve" smooth="yes"/>
      <point x="1150" y="610"/>
      <point x="1150" y="290" type="qcurve" smooth="yes"/>
      <point x="1150" y="-270" type="line" smooth="yes"/>
      <point x="1150" y="-590"/>
      <point x="650" y="-590" type="qcurve" smooth="yes"/>
      <point x="150" y="-590"/>
      <point x="150" y="-270" type="qcurve"/>
      <point x="438" y="-270" type="line"/>
      <point x="438" y="-402"/>
      <point x="650" y="-402" type="qcurve" smooth="yes"/>
      <point x="862" y="-402"/>
    </contour>
    <contour>
      <point x="438" y="1820" type="qcurve" smooth="yes"/>
      <point x="438" y="1768"/>
      <point x="516" y="1768" type="qcurve" smooth="yes"/>
      <point x="643" y="1768"/>
      <point x="703" y="1884" type="qcurve" smooth="yes"/>
      <point x="762" y="2000" type="line"/>
      <point x="1050" y="2000" type="line"/>
      <point x="1050" y="800" type="line"/>
      <point x="762" y="800" type="line"/>
      <point x="762" y="1696" type="line"/>
      <point x="653" y="1580"/>
      <point x="416" y="1580" type="qcurve" smooth="yes"/>
      <point x="150" y="1580"/>
      <point x="150" y="1820" type="qcurve" smooth="yes"/>
      <point x="150" y="2000"/>
      <point x="401" y="2000" type="qcurve" smooth="yes"/>
      <point x="492" y="2000" type="line"/>
      <point x="492" y="1862" type="line"/>
      <point x="438" y="1862"/>
    </contour>
  </outline>
</glyph>
<glyph name="uni19F2" format="1">
  <advance width="1608"/>
  <unicode hex="19F2"/>
  <outline>
    <contour>
      <point x="1458" y="-190" type="line" smooth="yes"/>
      <point x="1458" y="-590"/>
      <point x="804" y="-590" type="qcurve" smooth="yes"/>
      <point x="150" y="-590"/>
      <point x="150" y="-190" type="qcurve" smooth="yes"/>
      <point x="150" y="710" type="line"/>
      <point x="50" y="710" type="line"/>
      <point x="50" y="860" type="line"/>
      <point x="150" y="860" type="line" smooth="yes"/>
      <point x="438" y="860"/>
      <point x="438" y="710" type="qcurve" smooth="yes"/>
      <point x="438" y="-190" type="line" smooth="yes"/>
      <point x="438" y="-402"/>
      <point x="804" y="-402" type="qcurve" smooth="yes"/>
      <point x="1170" y="-402"/>
      <point x="1170" y="-190" type="qcurve" smooth="yes"/>
      <point x="1170" y="392" type="line"/>
      <point x="1010" y="268" type="line"/>
      <point x="860" y="392" type="line"/>
      <point x="860" y="160" type="line"/>
      <point x="910" y="160" type="line"/>
      <point x="910" y="10" type="line"/>
      <point x="562" y="10" type="line"/>
      <point x="562" y="610" type="line"/>
      <point x="860" y="610" type="line"/>
      <point x="1010" y="486" type="line"/>
      <point x="1170" y="610" type="line"/>
      <point x="1458" y="610" type="line"/>
    </contour>
    <contour>
      <point x="438" y="1820" type="qcurve" smooth="yes"/>
      <point x="438" y="1768"/>
      <point x="516" y="1768" type="qcurve" smooth="yes"/>
      <point x="643" y="1768"/>
      <point x="703" y="1884" type="qcurve" smooth="yes"/>
      <point x="762" y="2000" type="line"/>
      <point x="1050" y="2000" type="line"/>
      <point x="1050" y="800" type="line"/>
      <point x="762" y="800" type="line"/>
      <point x="762" y="1696" type="line"/>
      <point x="653" y="1580"/>
      <point x="416" y="1580" type="qcurve" smooth="yes"/>
      <point x="150" y="1580"/>
      <point x="150" y="1820" type="qcurve" smooth="yes"/>
      <point x="150" y="2000"/>
      <point x="401" y="2000" type="qcurve" smooth="yes"/>
      <point x="492" y="2000" type="line"/>
      <point x="492" y="1862" type="line"/>
      <point x="438" y="1862"/>
    </contour>
  </outline>
</glyph>
<glyph name="uni19F3" format="1">
  <advance width="1764"/>
  <unicode hex="19F3"/>
  <outline>
    <contour>
      <point x="1026" y="-590" type="line"/>
      <point x="738" y="-590" type="line"/>
      <point x="738" y="250" type="line" smooth="yes"/>
      <point x="738" y="422"/>
      <point x="588" y="422" type="qcurve" smooth="yes"/>
      <point x="438" y="422"/>
      <point x="438" y="250" type="qcurve" smooth="yes"/>
      <point x="438" y="-452" type="line"/>
      <point x="538" y="-452" type="line"/>
      <point x="538" y="-590" type="line"/>
      <point x="150" y="-590" type="line"/>
      <point x="150" y="260" type="line" smooth="yes"/>
      <point x="150" y="610"/>
      <point x="588" y="610" type="qcurve" smooth="yes"/>
      <point x="787" y="610"/>
      <point x="881" y="521" type="qcurve"/>
      <point x="975" y="610"/>
      <point x="1176" y="610" type="qcurve" smooth="yes"/>
      <point x="1614" y="610"/>
      <point x="1614" y="250" type="qcurve" smooth="yes"/>
      <point x="1614" y="-590" type="line"/>
      <point x="1326" y="-590" type="line"/>
      <point x="1326" y="250" type="line" smooth="yes"/>
      <point x="1326" y="422"/>
      <point x="1176" y="422" type="qcurve" smooth="yes"/>
      <point x="1026" y="422"/>
      <point x="1026" y="250" type="qcurve" smooth="yes"/>
    </contour>
    <contour>
      <point x="438" y="1820" type="qcurve" smooth="yes"/>
      <point x="438" y="1768"/>
      <point x="516" y="1768" type="qcurve" smooth="yes"/>
      <point x="643" y="1768"/>
      <point x="703" y="1884" type="qcurve" smooth="yes"/>
      <point x="762" y="2000" type="line"/>
      <point x="1050" y="2000" type="line"/>
      <point x="1050" y="800" type="line"/>
      <point x="762" y="800" type="line"/>
      <point x="762" y="1696" type="line"/>
      <point x="653" y="1580"/>
      <point x="416" y="1580" type="qcurve" smooth="yes"/>
      <point x="150" y="1580"/>
      <point x="150" y="1820" type="qcurve" smooth="yes"/>
      <point x="150" y="2000"/>
      <point x="401" y="2000" type="qcurve" smooth="yes"/>
      <point x="492" y="2000" type="line"/>
      <point x="492" y="1862" type="line"/>
      <point x="438" y="1862"/>
    </contour>
  </outline>
</glyph>
<glyph name="uni19F4" format="1">
  <advance width="1300"/>
  <unicode hex="19F4"/>
  <outline>
    <contour>
      <point x="650" y="-402" type="qcurve" smooth="yes"/>
      <point x="920" y="-402" type="line"/>
      <point x="700" y="-142" type="line"/>
      <point x="700" y="210" type="line" smooth="yes"/>
      <point x="700" y="285"/>
      <point x="850" y="348"/>
      <point x="1000" y="348" type="qcurve" smooth="yes"/>
      <point x="1150" y="348" type="line"/>
      <point x="1150" y="160" type="line"/>
      <point x="988" y="160" type="line"/>
      <point x="988" y="-92" type="line"/>
      <point x="1150" y="-452" type="line"/>
      <point x="1100" y="-590" type="line"/>
      <point x="650" y="-590" type="line" smooth="yes"/>
      <point x="150" y="-590"/>
      <point x="150" y="-190" type="qcurve" smooth="yes"/>
      <point x="150" y="710" type="line"/>
      <point x="50" y="710" type="line"/>
      <point x="50" y="870" type="line"/>
      <point x="150" y="870" type="line" smooth="yes"/>
      <point x="438" y="870"/>
      <point x="438" y="720" type="qcurve" smooth="yes"/>
      <point x="438" y="-190" type="line" smooth="yes"/>
      <point x="438" y="-402"/>
    </contour>
    <contour>
      <point x="438" y="1820" type="qcurve" smooth="yes"/>
      <point x="438" y="1768"/>
      <point x="516" y="1768" type="qcurve" smooth="yes"/>
      <point x="643" y="1768"/>
      <point x="703" y="1884" type="qcurve" smooth="yes"/>
      <point x="762" y="2000" type="line"/>
      <point x="1050" y="2000" type="line"/>
      <point x="1050" y="800" type="line"/>
      <point x="762" y="800" type="line"/>
      <point x="762" y="1696" type="line"/>
      <point x="653" y="1580"/>
      <point x="416" y="1580" type="qcurve" smooth="yes"/>
      <point x="150" y="1580"/>
      <point x="150" y="1820" type="qcurve" smooth="yes"/>
      <point x="150" y="2000"/>
      <point x="401" y="2000" type="qcurve" smooth="yes"/>
      <point x="492" y="2000" type="line"/>
      <point x="492" y="1862" type="line"/>
      <point x="438" y="1862"/>
    </contour>
  </outline>
</glyph>
<glyph name="uni19F5" format="1">
  <advance width="1300"/>
  <unicode hex="19F5"/>
  <outline>
    <contour>
      <point x="1050" y="980" type="line"/>
      <point x="1150" y="980" type="line"/>
      <point x="1150" y="619" type="line" smooth="yes"/>
      <point x="1150" y="335"/>
      <point x="770" y="335" type="qcurve" smooth="yes"/>
      <point x="614" y="335"/>
      <point x="472" y="394" type="qcurve"/>
      <point x="438" y="349"/>
      <point x="438" y="300" type="qcurve" smooth="yes"/>
      <point x="438" y="-260" type="line" smooth="yes"/>
      <point x="438" y="-402"/>
      <point x="650" y="-402" type="qcurve" smooth="yes"/>
      <point x="900" y="-402" type="line"/>
      <point x="700" y="-222" type="line"/>
      <point x="700" y="10" type="line" smooth="yes"/>
      <point x="700" y="210"/>
      <point x="888" y="210" type="qcurve" smooth="yes"/>
      <point x="1150" y="210" type="line"/>
      <point x="1150" y="22" type="line"/>
      <point x="988" y="22" type="line"/>
      <point x="988" y="-192" type="line"/>
      <point x="1150" y="-452" type="line"/>
      <point x="1098" y="-590" type="line"/>
      <point x="650" y="-590" type="line" smooth="yes"/>
      <point x="150" y="-590"/>
      <point x="150" y="-260" type="qcurve" smooth="yes"/>
      <point x="150" y="300" type="line" smooth="yes"/>
      <point x="150" y="447"/>
      <point x="275" y="500" type="qcurve" smooth="yes"/>
      <point x="297" y="510"/>
      <point x="318" y="517" type="qcurve"/>
      <point x="250" y="574"/>
      <point x="250" y="636" type="qcurve" smooth="yes"/>
      <point x="250" y="780"/>
      <point x="480" y="780" type="qcurve" smooth="yes"/>
      <point x="670" y="780"/>
      <point x="670" y="636" type="qcurve" smooth="yes"/>
      <point x="670" y="584"/>
      <point x="595" y="533" type="qcurve"/>
      <point x="696" y="523"/>
      <point x="770" y="523" type="qcurve" smooth="yes"/>
      <point x="862" y="523"/>
      <point x="862" y="619" type="qcurve" smooth="yes"/>
      <point x="862" y="800" type="line"/>
      <point x="762" y="800" type="line"/>
      <point x="762" y="1696" type="line"/>
      <point x="653" y="1580"/>
      <point x="416" y="1580" type="qcurve" smooth="yes"/>
      <point x="150" y="1580"/>
      <point x="150" y="1820" type="qcurve" smooth="yes"/>
      <point x="150" y="2000"/>
      <point x="401" y="2000" type="qcurve" smooth="yes"/>
      <point x="492" y="2000" type="line"/>
      <point x="492" y="1862" type="line"/>
      <point x="438" y="1862"/>
      <point x="438" y="1820" type="qcurve" smooth="yes"/>
      <point x="438" y="1768"/>
      <point x="516" y="1768" type="qcurve" smooth="yes"/>
      <point x="643" y="1768"/>
      <point x="703" y="1884" type="qcurve" smooth="yes"/>
      <point x="762" y="2000" type="line"/>
      <point x="1050" y="2000" type="line"/>
    </contour>
  </outline>
</glyph>
<glyph name="uni19F6" format="1">
  <advance width="1300"/>
  <unicode hex="19F6"/>
  <outline>
    <contour>
      <point x="150" y="960" type="line"/>
      <point x="438" y="960" type="line"/>
      <point x="438" y="556" type="line"/>
      <point x="516" y="610"/>
      <point x="650" y="610" type="qcurve" smooth="yes"/>
      <point x="1150" y="610"/>
      <point x="1150" y="210" type="qcurve" smooth="yes"/>
      <point x="1150" y="-190" type="line" smooth="yes"/>
      <point x="1150" y="-590"/>
      <point x="650" y="-590" type="qcurve" smooth="yes"/>
      <point x="150" y="-590"/>
      <point x="150" y="-240" type="qcurve" smooth="yes"/>
      <point x="150" y="110"/>
      <point x="550" y="110" type="qcurve" smooth="yes"/>
      <point x="700" y="110" type="line"/>
      <point x="700" y="-28" type="line"/>
      <point x="550" y="-28" type="line" smooth="yes"/>
      <point x="438" y="-28"/>
      <point x="438" y="-240" type="qcurve" smooth="yes"/>
      <point x="438" y="-402"/>
      <point x="650" y="-402" type="qcurve" smooth="yes"/>
      <point x="862" y="-402"/>
      <point x="862" y="-190" type="qcurve" smooth="yes"/>
      <point x="862" y="210" type="line" smooth="yes"/>
      <point x="862" y="422"/>
      <point x="650" y="422" type="qcurve" smooth="yes"/>
      <point x="438" y="422"/>
      <point x="438" y="270" type="qcurve"/>
      <point x="150" y="270" type="line"/>
    </contour>
    <contour>
      <point x="438" y="1820" type="qcurve" smooth="yes"/>
      <point x="438" y="1768"/>
      <point x="516" y="1768" type="qcurve" smooth="yes"/>
      <point x="643" y="1768"/>
      <point x="703" y="1884" type="qcurve" smooth="yes"/>
      <point x="762" y="2000" type="line"/>
      <point x="1050" y="2000" type="line"/>
      <point x="1050" y="800" type="line"/>
      <point x="762" y="800" type="line"/>
      <point x="762" y="1696" type="line"/>
      <point x="653" y="1580"/>
      <point x="416" y="1580" type="qcurve" smooth="yes"/>
      <point x="150" y="1580"/>
      <point x="150" y="1820" type="qcurve" smooth="yes"/>
      <point x="150" y="2000"/>
      <point x="401" y="2000" type="qcurve" smooth="yes"/>
      <point x="492" y="2000" type="line"/>
      <point x="492" y="1862" type="line"/>
      <point x="438" y="1862"/>
    </contour>
  </outline>
</glyph>
<glyph name="uni19F7" format="1">
  <advance width="1650"/>
  <unicode hex="19F7"/>
  <outline>
    <contour>
      <point x="1100" y="-402" type="line"/>
      <point x="1212" y="-402" type="line"/>
      <point x="1212" y="910" type="line"/>
      <point x="1500" y="910" type="line"/>
      <point x="1500" y="-402" type="line" smooth="yes"/>
      <point x="1500" y="-590"/>
      <point x="1156" y="-590" type="qcurve" smooth="yes"/>
      <point x="812" y="-590"/>
      <point x="812" y="-402" type="qcurve" smooth="yes"/>
      <point x="812" y="283" type="line" smooth="yes"/>
      <point x="812" y="410"/>
      <point x="785" y="410" type="qcurve" smooth="yes"/>
      <point x="758" y="410"/>
      <point x="681" y="316" type="qcurve" smooth="yes"/>
      <point x="655" y="285"/>
      <point x="625" y="285" type="qcurve" smooth="yes"/>
      <point x="595" y="285"/>
      <point x="569" y="316" type="qcurve" smooth="yes"/>
      <point x="493" y="410"/>
      <point x="466" y="410" type="qcurve" smooth="yes"/>
      <point x="438" y="410"/>
      <point x="438" y="283" type="qcurve" smooth="yes"/>
      <point x="438" y="-402" type="line"/>
      <point x="550" y="-402" type="line"/>
      <point x="550" y="-590" type="line"/>
      <point x="150" y="-590" type="line"/>
      <point x="150" y="333" type="line" smooth="yes"/>
      <point x="150" y="610"/>
      <point x="431" y="610" type="qcurve" smooth="yes"/>
      <point x="520" y="610"/>
      <point x="625" y="486" type="qcurve"/>
      <point x="731" y="610"/>
      <point x="821" y="610" type="qcurve" smooth="yes"/>
      <point x="1100" y="610"/>
      <point x="1100" y="333" type="qcurve" smooth="yes"/>
    </contour>
    <contour>
      <point x="438" y="1820" type="qcurve" smooth="yes"/>
      <point x="438" y="1768"/>
      <point x="516" y="1768" type="qcurve" smooth="yes"/>
      <point x="643" y="1768"/>
      <point x="703" y="1884" type="qcurve" smooth="yes"/>
      <point x="762" y="2000" type="line"/>
      <point x="1050" y="2000" type="line"/>
      <point x="1050" y="800" type="line"/>
      <point x="762" y="800" type="line"/>
      <point x="762" y="1696" type="line"/>
      <point x="653" y="1580"/>
      <point x="416" y="1580" type="qcurve" smooth="yes"/>
      <point x="150" y="1580"/>
      <point x="150" y="1820" type="qcurve" smooth="yes"/>
      <point x="150" y="2000"/>
      <point x="401" y="2000" type="qcurve" smooth="yes"/>
      <point x="492" y="2000" type="line"/>
      <point x="492" y="1862" type="line"/>
      <point x="438" y="1862"/>
    </contour>
  </outline>
</glyph>
<glyph name="uni19F8" format="1">
  <advance width="1300"/>
  <unicode hex="19F8"/>
  <outline>
    <contour>
      <point x="1050" y="960" type="line"/>
      <point x="1150" y="960" type="line"/>
      <point x="1150" y="290" type="line"/>
      <point x="862" y="290" type="line"/>
      <point x="862" y="422"/>
      <point x="650" y="422" type="qcurve" smooth="yes"/>
      <point x="438" y="422"/>
      <point x="438" y="290" type="qcurve" smooth="yes"/>
      <point x="438" y="-329" type="line"/>
      <point x="651" y="-135" type="line"/>
      <point x="862" y="-327" type="line"/>
      <point x="862" y="-70" type="line" smooth="yes"/>
      <point x="862" y="10"/>
      <point x="810" y="10" type="qcurve" smooth="yes"/>
      <point x="680" y="10" type="line"/>
      <point x="680" y="160" type="line"/>
      <point x="910" y="160" type="line" smooth="yes"/>
      <point x="1150" y="160"/>
      <point x="1150" y="-70" type="qcurve" smooth="yes"/>
      <point x="1150" y="-590" type="line"/>
      <point x="882" y="-590" type="line"/>
      <point x="651" y="-380" type="line"/>
      <point x="419" y="-590" type="line"/>
      <point x="150" y="-590" type="line"/>
      <point x="150" y="290" type="line" smooth="yes"/>
      <point x="150" y="610"/>
      <point x="590" y="610" type="qcurve" smooth="yes"/>
      <point x="754" y="610"/>
      <point x="862" y="556" type="qcurve"/>
      <point x="862" y="800" type="line"/>
      <point x="762" y="800" type="line"/>
      <point x="762" y="1696" type="line"/>
      <point x="653" y="1580"/>
      <point x="416" y="1580" type="qcurve" smooth="yes"/>
      <point x="150" y="1580"/>
      <point x="150" y="1820" type="qcurve" smooth="yes"/>
      <point x="150" y="2000"/>
      <point x="401" y="2000" type="qcurve" smooth="yes"/>
      <point x="492" y="2000" type="line"/>
      <point x="492" y="1862" type="line"/>
      <point x="438" y="1862"/>
      <point x="438" y="1820" type="qcurve" smooth="yes"/>
      <point x="438" y="1768"/>
      <point x="516" y="1768" type="qcurve" smooth="yes"/>
      <point x="643" y="1768"/>
      <point x="703" y="1884" type="qcurve" smooth="yes"/>
      <point x="762" y="2000" type="line"/>
      <point x="1050" y="2000" type="line"/>
    </contour>
  </outline>
</glyph>
<glyph name="uni19F9" format="1">
  <advance width="1300"/>
  <unicode hex="19F9"/>
  <outline>
    <contour>
      <point x="1050" y="920" type="line"/>
      <point x="1150" y="920" type="line"/>
      <point x="1150" y="352" type="line"/>
      <point x="862" y="352" type="line"/>
      <point x="862" y="422"/>
      <point x="650" y="422" type="qcurve" smooth="yes"/>
      <point x="438" y="422"/>
      <point x="438" y="312" type="qcurve" smooth="yes"/>
      <point x="438" y="190"/>
      <point x="650" y="190" type="qcurve" smooth="yes"/>
      <point x="950" y="190" type="line"/>
      <point x="950" y="52" type="line"/>
      <point x="650" y="52" type="line" smooth="yes"/>
      <point x="438" y="52"/>
      <point x="438" y="-64" type="qcurve" smooth="yes"/>
      <point x="438" y="-290" type="line" smooth="yes"/>
      <point x="438" y="-402"/>
      <point x="650" y="-402" type="qcurve" smooth="yes"/>
      <point x="862" y="-402"/>
      <point x="862" y="-292" type="qcurve" smooth="yes"/>
      <point x="862" y="-192"/>
      <point x="750" y="-192" type="qcurve" smooth="yes"/>
      <point x="650" y="-192" type="line"/>
      <point x="650" y="-64" type="line"/>
      <point x="750" y="-64" type="line" smooth="yes"/>
      <point x="1150" y="-64"/>
      <point x="1150" y="-297" type="qcurve" smooth="yes"/>
      <point x="1150" y="-590"/>
      <point x="650" y="-590" type="qcurve" smooth="yes"/>
      <point x="150" y="-590"/>
      <point x="150" y="-290" type="qcurve" smooth="yes"/>
      <point x="150" y="-64" type="line"/>
      <point x="189" y="82"/>
      <point x="338" y="125" type="qcurve"/>
      <point x="189" y="169"/>
      <point x="150" y="312" type="qcurve"/>
      <point x="150" y="610"/>
      <point x="600" y="610" type="qcurve" smooth="yes"/>
      <point x="784" y="610"/>
      <point x="862" y="572" type="qcurve"/>
      <point x="862" y="800" type="line"/>
      <point x="762" y="800" type="line"/>
      <point x="762" y="1696" type="line"/>
      <point x="653" y="1580"/>
      <point x="416" y="1580" type="qcurve" smooth="yes"/>
      <point x="150" y="1580"/>
      <point x="150" y="1820" type="qcurve" smooth="yes"/>
      <point x="150" y="2000"/>
      <point x="401" y="2000" type="qcurve" smooth="yes"/>
      <point x="492" y="2000" type="line"/>
      <point x="492" y="1862" type="line"/>
      <point x="438" y="1862"/>
      <point x="438" y="1820" type="qcurve" smooth="yes"/>
      <point x="438" y="1768"/>
      <point x="516" y="1768" type="qcurve" smooth="yes"/>
      <point x="643" y="1768"/>
      <point x="703" y="1884" type="qcurve" smooth="yes"/>
      <point x="762" y="2000" type="line"/>
      <point x="1050" y="2000" type="line"/>
    </contour>
  </outline>
</glyph>
